<?xml version="1.0" encoding="utf-8"?>
<!-- Generator: Adobe Illustrator 23.0.1, SVG Export Plug-In . SVG Version: 6.00 Build 0)  -->
<svg version="1.1" id="svg4232" xmlns:svg="http://www.w3.org/2000/svg"
	 xmlns="http://www.w3.org/2000/svg" xmlns:xlink="http://www.w3.org/1999/xlink" x="0px" y="0px" viewBox="0 0 541.3 226.1"
	 style="enable-background:new 0 0 541.3 226.1;" xml:space="preserve">
<style type="text/css">
	.st0{opacity:0.88;}
	.st1{fill:#B5B5B5;}
	.st2{fill:#FFFFFF;}
	.st3{fill:#D8D8D8;}
</style>
<g id="layer1" transform="translate(-129.33351,-393.59072)" class="st0">
	<path id="path84" class="st1" d="M271.1,441.1V478c0,1.8-1.6,4.9-3.4,6.7l-37.6,37.6c-0.9,0.9-1.9,1.4-2.5,1.4c-0.6,0-1-0.4-1-1.4
		v4.1c0,1.8,1.6,3.4,3.4,3.4h81.9c1.8,0,3.4-1.6,3.4-3.4v-82c0-1.8-1.6-3.3-3.4-3.3H271.1z M219,526.3c0,1.8-1.6,3.4-3.4,3.4h-40.9
		v44.5c0,0.9,0.4,1.4,1,1.4s1.4-0.4,2.3-1.4l37.6-37.6c1.8-1.8,3.4-4.9,3.4-6.7L219,526.3L219,526.3z"/>
	<path id="path88" class="st2" d="M270.1,394.6c-0.6,0-1.5,0.4-2.5,1.4l-37.6,37.7c-1.8,1.8-3.4,4.7-3.4,6.6v4.1v77.9
		c0,1.8,1.6,1.8,3.4,0l37.6-37.6c1.8-1.8,3.4-4.9,3.4-6.7v-36.9V396C271.1,395,270.7,394.6,270.1,394.6z M133.7,441.1
		c-1.8,0-3.4,1.4-3.4,3.3v82c0,1.8,1.6,3.4,3.4,3.4h81.9c1.8,0,3.4-1.6,3.4-3.4v-82c0-1.8-1.6-3.3-3.4-3.3H133.7z"/>
	<path id="path100" class="st3" d="M230.1,441.1c-1.8,0-3.4,1.6-3.4,3.4v77.8c0,0.9,0.4,1.4,1,1.4c0.6,0,1.5-0.4,2.5-1.4l37.6-37.6
		c1.8-1.8,3.4-4.9,3.4-6.7v-36.9H230.1z M218.1,446.7c-0.6,0-1.5,0.5-2.5,1.4L178,485.7c-1.8,1.9-3.3,4.7-3.3,6.6v37.4h40.9
		c1.8,0,3.4-1.6,3.4-3.4V448C219,447.1,218.7,446.7,218.1,446.7L218.1,446.7z"/>
	<path id="path238" class="st1" d="M523.1,441.2c-0.6,0-1.2,0.1-1.6,0.5c-0.4,0.4-0.7,0.9-0.7,1.5v84.2c0,0.6,0.2,1.2,0.7,1.6
		c0.4,0.4,1,0.7,1.6,0.7h20.2c4.1,0,8.2-0.6,11.9-1.8c3.7-1.2,6.9-2.8,9.7-4.9c2.8-2.2,5-4.9,6.6-8.1c1.6-3.2,2.5-6.8,2.5-10.8
		c0-2.7-0.5-5.4-1.5-7.8c-1-2.4-2.4-4.6-4.1-6.4c-1.7-1.9-3.8-3.3-6-4.5c-2.3-1.2-4.6-2-7.1-2.5c1.8-0.5,3.6-1.4,5.5-2.6
		c1.9-1.2,3.7-2.6,5.3-4.4c1.6-1.7,2.9-3.7,4-5.9c1.1-2.2,1.6-4.4,1.6-6.8c0-3.8-0.7-7.1-2.2-9.8c-1.5-2.8-3.4-5.2-5.9-7
		c-2.4-1.8-5.2-3.2-8.5-4.1c-3.2-0.9-6.6-1.2-10.1-1.2H523.1L523.1,441.2z M584.4,441.2c-0.6,0-1.1,0.2-1.5,0.5
		c-0.4,0.4-0.5,0.9-0.3,1.5l16.9,84.2c0.2,0.6,0.6,1.2,1.1,1.6c0.5,0.4,1,0.7,1.6,0.7h6.7c0.6,0,1.2-0.3,1.6-0.7
		c0.5-0.4,0.8-1,1-1.6l14.5-74.2l14.6,74.2c0.2,0.6,0.5,1.2,1,1.6c0.5,0.4,1,0.7,1.6,0.7h6.7c0.6,0,1.2-0.3,1.6-0.7
		c0.4-0.4,0.8-1,1-1.6l16.9-84.2c0.2-0.6,0.1-1.1-0.3-1.5c-0.4-0.4-0.8-0.5-1.4-0.5h-5.3c-1.3,0-2.2,0.6-2.6,2l-13.1,74.3
		l-14.6-74.3c-0.4-1.4-1.1-2-2.5-2h-6.7c-1.4,0-2.3,0.6-2.6,2L606,517.6l-13.3-74.3c-0.4-1.4-1.3-2-2.7-2L584.4,441.2L584.4,441.2z
		 M530.5,449h14.5c5,0,9,1.3,12.2,4c3.1,2.7,4.6,6.3,4.6,10.8c0,2.3-0.5,4.3-1.5,6.3c-1,1.9-2.2,3.7-3.8,5.1
		c-1.6,1.4-3.4,2.5-5.5,3.3c-2,0.8-4.2,1.2-6.4,1.2h-14.1L530.5,449L530.5,449z M530.5,487.2h14.5c5.6,0,10.2,1.5,13.7,4.5
		c3.5,3,5.2,6.9,5.2,12c0,2.7-0.4,5.2-1.4,7.4c-1,2.2-2.4,4.1-4.1,5.7c-1.7,1.6-3.7,2.8-6,3.7c-2.3,0.9-4.8,1.4-7.4,1.4h-14.5V487.2
		L530.5,487.2z M412.9,550v20.2c0,0.5,0,1.1,0.1,1.6c0.1,0.5,0.3,0.9,0.5,1.2c0.3,0.4,0.7,0.7,1.1,1c0.4,0.2,1,0.3,1.6,0.3
		c0.3,0,0.7,0,1.1-0.1c0.4-0.1,0.7-0.3,0.8-0.4l-0.7-1.9l-0.5,0.4l-0.5,0.1c-0.4,0-0.8-0.3-1-0.7c-0.2-0.4-0.3-0.9-0.3-1.6V550
		H412.9L412.9,550z M500.8,550v23.9h2.3v-12.2l0.4-0.8l0.8-1.1c0.4-0.3,0.9-0.7,1.4-1c0.5-0.3,1-0.4,1.5-0.4c0.5,0,1,0.2,1.4,0.4
		c0.4,0.2,0.8,0.6,1.1,1c0.3,0.4,0.4,0.9,0.5,1.4c0.1,0.5,0.3,0.9,0.3,1.4v11.3h2.3v-11.6c0-0.7,0-1.4-0.3-2
		c-0.2-0.7-0.7-1.4-1.1-1.9c-0.4-0.5-1-0.9-1.6-1.2c-0.7-0.3-1.4-0.5-2.3-0.5c-0.6,0-1.1,0.2-1.6,0.4c-0.5,0.2-1,0.5-1.4,0.8
		c-0.4,0.3-0.7,0.7-1,1l-0.4,0.7V550L500.8,550L500.8,550z M547.5,550v23.9h2.3v-12.2l0.4-0.8l0.8-1.1c0.4-0.3,0.7-0.7,1.2-1
		c0.5-0.3,1.1-0.4,1.6-0.4c0.5,0,0.9,0.2,1.4,0.4c0.4,0.2,0.8,0.6,1.1,1c0.3,0.4,0.4,0.9,0.5,1.4c0.1,0.5,0.3,0.9,0.3,1.4v11.3h2.3
		v-11.6c0-0.7-0.2-1.4-0.4-2c-0.2-0.7-0.5-1.4-1-1.9c-0.4-0.5-1-0.9-1.6-1.2c-0.7-0.3-1.4-0.5-2.3-0.5c-0.6,0-1.1,0.2-1.6,0.4
		c-0.5,0.2-1,0.5-1.4,0.8c-0.4,0.3-0.7,0.7-1,1l-0.4,0.7V550L547.5,550L547.5,550z M582.8,550v20.2c0,0.5,0,1.1,0.1,1.6
		c0.1,0.5,0.3,0.9,0.5,1.2c0.3,0.4,0.5,0.7,1,1c0.4,0.2,1,0.3,1.6,0.3c0.3,0,0.8,0,1.2-0.1c0.4-0.1,0.7-0.3,0.8-0.4l-0.7-1.9
		l-0.5,0.4l-0.7,0.1c-0.4,0-0.6-0.3-0.8-0.7c-0.2-0.4-0.3-0.9-0.3-1.6V550H582.8L582.8,550z M359.6,551.5v22.4h5.3
		c1.4,0,2.6-0.3,3.8-1c1.2-0.6,2.3-1.4,3.1-2.5c0.9-1.1,1.6-2.3,2-3.7c0.5-1.4,0.7-3,0.7-4.6c0-1.7-0.3-3.2-0.8-4.5
		c-0.5-1.3-1.1-2.4-2-3.3c-0.9-0.9-2-1.7-3.3-2.2c-1.2-0.5-2.7-0.7-4.1-0.7H359.6z M448.5,551.5v22.4h2.5v-10.7h9.2v10.7h2.5v-22.4
		h-2.5v9.7h-9.2v-9.7H448.5z M362.1,553.4h2.7c1,0,1.8,0.3,2.7,0.7c0.9,0.4,1.7,0.9,2.3,1.6c0.7,0.7,1.2,1.7,1.6,2.7
		c0.4,1.1,0.7,2.3,0.7,3.7s-0.2,2.6-0.5,3.8c-0.4,1.2-1,2.3-1.6,3.1c-0.7,0.9-1.4,1.5-2.3,2c-0.9,0.5-1.7,0.8-2.7,0.8h-2.9
		L362.1,553.4L362.1,553.4z M401.5,556.5c-0.6,0-1.2,0.1-1.8,0.3c-0.6,0.1-1.2,0.2-1.6,0.4c-0.5,0.2-0.8,0.4-1.1,0.5l-0.7,0.3
		l0.7,1.9l0.7-0.4c0.3-0.2,0.7-0.2,1.1-0.4c0.4-0.2,0.8-0.4,1.2-0.5c0.5-0.1,0.9-0.1,1.2-0.1c1.2,0,2.1,0.3,2.7,1.1
		c0.6,0.7,0.8,1.6,0.8,2.7v1.1l-3.3,0.8c-0.7,0.1-1.3,0.4-2,0.7c-0.7,0.3-1.5,0.6-2.2,1.1c-0.6,0.4-1.1,1-1.5,1.6
		c-0.4,0.6-0.7,1.2-0.7,1.9c0,1.5,0.6,2.7,1.5,3.6c1,0.8,2.2,1.2,3.7,1.2c0.6,0,1.1,0,1.6-0.3c0.6-0.2,1.1-0.6,1.5-1
		c0.4-0.3,0.8-0.5,1.1-0.8l0.4-0.7v2.3h2.2v-11.6c0-1.8-0.5-3.3-1.5-4.2C404.5,557.1,403.2,556.5,401.5,556.5L401.5,556.5z
		 M427.4,556.5c-1,0-2,0.4-2.7,1c-0.8,0.6-1.4,1.2-1.9,2c-0.5,0.8-1,1.7-1.2,2.7c-0.3,1-0.4,1.9-0.4,2.7c0,1.1,0.1,2.2,0.3,3.3
		c0.2,1.1,0.6,2.1,1.1,3c0.5,0.9,1.2,1.6,2,2.2c0.9,0.6,2,0.8,3.3,0.8c0.6,0,1.2,0,1.8-0.1c0.6-0.1,1.2-0.3,1.6-0.4
		c0.5-0.1,0.8-0.3,1.1-0.4l0.7-0.3l-0.7-1.9l-0.7,0.4c-0.3,0.1-0.7,0.3-1.1,0.4c-0.4,0.1-0.8,0.2-1.2,0.3c-0.5,0.1-0.9,0.3-1.4,0.3
		c-0.8,0-1.5-0.2-2-0.7c-0.6-0.4-1-1-1.4-1.6c-0.4-0.7-0.7-1.4-0.8-2.2c-0.2-0.8-0.3-1.5-0.3-2.2h10.1V565c0-0.9-0.1-1.9-0.3-2.9
		c-0.2-1-0.6-1.9-1.1-2.7c-0.5-0.8-1.1-1.5-1.9-2C429.5,556.8,428.6,556.5,427.4,556.5z M474.6,556.5c-1.2,0-2.2,0.4-3,1
		c-0.8,0.6-1.5,1.3-2,2.2c-0.5,0.9-1,1.8-1.2,2.7c-0.3,1-0.4,1.8-0.4,2.6c0,0.9,0.2,1.9,0.4,3c0.2,1.1,0.6,2.1,1.1,3
		c0.5,0.9,1.2,1.7,2,2.3c0.9,0.6,1.9,1,3.1,1c1.2,0,2.3-0.3,3.1-1c0.9-0.6,1.5-1.4,2-2.3c0.5-0.9,0.9-1.9,1.1-3
		c0.2-1.1,0.4-2.1,0.4-3c0-0.8,0-1.6-0.3-2.6c-0.2-1-0.7-1.9-1.2-2.7c-0.5-0.9-1.2-1.6-2-2.2C476.9,556.9,475.8,556.5,474.6,556.5
		L474.6,556.5z M491.9,556.5c-1,0-1.9,0.3-2.7,0.8c-0.8,0.5-1.5,1.2-2,2c-0.6,0.8-1,1.7-1.4,2.7c-0.3,1-0.5,1.9-0.5,2.9
		c0,1.1,0.2,2.3,0.4,3.4c0.2,1.1,0.6,2.1,1.1,3c0.5,0.9,1.2,1.5,2,2c0.8,0.5,1.9,0.8,3.1,0.8c0.6,0,1.1,0,1.6-0.1
		c0.5-0.1,1-0.3,1.4-0.4c0.4-0.1,0.7-0.3,1-0.4l0.7-0.3l-0.8-1.9l-0.5,0.4l-1,0.4c-0.3,0.1-0.7,0.2-1.1,0.3
		c-0.4,0.1-0.7,0.1-1.1,0.1c-0.8,0-1.5-0.2-2-0.7c-0.6-0.4-1-0.9-1.4-1.6c-0.3-0.7-0.5-1.6-0.7-2.5c-0.2-0.9-0.3-1.7-0.3-2.6
		c0-0.7,0.1-1.4,0.3-2.2c0.2-0.8,0.5-1.5,0.8-2.2s0.8-1.1,1.4-1.5c0.5-0.4,1.1-0.7,1.8-0.7l1.1,0.1l1,0.4l1,0.4l0.4,0.3l0.8-1.9
		l-0.5-0.4l-1-0.3c-0.4-0.1-0.8-0.3-1.2-0.4C493,556.6,492.4,556.5,491.9,556.5L491.9,556.5z M523.2,556.5c-0.7,0-1.4,0.2-2,0.4
		c-0.7,0.3-1.3,0.6-1.8,1.1c-0.5,0.4-0.9,1-1.2,1.6c-0.3,0.6-0.4,1.3-0.4,2c0,0.7,0.2,1.3,0.5,1.8c0.4,0.5,0.9,0.9,1.5,1.4
		c0.6,0.4,1.2,0.9,1.9,1.2c0.7,0.4,1.3,0.7,1.9,1.1s1.1,0.8,1.5,1.2c0.4,0.4,0.7,0.7,0.7,1.2c0,0.9-0.3,1.6-1,2
		c-0.6,0.5-1.5,0.8-2.3,0.8c-0.4,0-0.9,0-1.4-0.1c-0.5-0.1-0.9-0.3-1.4-0.4c-0.4-0.1-0.8-0.3-1.1-0.4l-0.7-0.4l-0.8,1.9l0.8,0.4
		c0.3,0.1,0.6,0.3,1.1,0.4c0.4,0.1,1.1,0.2,1.6,0.3c0.6,0.1,1.1,0.1,1.8,0.1c0.8,0,1.5-0.2,2.2-0.4c0.7-0.2,1.3-0.5,1.8-1
		c0.5-0.5,0.9-1,1.2-1.6c0.3-0.6,0.4-1.3,0.4-2c0-0.6-0.1-1.1-0.5-1.6c-0.4-0.5-0.9-0.9-1.5-1.4c-0.6-0.4-1.2-0.9-1.9-1.2
		c-0.7-0.4-1.5-0.7-2-1.1c-0.6-0.4-1.1-0.8-1.5-1.2c-0.4-0.4-0.5-0.9-0.5-1.4c0-0.9,0.3-1.7,1-2.2c0.6-0.5,1.3-0.8,2.2-0.8l1,0.1
		l1.1,0.4l0.8,0.4l0.5,0.3l0.7-1.8l-0.5-0.4c-0.3-0.1-0.6-0.2-1-0.3s-0.8-0.3-1.2-0.4C524.1,556.6,523.7,556.5,523.2,556.5
		L523.2,556.5z M538.7,556.5c-1,0-1.9,0.3-2.7,0.8c-0.8,0.5-1.6,1.2-2.2,2c-0.6,0.8-0.9,1.7-1.2,2.7c-0.3,1-0.5,1.9-0.5,2.9
		c0,1.1,0.2,2.3,0.4,3.4c0.2,1.1,0.6,2.1,1.1,3c0.5,0.9,1.2,1.5,2,2c0.8,0.5,1.8,0.8,3,0.8c0.6,0,1.1,0,1.6-0.1
		c0.5-0.1,1.1-0.3,1.5-0.4c0.4-0.1,0.7-0.3,1-0.4l0.5-0.3l-0.7-1.9l-0.7,0.4L541,572c-0.3,0.1-0.7,0.2-1.1,0.3
		c-0.4,0.1-0.9,0.1-1.2,0.1c-0.8,0-1.4-0.2-1.9-0.7c-0.6-0.4-1-0.9-1.4-1.6c-0.3-0.7-0.5-1.6-0.7-2.5c-0.2-0.9-0.3-1.7-0.3-2.6
		c0-0.7,0.1-1.4,0.3-2.2c0.2-0.8,0.5-1.5,0.8-2.2s0.8-1.1,1.4-1.5c0.5-0.4,1.1-0.7,1.8-0.7l1,0.1l1.1,0.4l1,0.4l0.4,0.3l0.7-1.9
		l-0.4-0.4l-1-0.3c-0.4-0.1-0.8-0.3-1.2-0.4C539.7,556.6,539.2,556.5,538.7,556.5L538.7,556.5z M597,556.5c-1,0-2,0.4-2.7,1
		c-0.8,0.6-1.4,1.2-1.9,2c-0.5,0.8-1,1.7-1.2,2.7c-0.3,1-0.4,1.9-0.4,2.7c0,1.1,0.2,2.2,0.4,3.3c0.2,1.1,0.5,2.1,1,3
		c0.5,0.9,1.2,1.6,2,2.2c0.9,0.6,2,0.8,3.3,0.8c0.6,0,1.2,0,1.8-0.1c0.6-0.1,1.2-0.3,1.6-0.4c0.5-0.1,0.8-0.3,1.1-0.4l0.7-0.3
		l-0.7-1.9l-0.7,0.4c-0.3,0.1-0.6,0.3-1,0.4c-0.4,0.1-0.9,0.2-1.4,0.3c-0.5,0.1-0.9,0.3-1.4,0.3c-0.8,0-1.5-0.2-2-0.7
		c-0.6-0.4-1-1-1.4-1.6c-0.4-0.7-0.7-1.4-0.8-2.2c-0.2-0.8-0.3-1.5-0.3-2.2h10.1V565c0-0.9-0.1-1.9-0.3-2.9c-0.2-1-0.6-1.9-1.1-2.7
		c-0.5-0.8-1.1-1.5-1.9-2C599.1,556.8,598.2,556.5,597,556.5L597,556.5z M378.6,556.9v11.6c0,0.7,0.2,1.5,0.4,2.2
		c0.2,0.7,0.5,1.3,1,1.8c0.4,0.5,1,1,1.6,1.4c0.7,0.3,1.4,0.4,2.3,0.4c0.6,0,1.1-0.2,1.6-0.4c0.5-0.3,1-0.5,1.4-0.8
		c0.4-0.3,0.7-0.6,1-1l0.4-0.5v2.3h2.2v-16.9h-2.3v12.3l-0.4,0.7L387,571c-0.4,0.4-0.8,0.7-1.2,1c-0.5,0.3-1,0.4-1.5,0.4
		c-0.6,0-1.1-0.2-1.5-0.4c-0.4-0.2-0.7-0.4-1-0.8c-0.2-0.4-0.4-0.9-0.5-1.4c-0.1-0.5-0.3-1-0.3-1.5v-11.3H378.6L378.6,556.9z
		 M565.2,556.9v11.6c0,0.7,0.1,1.5,0.3,2.2c0.2,0.7,0.5,1.3,1,1.8c0.4,0.5,1,1,1.6,1.4c0.7,0.3,1.4,0.4,2.3,0.4
		c0.6,0,1.3-0.2,1.8-0.4c0.5-0.3,0.9-0.5,1.2-0.8c0.4-0.3,0.7-0.6,1-1l0.5-0.5v2.3h2.2v-16.9h-2.3v12.3l-0.4,0.7l-0.8,1.1
		c-0.4,0.4-0.8,0.7-1.2,1c-0.5,0.3-1.1,0.4-1.6,0.4c-0.6,0-1-0.2-1.4-0.4c-0.4-0.2-0.8-0.4-1.1-0.8c-0.2-0.4-0.4-0.9-0.5-1.4
		c-0.1-0.5-0.1-1-0.1-1.5v-11.3H565.2L565.2,556.9z M427.4,558.4c0.7,0,1.3,0.1,1.8,0.5c0.5,0.4,0.9,0.9,1.2,1.5
		c0.3,0.6,0.5,1.2,0.7,1.9c0.1,0.7,0.3,1.3,0.3,1.8h-7.8c0-0.6,0.1-1.3,0.3-1.9c0.2-0.7,0.4-1.2,0.7-1.8c0.3-0.6,0.7-1.1,1.2-1.5
		C426.3,558.6,426.8,558.4,427.4,558.4L427.4,558.4z M474.6,558.4c0.8,0,1.5,0.3,2,0.8c0.5,0.5,1,1,1.4,1.6c0.3,0.7,0.5,1.4,0.7,2.2
		c0.1,0.7,0.1,1.4,0.1,1.9c0,0.7,0,1.5-0.1,2.3c-0.1,0.9-0.4,1.6-0.7,2.3c-0.3,0.7-0.8,1.4-1.4,1.9c-0.6,0.5-1.2,0.8-2,0.8
		c-0.9,0-1.5-0.3-2-0.8c-0.6-0.5-1.1-1.2-1.4-1.9c-0.3-0.8-0.4-1.5-0.5-2.3c-0.1-0.9-0.3-1.7-0.3-2.3c0-0.6,0.1-1.3,0.3-2
		c0.1-0.8,0.3-1.4,0.7-2c0.3-0.7,0.8-1.3,1.4-1.8C473.2,558.7,473.8,558.4,474.6,558.4z M597.1,558.4c0.7,0,1.3,0.1,1.8,0.5
		c0.5,0.4,0.8,0.9,1.1,1.5c0.3,0.6,0.5,1.2,0.7,1.9c0.1,0.7,0.3,1.3,0.3,1.8h-7.8c0-0.6,0.1-1.3,0.3-1.9c0.2-0.7,0.4-1.2,0.7-1.8
		c0.3-0.6,0.7-1.1,1.2-1.5C595.9,558.6,596.5,558.4,597.1,558.4L597.1,558.4z M404.7,565.1v4.1l-0.5,1.1c-0.3,0.4-0.6,0.8-1,1.1
		c-0.4,0.3-0.9,0.5-1.4,0.7c-0.5,0.2-1,0.4-1.5,0.4c-0.8,0-1.5-0.3-2-0.8c-0.6-0.5-0.8-1.2-0.8-2.2c0-0.5,0.1-1,0.4-1.4
		c0.3-0.4,0.7-0.8,1.1-1.1c0.4-0.3,1-0.6,1.5-0.8c0.5-0.2,1-0.4,1.5-0.5L404.7,565.1L404.7,565.1z M403.2,587v9.3l-0.5-0.7l-0.8-1
		c-0.4-0.3-0.8-0.5-1.2-0.7c-0.5-0.2-1-0.4-1.5-0.4c-1,0-1.8,0.3-2.6,0.8s-1.5,1.1-2,1.9c-0.6,0.8-1.1,1.7-1.4,2.7
		c-0.3,1-0.4,2-0.4,3c0,1.1,0.2,2.2,0.4,3.3c0.2,1.1,0.6,2.1,1.1,3c0.5,0.9,1.1,1.6,1.9,2.2c0.8,0.6,1.8,0.8,3,0.8
		c0.5,0,1-0.2,1.5-0.4c0.5-0.2,0.8-0.5,1.2-0.8c0.4-0.3,0.7-0.6,1-1l0.5-0.7v2.5h2.2V587L403.2,587L403.2,587z M578.8,587v23.5
		c0.2,0,0.5,0.2,1,0.3c0.5,0.1,1,0.2,1.5,0.3c0.5,0.1,1.1,0.1,1.6,0.1c0.5,0.1,1,0.1,1.4,0.1c1.2,0,2.2-0.3,3.1-0.8
		c0.9-0.6,1.7-1.3,2.3-2.2c0.6-0.9,1.1-1.9,1.4-3c0.3-1.1,0.5-2.2,0.5-3.3c0-0.9-0.2-2-0.4-3c-0.2-1-0.6-1.8-1.1-2.6
		c-0.5-0.8-1.2-1.5-2-2c-0.8-0.5-1.7-0.8-2.9-0.8c-0.5,0-1,0.2-1.5,0.4c-0.5,0.2-0.9,0.5-1.2,0.8l-1,1l-0.4,0.5V587L578.8,587
		L578.8,587z M486.7,587.8c-0.4,0-0.8,0.2-1.1,0.5c-0.3,0.3-0.4,0.7-0.4,1.1c0,0.4,0.1,0.8,0.4,1.1c0.3,0.3,0.6,0.4,1.1,0.4
		c0.4,0,0.8-0.1,1.1-0.4c0.3-0.3,0.5-0.7,0.5-1.1c0-0.4-0.2-0.8-0.5-1.1C487.5,588.1,487.2,587.8,486.7,587.8z M492.5,587.8
		c-0.4,0-0.8,0.2-1.1,0.5c-0.3,0.3-0.4,0.7-0.4,1.1c0,0.4,0.1,0.8,0.4,1.1c0.3,0.3,0.6,0.4,1.1,0.4c0.5,0,0.9-0.1,1.2-0.4
		c0.3-0.3,0.4-0.7,0.4-1.1c0-0.4-0.1-0.8-0.4-1.1C493.4,588.1,492.9,587.8,492.5,587.8z M359.6,588.4v22.5h5.7
		c1.1,0,1.9-0.1,2.9-0.4c0.9-0.3,1.9-0.8,2.6-1.4c0.7-0.5,1.2-1.1,1.6-1.9c0.4-0.8,0.5-1.7,0.5-2.7c0-0.7-0.2-1.4-0.4-2
		c-0.3-0.6-0.5-1.2-1-1.6c-0.4-0.5-0.9-0.8-1.5-1.1c-0.6-0.3-1.3-0.6-1.9-0.7c0.5-0.1,1-0.4,1.5-0.7c0.5-0.3,0.8-0.7,1.2-1.1
		c0.4-0.4,0.8-1,1.1-1.5c0.3-0.6,0.4-1,0.4-1.6c0-1-0.2-1.9-0.5-2.6c-0.4-0.7-0.9-1.3-1.5-1.8c-0.6-0.5-1.4-0.7-2.2-1
		c-0.8-0.2-1.6-0.4-2.5-0.4L359.6,588.4L359.6,588.4z M454.5,588.4l5.2,22.5h2.7l4.8-19.4l4.9,19.4h2.7l5.2-22.5h-2.5l-4.1,19.4
		l-4.8-19.4H466l-4.8,19.4l-4.1-19.4H454.5z M514.1,589.5v4.5h-2.7v1.9h2.7v11.8c0,0.5,0.1,0.9,0.3,1.4c0.1,0.5,0.3,0.9,0.5,1.2
		c0.3,0.3,0.6,0.6,1.1,0.8c0.5,0.2,1.1,0.3,1.8,0.3l0.7-0.1l0.8-0.1l0.7-0.1l0.4-0.1l-0.7-1.9c-0.1,0.1-0.4,0.2-0.8,0.3
		c-0.4,0.1-0.6,0.3-1,0.3c-0.5,0-0.9-0.2-1.1-0.7c-0.2-0.4-0.4-0.9-0.4-1.4v-11.5h3.4V594h-3.4v-4.5L514.1,589.5L514.1,589.5z
		 M525.7,589.5v4.5h-2.9v1.9h2.9v11.8c0,0.5,0,0.9,0.1,1.4c0.1,0.5,0.3,0.9,0.5,1.2c0.3,0.3,0.6,0.6,1.1,0.8
		c0.5,0.2,1.1,0.3,1.8,0.3l0.7-0.1l0.8-0.1l0.7-0.1l0.4-0.1l-0.7-1.9c-0.1,0.1-0.3,0.2-0.7,0.3c-0.4,0.1-0.8,0.3-1.1,0.3
		c-0.5,0-0.9-0.2-1.1-0.7c-0.2-0.4-0.3-0.9-0.3-1.4v-11.5h3.3V594H528v-4.5L525.7,589.5L525.7,589.5z M362.1,590.4h3.7
		c1.3,0,2.2,0.3,3,1c0.8,0.7,1.2,1.6,1.2,2.7c0,0.6-0.2,1.1-0.4,1.6c-0.2,0.5-0.6,1-1,1.4c-0.4,0.4-0.9,0.6-1.4,0.8
		c-0.5,0.2-1.1,0.3-1.6,0.3h-3.6L362.1,590.4L362.1,590.4z M382.5,593.6c-0.6,0-1.2,0.1-1.8,0.3c-0.6,0.1-1,0.2-1.5,0.4
		c-0.5,0.2-0.9,0.4-1.2,0.5l-0.7,0.3l0.7,1.9l0.7-0.4c0.3-0.2,0.7-0.4,1.1-0.5c0.4-0.2,0.8-0.3,1.2-0.4c0.5-0.1,0.9-0.3,1.2-0.3
		c1.2,0,2.1,0.5,2.7,1.2c0.6,0.7,0.8,1.6,0.8,2.7v1.1l-3.3,0.8c-0.7,0.1-1.3,0.4-2,0.7c-0.7,0.3-1.4,0.6-2,1.1s-1.2,1-1.6,1.6
		c-0.4,0.6-0.7,1.2-0.7,1.9c0,1.5,0.6,2.7,1.5,3.6c1,0.8,2.2,1.2,3.7,1.2c0.6,0,1.2-0.2,1.8-0.4c0.6-0.2,0.9-0.5,1.4-0.8
		c0.4-0.3,0.8-0.6,1.1-1l0.4-0.7v2.5h2.2v-11.8c0-1.8-0.5-3.1-1.5-4.1C385.5,594.1,384.2,593.6,382.5,593.6L382.5,593.6z
		 M416.1,593.6c-1,0-2,0.3-2.7,0.8c-0.8,0.6-1.5,1.3-2,2.2s-0.8,1.7-1.1,2.7c-0.3,1-0.4,1.9-0.4,2.7c0,1.1,0.1,2,0.3,3.1
		c0.2,1.1,0.6,2.1,1.1,3c0.5,0.9,1.2,1.7,2,2.3c0.9,0.6,2,0.8,3.3,0.8c0.6,0,1.2,0,1.8-0.1c0.6-0.1,1-0.3,1.5-0.4
		c0.5-0.1,0.9-0.3,1.2-0.4l0.7-0.3l-0.7-1.9l-0.8,0.4c-0.3,0.2-0.6,0.3-1,0.4c-0.4,0.1-0.8,0.2-1.2,0.3c-0.5,0.1-1,0.1-1.5,0.1
		c-0.8,0-1.4-0.1-1.9-0.5c-0.6-0.4-1.1-1.1-1.5-1.8c-0.4-0.7-0.5-1.3-0.7-2c-0.2-0.8-0.3-1.5-0.3-2.2h10.1V602
		c0-0.9-0.2-1.9-0.4-2.9c-0.2-1-0.5-1.9-1-2.7c-0.5-0.8-1.1-1.5-1.9-2C418.2,593.8,417.2,593.6,416.1,593.6L416.1,593.6z
		 M433.8,593.6c-0.6,0-1.1,0.2-1.6,0.4c-0.5,0.2-1.1,0.5-1.5,0.8c-0.4,0.3-0.7,0.7-1,1l-0.4,0.5V594h-2.2v16.9h2.3v-12.2l0.4-1
		l0.8-1c0.4-0.3,0.9-0.7,1.4-1c0.5-0.2,1-0.4,1.5-0.4c0.5,0,1,0.2,1.4,0.4c0.4,0.2,0.8,0.6,1.1,1c0.3,0.4,0.4,0.9,0.5,1.4
		c0.1,0.5,0.3,0.9,0.3,1.4v11.3h2.3v-11.6c0-0.7-0.2-1.4-0.4-2c-0.2-0.7-0.5-1.4-1-1.9c-0.4-0.5-1-0.9-1.6-1.2
		C435.5,593.8,434.7,593.6,433.8,593.6L433.8,593.6z M507.2,593.6c-0.6,0-1.2,0.2-1.6,0.4c-0.5,0.2-0.9,0.5-1.2,0.8l-0.7,1l-0.4,0.5
		V594h-2.2v16.9h2.3v-12.2l0.3-0.7l0.8-1.1c0.3-0.3,0.7-0.6,1.1-0.8c0.4-0.3,0.8-0.4,1.2-0.4l0.7,0.1l0.7,0.3l0.7-2l-0.7-0.4
		L507.2,593.6L507.2,593.6z M541.3,593.6c-1,0-2,0.3-2.7,0.8c-0.8,0.6-1.4,1.3-1.9,2.2c-0.5,0.8-1,1.7-1.2,2.7
		c-0.3,1-0.4,1.9-0.4,2.7c0,1.1,0.2,2,0.4,3.1c0.2,1.1,0.5,2.1,1,3c0.5,0.9,1.2,1.7,2,2.3c0.9,0.6,2,0.8,3.3,0.8
		c0.6,0,1.2,0,1.8-0.1c0.6-0.1,1.2-0.3,1.6-0.4c0.5-0.1,0.8-0.3,1.1-0.4l0.7-0.3l-0.7-1.9l-0.7,0.4c-0.3,0.2-0.7,0.3-1.1,0.4
		c-0.4,0.1-0.8,0.2-1.2,0.3c-0.5,0.1-0.9,0.1-1.4,0.1c-0.8,0-1.5-0.1-2-0.5s-1-1.1-1.4-1.8c-0.4-0.7-0.7-1.3-0.8-2
		c-0.2-0.8-0.3-1.5-0.3-2.2h10.1V602c0-0.9-0.1-1.9-0.3-2.9c-0.2-1-0.6-1.9-1.1-2.7c-0.5-0.8-1.1-1.5-1.9-2
		C543.3,593.8,542.4,593.6,541.3,593.6L541.3,593.6z M558.6,593.6c-0.6,0-1.1,0.2-1.6,0.4c-0.5,0.2-1,0.5-1.4,0.8l-0.8,1l-0.4,0.5
		V594h-2.2v16.9h2.3v-12.2l0.4-1l0.7-1c0.3-0.3,0.8-0.7,1.2-1c0.5-0.2,1-0.4,1.5-0.4c0.6,0,1.1,0.2,1.5,0.4s0.7,0.6,1,1
		c0.2,0.4,0.4,0.7,0.5,1.2c0.1,0.5,0.1,1,0.1,1.5v11.3h2.3v-12.4l0.3-1l0.8-1c0.3-0.3,0.8-0.5,1.2-0.7c0.5-0.2,0.9-0.4,1.5-0.4
		c0.6,0,1.1,0.2,1.5,0.4c0.4,0.2,0.7,0.6,1,1c0.2,0.4,0.4,0.7,0.5,1.2c0.1,0.5,0.1,1,0.1,1.5v11.3h2.3v-11.6c0-0.7-0.1-1.4-0.3-2
		c-0.2-0.7-0.4-1.4-0.8-1.9c-0.4-0.5-1-0.9-1.6-1.2c-0.7-0.3-1.5-0.5-2.5-0.5c-0.7,0-1.2,0.2-1.8,0.4c-0.6,0.2-1.1,0.5-1.5,0.8
		c-0.4,0.3-0.6,0.7-0.8,1l-0.5,0.5l-0.4-0.7l-0.8-1c-0.4-0.3-0.8-0.5-1.4-0.7C560.1,593.7,559.4,593.6,558.6,593.6L558.6,593.6z
		 M601.4,593.6c-1,0-2,0.3-2.7,0.8c-0.8,0.6-1.4,1.3-1.9,2.2c-0.5,0.8-1,1.7-1.2,2.7c-0.3,1-0.4,1.9-0.4,2.7c0,1.1,0.2,2,0.4,3.1
		c0.2,1.1,0.5,2.1,1,3c0.5,0.9,1.2,1.7,2,2.3c0.9,0.6,1.9,0.8,3.3,0.8c0.6,0,1.2,0,1.8-0.1c0.6-0.1,1.2-0.3,1.6-0.4
		c0.5-0.1,0.8-0.3,1.1-0.4l0.7-0.3l-0.7-1.9l-0.7,0.4c-0.3,0.2-0.6,0.3-1,0.4c-0.4,0.1-0.9,0.2-1.4,0.3c-0.5,0.1-0.9,0.1-1.4,0.1
		c-0.8,0-1.5-0.1-2-0.5c-0.6-0.4-1-1.1-1.4-1.8c-0.4-0.7-0.7-1.3-0.8-2c-0.2-0.8-0.3-1.5-0.3-2.2h10.1V602c0-0.9-0.1-1.9-0.3-2.9
		c-0.2-1-0.6-1.9-1.1-2.7c-0.5-0.8-1-1.5-1.8-2C603.6,593.8,602.5,593.6,601.4,593.6L601.4,593.6z M618.5,593.6
		c-0.6,0-1.2,0.2-1.6,0.4c-0.5,0.2-0.8,0.5-1.1,0.8l-0.8,1l-0.4,0.5V594h-2.2v16.9h2.3v-12.2l0.4-0.7l0.7-1.1
		c0.3-0.3,0.7-0.6,1.1-0.8c0.4-0.3,0.8-0.4,1.2-0.4l0.8,0.1l0.5,0.3l0.7-2l-0.7-0.4L618.5,593.6L618.5,593.6z M628.6,593.6
		c-0.8,0-1.5,0.2-2.2,0.5c-0.7,0.3-1.4,0.8-1.9,1.4c-0.5,0.6-0.9,1.1-1.2,1.8c-0.3,0.7-0.4,1.5-0.4,2.2c0,1,0,1.8,0.3,2.5
		c0.2,0.7,0.6,1.3,1,1.8c0.4,0.5,0.8,0.7,1.2,1c0.4,0.3,0.8,0.6,1.1,0.7l-0.7,0.1l-0.8,0.5l-0.5,0.7l-0.3,0.8c0,0.4,0.1,0.8,0.3,1.1
		l0.7,0.7l0.7,0.4l0.7,0.1c-0.3,0-0.7,0.2-1.2,0.4c-0.5,0.2-0.9,0.3-1.4,0.7c-0.5,0.3-0.9,0.9-1.2,1.4c-0.3,0.5-0.5,1-0.5,1.6
		c0,0.7,0.1,1.3,0.4,1.9c0.3,0.6,0.9,1.1,1.5,1.5c0.6,0.4,1.2,0.7,2,1c0.8,0.2,1.7,0.4,2.6,0.4c1.1,0,2-0.1,2.9-0.4
		c0.9-0.3,1.7-0.7,2.3-1.2c0.6-0.5,1-1.1,1.4-1.6c0.3-0.6,0.5-1.2,0.5-1.8c0-0.8-0.2-1.5-0.5-2c-0.4-0.6-1-1.1-1.6-1.5
		c-0.7-0.4-1.3-0.7-2.2-1c-0.9-0.2-1.8-0.3-2.7-0.3c-0.7,0-1.3-0.2-1.8-0.5c-0.5-0.3-0.7-0.6-0.7-1.1l0.3-0.7l0.7-0.4l0.8-0.4
		l0.7-0.1c0.8,0,1.6-0.1,2.3-0.4c0.7-0.3,1.4-0.8,1.9-1.4c0.5-0.6,0.9-1.3,1.2-2c0.3-0.8,0.4-1.5,0.4-2.3c0-0.5,0-1-0.1-1.4
		c-0.1-0.4-0.3-0.8-0.4-1.1l-0.4-0.8l-0.4-0.5h2.7V594H631c-0.2-0.1-0.5-0.2-1-0.3C629.6,593.6,629.1,593.6,628.6,593.6L628.6,593.6
		z M483.7,594v11.6c0,0.7,0.1,1.5,0.3,2.2c0.2,0.7,0.5,1.3,1,1.8c0.4,0.5,1,0.9,1.6,1.2c0.7,0.3,1.4,0.5,2.3,0.5
		c0.6,0,1.1-0.2,1.6-0.4c0.5-0.2,1-0.5,1.4-0.8c0.4-0.3,0.7-0.6,1-1l0.4-0.7v2.5h2.2V594h-2.3v12.2l-0.3,0.8l-1,1.1
		c-0.4,0.4-0.8,0.7-1.2,1c-0.5,0.3-1,0.4-1.5,0.4c-0.6,0-1.1-0.2-1.5-0.4c-0.4-0.2-0.7-0.4-1-0.8c-0.2-0.4-0.4-0.9-0.5-1.4
		c-0.1-0.5-0.1-1-0.1-1.5V594L483.7,594L483.7,594z M416.1,595.3c0.7,0,1.3,0.3,1.8,0.7c0.5,0.4,0.9,0.9,1.2,1.5
		c0.3,0.6,0.5,1.2,0.7,1.9c0.1,0.7,0.1,1.3,0.1,1.8h-7.8c0-0.6,0.1-1.2,0.3-1.9c0.2-0.7,0.4-1.2,0.7-1.8c0.3-0.6,0.7-1.1,1.2-1.5
		C414.8,595.6,415.4,595.3,416.1,595.3L416.1,595.3z M541.3,595.3c0.7,0,1.3,0.3,1.8,0.7c0.5,0.4,0.9,0.9,1.2,1.5
		c0.3,0.6,0.5,1.2,0.7,1.9c0.1,0.7,0.3,1.3,0.3,1.8h-7.8c0-0.6,0.1-1.2,0.3-1.9c0.2-0.7,0.4-1.2,0.7-1.8c0.3-0.6,0.7-1.1,1.2-1.5
		C540.1,595.6,540.6,595.3,541.3,595.3L541.3,595.3z M601.5,595.3c0.7,0,1.3,0.3,1.8,0.7c0.5,0.4,0.8,0.9,1.1,1.5
		c0.3,0.6,0.5,1.2,0.7,1.9c0.1,0.7,0.3,1.3,0.3,1.8h-7.8c0-0.6,0.1-1.2,0.3-1.9c0.2-0.7,0.4-1.2,0.7-1.8c0.3-0.6,0.7-1.1,1.2-1.5
		C600.2,595.6,600.9,595.3,601.5,595.3L601.5,595.3z M628.6,595.3c1.1,0,2,0.3,2.6,1.1c0.6,0.8,1,1.8,1,3c0,0.5-0.2,1-0.3,1.5
		c-0.1,0.5-0.3,1.1-0.5,1.5c-0.3,0.4-0.7,0.8-1.1,1.1c-0.4,0.3-1,0.4-1.6,0.4c-0.6,0-1.2-0.2-1.6-0.4c-0.4-0.2-0.7-0.6-1-1
		c-0.3-0.4-0.6-0.8-0.7-1.4c-0.1-0.5-0.1-1.2-0.1-1.8c0-0.5,0.1-1,0.3-1.5c0.2-0.5,0.4-1,0.7-1.4c0.3-0.4,0.7-0.7,1.1-1
		C627.7,595.4,628,595.3,628.6,595.3L628.6,595.3z M399.4,595.5c0.5,0,1,0.1,1.5,0.4c0.4,0.3,0.8,0.7,1.1,1.1
		c0.3,0.4,0.6,0.7,0.8,1.1l0.4,0.8v7.2l-0.4,0.8L402,608c-0.3,0.4-0.8,0.7-1.2,1c-0.5,0.3-0.9,0.4-1.4,0.4c-0.8,0-1.5-0.2-2-0.7
		c-0.5-0.5-0.9-1.1-1.2-1.8c-0.3-0.7-0.7-1.6-0.8-2.5c-0.1-0.9-0.1-1.7-0.1-2.5c0-0.9,0.1-1.8,0.3-2.6c0.2-0.8,0.5-1.5,0.8-2
		c0.4-0.6,0.8-1,1.4-1.4C398.1,595.7,398.8,595.5,399.4,595.5L399.4,595.5z M585,595.5c0.7,0,1.4,0.3,1.9,0.7c0.5,0.4,1,0.9,1.4,1.5
		c0.3,0.6,0.5,1.3,0.7,2c0.2,0.8,0.3,1.6,0.3,2.3c0,0.8,0,1.6-0.3,2.5c-0.2,0.9-0.7,1.7-1.1,2.5c-0.4,0.7-0.9,1.3-1.5,1.8
		c-0.6,0.5-1.3,0.7-2,0.7l-0.8-0.1h-1l-0.8-0.1l-0.5-0.1v-10.2l0.4-0.8l0.8-1.1c0.4-0.3,0.8-0.7,1.2-1
		C584.1,595.6,584.5,595.5,585,595.5L585,595.5z M444.2,599.6v2.2h7.1v-2.2H444.2z M362.1,600.1h3.7c1.4,0,2.5,0.3,3.4,1.1
		c0.9,0.7,1.4,1.8,1.4,3.1c0,0.7-0.2,1.2-0.4,1.8s-0.7,1.1-1.1,1.5c-0.4,0.4-0.9,0.7-1.5,1c-0.6,0.2-1.1,0.3-1.8,0.3h-3.7
		L362.1,600.1L362.1,600.1z M385.7,602.2v4.1l-0.5,1.1c-0.3,0.4-0.6,0.6-1,1c-0.4,0.3-0.9,0.6-1.4,0.8c-0.5,0.2-1,0.4-1.5,0.4
		c-0.8,0-1.5-0.3-2-0.8c-0.6-0.5-0.8-1.4-0.8-2.3c0-0.5,0.1-0.8,0.4-1.2c0.3-0.4,0.7-0.8,1.1-1.1c0.4-0.3,1-0.6,1.5-0.8
		c0.5-0.2,1-0.4,1.5-0.5L385.7,602.2L385.7,602.2z M628.6,610.6c1.4,0,2.5,0.3,3.4,0.8c0.9,0.6,1.4,1.3,1.4,2.2
		c0,0.4-0.2,0.8-0.4,1.2c-0.2,0.4-0.5,0.8-1,1.1c-0.4,0.3-0.9,0.5-1.5,0.7c-0.6,0.2-1.2,0.3-1.9,0.3c-0.6,0-1.2-0.1-1.8-0.3
		c-0.5-0.2-1-0.4-1.4-0.7c-0.4-0.3-0.6-0.7-0.8-1.1c-0.2-0.4-0.4-0.8-0.4-1.2c0-0.4,0.2-0.9,0.4-1.2c0.2-0.4,0.6-0.7,1-1
		c0.4-0.3,0.8-0.4,1.4-0.5C627.5,610.8,628,610.6,628.6,610.6L628.6,610.6z"/>
	<path id="path242" class="st2" d="M362.6,441.2c-1,0-1.7,0.2-2.3,0.8c-0.6,0.6-0.8,1.5-0.8,2.5v82c0,1,0.2,1.7,0.8,2.3
		c0.6,0.6,1.4,1,2.3,1h22.3c6.1,0,11.6-1.1,16.5-3.4c5-2.3,9.3-5.6,12.7-9.7c3.5-4.1,6.2-9,8.1-14.6c1.9-5.7,2.7-11.8,2.7-18.4
		c0-6.4-0.9-12.2-2.9-17.4c-1.9-5.2-4.7-9.7-8.2-13.4c-3.5-3.7-7.7-6.6-12.7-8.6c-5-2-10.4-3-16.4-3H362.6L362.6,441.2z
		 M443.3,441.2c-1,0-1.7,0.2-2.3,0.8c-0.6,0.6-1,1.5-1,2.5v82c0,1,0.4,1.7,1,2.3c0.6,0.6,1.4,1,2.3,1h9.2c1,0,1.7-0.3,2.3-1
		c0.6-0.6,1-1.4,1-2.3V490h30.6v36.5c0,1,0.4,1.7,1,2.3c0.6,0.6,1.2,1,2.2,1h9.2c1,0,1.8-0.3,2.5-1c0.6-0.6,1-1.4,1-2.3v-82
		c0-1-0.3-1.8-1-2.5c-0.6-0.6-1.5-0.8-2.5-0.8h-9.2c-1,0-1.6,0.2-2.2,0.8c-0.6,0.6-1,1.5-1,2.5V477h-30.6v-32.5c0-1-0.3-1.8-1-2.5
		c-0.6-0.6-1.4-0.8-2.3-0.8H443.3z M375.1,453.5h10c3.7,0,7,0.8,10,2.3c2.9,1.6,5.4,3.6,7.5,6.3c2.1,2.7,3.7,5.9,4.8,9.6
		c1.1,3.7,1.5,7.6,1.5,11.9c0,5-0.5,9.4-1.6,13.5c-1.2,4.1-2.9,7.8-5.1,10.8c-2.2,3-4.8,5.3-7.8,7c-3,1.7-6.4,2.6-10.1,2.6h-9.2
		V453.5L375.1,453.5z"/>
</g>
</svg>
