<?xml version="1.0"?>
<svg xmlns="http://www.w3.org/2000/svg" height="512px" viewBox="0 -12 480 480" width="512px"><path d="m152 248v-27.097656c8.691406-2.214844 17.023438-5.65625 24.742188-10.222656l19.136718 19.144531c3.125 3.121093 8.1875 3.121093 11.3125 0l22.632813-22.625c3.121093-3.125 3.121093-8.1875 0-11.3125l-19.136719-19.132813c4.5625-7.726562 8-16.0625 10.214844-24.753906h27.097656c4.417969 0 8-3.582031 8-8v-32c0-4.417969-3.582031-8-8-8h-27.097656c-2.214844-8.691406-5.652344-17.023438-10.214844-24.742188l19.136719-19.136718c3.121093-3.125 3.121093-8.1875 0-11.3125l-22.625-22.632813c-3.125-3.121093-8.1875-3.121093-11.3125 0l-19.132813 19.136719c-7.726562-4.5625-16.0625-8-24.753906-10.214844v-27.097656c0-4.417969-3.582031-8-8-8h-32c-4.417969 0-8 3.582031-8 8v27.097656c-8.691406 2.214844-17.023438 5.652344-24.742188 10.214844l-19.136718-19.136719c-3.125-3.121093-8.1875-3.121093-11.3125 0l-22.632813 22.625c-3.121093 3.125-3.121093 8.1875 0 11.3125l19.136719 19.132813c-4.5625 7.726562-8 16.0625-10.214844 24.753906h-27.097656c-4.417969 0-8 3.582031-8 8v32c0 4.417969 3.582031 8 8 8h27.097656c2.214844 8.691406 5.652344 17.023438 10.214844 24.742188l-19.136719 19.136718c-3.121093 3.125-3.121093 8.1875 0 11.3125l22.625 22.632813c3.125 3.121093 8.1875 3.121093 11.3125 0l19.132813-19.144531c7.726562 4.566406 16.058594 8.011718 24.753906 10.222656v27.097656c0 4.417969 3.582031 8 8 8h32c4.417969 0 8-3.582031 8-8zm-16-33.519531v25.519531h-16v-25.519531c.003906-3.863281-2.753906-7.171875-6.550781-7.871094-11.042969-2.007813-21.53125-6.34375-30.769531-12.714844-3.179688-2.183593-7.464844-1.792969-10.191407.9375l-18.023437 18.015625-11.3125-11.3125 18.015625-18.03125c2.730469-2.726562 3.121093-7.011718.9375-10.191406-6.375-9.234375-10.707031-19.722656-12.714844-30.761719-.699219-3.796875-4.007813-6.554687-7.871094-6.550781h-25.519531v-16h25.519531c3.863281.003906 7.171875-2.753906 7.871094-6.550781 2.007813-11.039063 6.339844-21.527344 12.714844-30.761719 2.183593-3.179688 1.792969-7.464844-.9375-10.191406l-18.015625-18.03125 11.3125-11.3125 18.03125 18.015625c2.726562 2.730469 7.011718 3.121093 10.191406.9375 9.234375-6.375 19.722656-10.707031 30.761719-12.714844 3.796875-.699219 6.554687-4.007813 6.550781-7.871094v-25.519531h16v25.519531c-.003906 3.863281 2.753906 7.171875 6.550781 7.871094 11.039063 2.007813 21.527344 6.339844 30.761719 12.714844 3.179688 2.183593 7.464844 1.792969 10.191406-.9375l18.03125-18.015625 11.3125 11.3125-18.015625 18.03125c-2.730469 2.726562-3.121093 7.011718-.9375 10.191406 6.375 9.234375 10.707031 19.722656 12.714844 30.761719.699219 3.796875 4.007813 6.554687 7.871094 6.550781h25.519531v16h-25.519531c-3.863281-.003906-7.171875 2.753906-7.871094 6.550781-2.007813 11.039063-6.339844 21.527344-12.714844 30.761719-2.183593 3.179688-1.792969 7.464844.9375 10.191406l18.015625 18.03125-11.3125 11.3125-18.023437-18.015625c-2.726563-2.730469-7.011719-3.121093-10.191407-.9375-9.238281 6.371094-19.726562 10.707031-30.769531 12.714844-3.796875.699219-6.554687 4.007813-6.550781 7.871094zm0 0" fill="#FFFFFF"/><path d="m128 64c-35.347656 0-64 28.652344-64 64s28.652344 64 64 64 64-28.652344 64-64c-.039062-35.328125-28.671875-63.960938-64-64zm0 112c-26.507812 0-48-21.492188-48-48s21.492188-48 48-48 48 21.492188 48 48c-.027344 26.5-21.5 47.972656-48 48zm0 0" fill="#FFFFFF"/><path d="m128 104c-13.253906 0-24 10.746094-24 24s10.746094 24 24 24 24-10.746094 24-24-10.746094-24-24-24zm0 32c-4.417969 0-8-3.582031-8-8s3.582031-8 8-8 8 3.582031 8 8-3.582031 8-8 8zm0 0" fill="#FFFFFF"/><path d="m312 344h-20.671875l-.40625-.984375 14.613281-14.617187c3.125-3.121094 3.125-8.1875 0-11.308594l-22.625-22.625c-3.121094-3.125-8.1875-3.125-11.308594 0l-14.617187 14.613281-.984375-.40625v-20.671875c0-4.417969-3.582031-8-8-8h-32c-4.417969 0-8 3.582031-8 8v20.671875l-.984375.40625-14.617187-14.613281c-3.121094-3.125-8.1875-3.125-11.308594 0l-22.625 22.625c-3.125 3.121094-3.125 8.1875 0 11.308594l14.613281 14.617187-.40625.984375h-20.671875c-4.417969 0-8 3.582031-8 8v32c0 4.417969 3.582031 8 8 8h20.671875l.40625.984375-14.613281 14.617187c-3.125 3.121094-3.125 8.1875 0 11.308594l22.625 22.625c3.121094 3.125 8.1875 3.125 11.308594 0l14.617187-14.613281.984375.40625v20.671875c0 4.417969 3.582031 8 8 8h32c4.417969 0 8-3.582031 8-8v-20.671875l.984375-.40625 14.617187 14.613281c3.121094 3.125 8.1875 3.125 11.308594 0l22.625-22.625c3.125-3.121094 3.125-8.1875 0-11.308594l-14.613281-14.617187.40625-.984375h20.671875c4.417969 0 8-3.582031 8-8v-32c0-4.417969-3.582031-8-8-8zm-8 32h-18.351562c-3.535157 0-6.652344 2.324219-7.664063 5.710938-.933594 3.160156-2.191406 6.214843-3.753906 9.113281-1.6875 3.113281-1.128907 6.96875 1.378906 9.472656l12.957031 12.960937-11.308594 11.308594-12.960937-12.957031c-2.503906-2.507813-6.359375-3.066406-9.472656-1.378906-2.898438 1.5625-5.953125 2.820312-9.113281 3.753906-3.386719 1.011719-5.710938 4.128906-5.710938 7.664063v18.351562h-16v-18.351562c0-3.535157-2.324219-6.652344-5.710938-7.664063-3.160156-.933594-6.214843-2.191406-9.113281-3.753906-3.113281-1.6875-6.96875-1.128907-9.472656 1.378906l-12.960937 12.957031-11.308594-11.308594 12.957031-12.960937c2.507813-2.503906 3.066406-6.359375 1.378906-9.472656-1.5625-2.898438-2.820312-5.953125-3.753906-9.113281-1.011719-3.386719-4.128906-5.710938-7.664063-5.710938h-18.351562v-16h18.351562c3.535157 0 6.652344-2.324219 7.664063-5.710938.933594-3.160156 2.191406-6.214843 3.753906-9.113281 1.6875-3.113281 1.128907-6.96875-1.378906-9.472656l-12.957031-12.960937 11.308594-11.308594 12.960937 12.957031c2.503906 2.507813 6.359375 3.066406 9.472656 1.378906 2.898438-1.5625 5.953125-2.820312 9.113281-3.753906 3.386719-1.011719 5.710938-4.128906 5.710938-7.664063v-18.351562h16v18.351562c0 3.535157 2.324219 6.652344 5.710938 7.664063 3.160156.933594 6.214843 2.191406 9.113281 3.753906 3.113281 1.6875 6.96875 1.128907 9.472656-1.378906l12.960937-12.957031 11.308594 11.308594-12.957031 12.960937c-2.507813 2.503906-3.066406 6.359375-1.378906 9.472656 1.5625 2.898438 2.820312 5.953125 3.753906 9.113281 1.011719 3.386719 4.128906 5.710938 7.664063 5.710938h18.351562zm0 0" fill="#FFFFFF"/><path d="m232 336c-17.671875 0-32 14.328125-32 32s14.328125 32 32 32 32-14.328125 32-32-14.328125-32-32-32zm0 48c-8.835938 0-16-7.164062-16-16s7.164062-16 16-16 16 7.164062 16 16-7.164062 16-16 16zm0 0" fill="#FFFFFF"/><path d="m376 168c-17.671875 0-32 14.328125-32 32s14.328125 32 32 32 32-14.328125 32-32-14.328125-32-32-32zm0 48c-8.835938 0-16-7.164062-16-16s7.164062-16 16-16 16 7.164062 16 16-7.164062 16-16 16zm0 0" fill="#FFFFFF"/><path d="m472 176h-28.175781c-.84375-2.378906-1.808594-4.707031-2.894531-6.984375l19.917968-19.925781c3.125-3.125 3.125-8.191406 0-11.3125l-22.625-22.625c-3.121094-3.125-8.1875-3.125-11.3125 0l-19.925781 19.917968c-2.277344-1.085937-4.605469-2.050781-6.984375-2.894531v-28.175781c0-4.417969-3.582031-8-8-8h-32c-4.417969 0-8 3.582031-8 8v28.175781c-2.378906.84375-4.707031 1.808594-6.984375 2.894531l-19.925781-19.917968c-3.125-3.125-8.191406-3.125-11.3125 0l-22.625 22.625c-3.125 3.121094-3.125 8.1875 0 11.3125l19.917968 19.925781c-1.085937 2.277344-2.050781 4.605469-2.894531 6.984375h-28.175781c-4.417969 0-8 3.582031-8 8v32c0 4.417969 3.582031 8 8 8h28.175781c.84375 2.378906 1.808594 4.707031 2.894531 6.984375l-19.917968 19.925781c-3.125 3.125-3.125 8.191406 0 11.3125l22.625 22.625c3.121094 3.125 8.1875 3.125 11.3125 0l19.925781-19.917968c2.277344 1.085937 4.605469 2.050781 6.984375 2.894531v28.175781c0 4.417969 3.582031 8 8 8h32c4.417969 0 8-3.582031 8-8v-28.175781c2.378906-.84375 4.707031-1.808594 6.984375-2.894531l19.925781 19.917968c3.125 3.125 8.191406 3.125 11.3125 0l22.625-22.625c3.125-3.121094 3.125-8.1875 0-11.3125l-19.917968-19.925781c1.085937-2.277344 2.050781-4.605469 2.894531-6.984375h28.175781c4.417969 0 8-3.582031 8-8v-32c0-4.417969-3.582031-8-8-8zm-8 32h-26.097656c-3.644532.003906-6.824219 2.472656-7.734375 6-1.3125 5.054688-3.324219 9.902344-5.976563 14.398438-1.855468 3.148437-1.34375 7.148437 1.242188 9.730468l18.445312 18.445313-11.3125 11.3125-18.445312-18.445313c-2.582032-2.585937-6.582032-3.097656-9.730469-1.242187-4.496094 2.65625-9.34375 4.664062-14.398437 5.976562-3.527344.910157-5.996094 4.09375-6 7.734375v26.089844h-15.992188v-26.097656c-.003906-3.644532-2.472656-6.824219-6-7.734375-5.054688-1.3125-9.902344-3.324219-14.398438-5.976563-3.148437-1.855468-7.148437-1.34375-9.730468 1.242188l-18.445313 18.445312-11.3125-11.3125 18.445313-18.445312c2.585937-2.582032 3.097656-6.582032 1.242187-9.730469-2.65625-4.496094-4.664062-9.34375-5.976562-14.398437-.910157-3.527344-4.09375-5.996094-7.734375-6h-26.089844v-15.992188h26.097656c3.644532-.003906 6.824219-2.472656 7.734375-6 1.3125-5.054688 3.324219-9.902344 5.976563-14.398438 1.855468-3.148437 1.34375-7.148437-1.242188-9.730468l-18.445312-18.445313 11.3125-11.3125 18.445312 18.445313c2.582032 2.585937 6.582032 3.097656 9.730469 1.242187 4.496094-2.65625 9.34375-4.664062 14.398437-5.976562 3.527344-.910157 5.996094-4.09375 6-7.734375v-26.089844h16v26.097656c.003907 3.644532 2.472657 6.824219 6 7.734375 5.054688 1.3125 9.902344 3.324219 14.398438 5.976563 3.148438 1.855468 7.148438 1.34375 9.730469-1.242188l18.449219-18.445312 11.308593 11.3125-18.445312 18.445312c-2.585938 2.582032-3.097657 6.582032-1.242188 9.730469 2.65625 4.496094 4.667969 9.34375 5.976563 14.398437.910156 3.527344 4.09375 5.996094 7.738281 6h26.078125zm0 0" fill="#FFFFFF"/></svg>
