<?xml version="1.0" encoding="utf-8"?>
<!-- Generator: Adobe Illustrator 23.0.1, SVG Export Plug-In . SVG Version: 6.00 Build 0)  -->
<svg version="1.1" id="kreis_robotiksensorik" xmlns="http://www.w3.org/2000/svg" xmlns:xlink="http://www.w3.org/1999/xlink"
	 x="0px" y="0px" viewBox="0 0 40 40" style="enable-background:new 0 0 40 40;" xml:space="preserve">
<path d="M18,12.7c-1,0-1.8,0.8-1.8,1.8s0.8,1.8,1.8,1.8s1.8-0.8,1.8-1.8l0,0C19.9,13.5,19,12.7,18,12.7z M18,15.4
	c-0.5,0-0.9-0.4-0.9-0.9c0-0.5,0.4-0.9,0.9-0.9l0,0v0c0.5,0,0.9,0.4,0.9,0.9C18.9,15,18.5,15.4,18,15.4L18,15.4z"/>
<path d="M23.3,12.7c-1,0-1.8,0.8-1.8,1.8c0,1,0.8,1.8,1.8,1.8c1,0,1.8-0.8,1.8-1.8l0,0C25.1,13.5,24.3,12.7,23.3,12.7z M23.3,15.4
	c-0.5,0-0.9-0.4-0.9-0.9c0-0.5,0.4-0.9,0.9-0.9l0,0v0c0.5,0,0.9,0.4,0.9,0.9C24.2,15,23.8,15.4,23.3,15.4L23.3,15.4z"/>
<path d="M28.9,14.8c-0.2-1.1-1.1-1.9-2.2-2.1c-0.3-1.1-1.2-2.1-2.9-2.1h-2.7v-1c0.8-0.3,1.3-1.1,1-1.9s-1.1-1.3-1.9-1
	c-0.8,0.3-1.3,1.1-1,1.9c0.2,0.5,0.5,0.8,1,1v1h-2.7c-1.2,0-2.5,0.6-2.9,2.1c-1.4,0.2-2.4,1.5-2.2,2.9c0.2,1.1,1,2,2.1,2.2v0
	c0.1,2,1.6,2.8,3,2.8h6.3c2.1,0,2.9-1.4,3-2.8C28.2,17.5,29.1,16.2,28.9,14.8z M14.5,16.9c-0.9-0.3-1.4-1.2-1.1-2
	c0.2-0.5,0.6-1,1.1-1.1V16.9z M20,8.2c0-0.3,0.3-0.6,0.6-0.6s0.6,0.3,0.6,0.6c0,0.3-0.3,0.6-0.6,0.6l0,0C20.3,8.8,20,8.5,20,8.2z
	 M25.9,17.4c0,0.8-0.3,2.1-2.1,2.1h-6.2c-0.8,0-2.1-0.3-2.1-2.1v-3.7c0-1.9,1.3-2.1,2.1-2.1h6.3c1.9,0,2.1,1.3,2.1,2.1L25.9,17.4z
	 M26.8,16.8v-3.1c0.9,0.2,1.4,1.2,1.1,2C27.8,16.2,27.4,16.7,26.8,16.8z"/>
<path d="M23.3,17.6H18c-0.3,0-0.5,0.2-0.5,0.4c0,0.3,0.2,0.5,0.4,0.5c0,0,0,0,0,0h5.3c0.3,0,0.4-0.2,0.4-0.5
	C23.7,17.8,23.5,17.6,23.3,17.6z"/>
<path d="M30.9,21.4L30.9,21.4c0-1-0.8-1.8-1.8-1.8c-0.8,0-1.5,0.6-1.7,1.4l-1.2,0.2h-11L13.9,21c-0.2-1-1.2-1.6-2.1-1.4
	s-1.6,1.2-1.4,2.1c0.1,0.7,0.6,1.2,1.3,1.3v3.4c-0.8,0.2-1.3,0.9-1.3,1.7v0.8c0,0.3,0.2,0.5,0.5,0.5c0.3,0,0.5-0.2,0.5-0.5v-0.8
	c0-0.5,0.4-0.9,0.9-0.8c0.5,0,0.8,0.4,0.8,0.8v0.8c0,0.3,0.2,0.4,0.5,0.4c0.2,0,0.4-0.2,0.4-0.4v-0.8c0-0.8-0.5-1.5-1.3-1.7v-3.4
	c0.6-0.2,1-0.6,1.2-1.2l0.8,0.2v5.7c0,0.8,0.2,1.6,0.5,2.4v0c1.4,3,4.9,4.3,7.9,3c1.3-0.6,2.4-1.7,3-3l0-0.1
	c0.3-0.8,0.5-1.6,0.5-2.4v-5.7l0.8-0.2c0.2,0.6,0.7,1,1.2,1.2v3.4c-0.8,0.2-1.3,0.9-1.3,1.7v0.8c0,0.3,0.2,0.4,0.5,0.4
	c0.2,0,0.4-0.2,0.4-0.4v-0.8c0-0.5,0.4-0.9,0.9-0.8c0.5,0,0.8,0.4,0.8,0.8v0.8c0,0.3,0.2,0.5,0.5,0.5c0.3,0,0.5-0.2,0.5-0.5l0,0
	v-0.8c0-0.8-0.5-1.5-1.3-1.7v-3.4C30.3,22.9,30.9,22.2,30.9,21.4z M12.2,22.3c-0.5,0-0.9-0.4-0.9-0.9s0.4-0.9,0.9-0.9
	c0.5,0,0.9,0.4,0.9,0.9l0,0C13.1,21.9,12.7,22.3,12.2,22.3z M20.6,32.8c-1.7,0-3.3-0.9-4.3-2.4h8.5C24,31.9,22.4,32.8,20.6,32.8
	L20.6,32.8z M25.7,27.8c0,0.6-0.1,1.2-0.3,1.8h-9.4c-0.2-0.6-0.3-1.2-0.3-1.8v-5.6h10.1V27.8z M29.1,22.3L29.1,22.3L29.1,22.3
	c-0.3-0.3-0.3-0.6,0-0.9c0.2-0.2,0.6-0.2,0.9,0c0.2,0.2,0.2,0.6,0,0.9C29.7,22.5,29.3,22.5,29.1,22.3L29.1,22.3z"/>
<path d="M22.3,25.4c-0.1-0.1-0.2-0.1-0.3-0.1h-1.4l1.7-1.7c0.2-0.2,0.1-0.5-0.1-0.7c-0.2-0.1-0.4-0.1-0.6,0l-2.5,2.5
	c-0.2,0.2-0.2,0.5,0,0.7c0.1,0.1,0.2,0.1,0.3,0.1h1.4l-1.7,1.9c-0.2,0.2-0.2,0.5,0,0.7l0,0l0,0c0.2,0.2,0.5,0.2,0.7,0l2.5-2.7
	C22.5,25.9,22.5,25.6,22.3,25.4z"/>
</svg>
