<!--?xml version="1.0" encoding="utf-8"?-->
<!-- Generator: Adobe Illustrator 23.0.1, SVG Export Plug-In . SVG Version: 6.00 Build 0)  -->
<svg version="1.1" id="Layer_1" xmlns="http://www.w3.org/2000/svg" xmlns:xlink="http://www.w3.org/1999/xlink" x="0px" y="0px" viewBox="0 0 512 512" style="" xml:space="preserve">
<style type="text/css">
	.st0{fill:none;stroke:#ECC748;stroke-width:3;stroke-miterlimit:10;}
</style>
<g>
	<g>
		<path class="st0 PUwyxyjs_0" d="M437,75C388.7,26.6,324.4,0,256,0S123.3,26.6,75,75C26.6,123.3,0,187.6,0,256s26.6,132.7,75,181
			c48.4,48.4,112.6,75,181,75s132.7-26.6,181-75c48.4-48.4,75-112.6,75-181S485.4,123.3,437,75z M495.5,247.8h-49.1
			c-2-46.4-20.6-88.6-50.1-120.7L431,92.4C469.4,133.5,493.5,187.9,495.5,247.8z M256,16.3c63.1,0,120.6,24.6,163.5,64.6l-34.7,34.7
			c-34-31.2-79.2-50.3-128.8-50.3s-94.9,19.1-128.8,50.3L92.5,80.9C135.4,40.9,192.9,16.3,256,16.3z M80.9,92.5l34.7,34.7
			c-29.5,32.1-48.1,74.3-50.1,120.7h-49C18.5,187.9,42.6,133.5,80.9,92.5z M144.4,389.7c-3.5-2.9-8.6-2.4-11.5,1
			c-2.9,3.5-2.4,8.6,1,11.5c32.1,26.9,72.3,42.4,114,44.2v49C122.2,491.3,20.7,389.8,16.5,264.2h49c1.8,41.7,17.3,81.8,44.2,114
			c2.9,3.5,8,3.9,11.5,1s3.9-8,1-11.5c-26.1-31.3-40.5-71-40.5-111.7c0-96.1,78.2-174.3,174.3-174.3S430.3,159.9,430.3,256
			S352.1,430.3,256,430.3C215.3,430.3,175.6,415.9,144.4,389.7z M264.2,495.5v-49.1c72.9-3.1,135.3-47.3,164.6-110l45.3,18.8
			C437.4,435.6,357.5,492.4,264.2,495.5z M480.4,340.1l-45.3-18.8c6.6-18,10.5-37.2,11.4-57.2h49.1
			C494.6,290.8,489.3,316.3,480.4,340.1z"></path>
	</g>
</g>
<g>
	<g>
		<path class="st0 PUwyxyjs_1" d="M256,108.9c-81.1,0-147.1,66-147.1,147.1s66,147.1,147.1,147.1s147.1-66,147.1-147.1S337.1,108.9,256,108.9z
			 M386.5,247.8h-76.1c-0.4-21.7-2.5-42.6-6-61.3c15.5-5.4,30.1-13.4,43.1-23.8C369.9,184.7,384.4,214.6,386.5,247.8z M334.9,151.8
			c-10.4,7.9-21.9,14.1-34,18.6c-1.3-5.3-2.8-10.4-4.4-15.2c-3.6-10.8-7.7-19.8-12.2-26.9C302.9,132.5,320.1,140.6,334.9,151.8z
			 M218,247.8c0.4-20.2,2.3-39.5,5.4-56.8c10.6,2.4,21.6,3.7,32.6,3.7s22-1.3,32.6-3.7c3.2,17.3,5,36.6,5.4,56.8H218z M294,264.2
			c-0.4,20.2-2.3,39.5-5.4,56.8c-10.6-2.4-21.6-3.7-32.6-3.7s-22,1.3-32.6,3.7c-3.2-17.3-5-36.6-5.4-56.8H294z M256,125.3
			c6.4,0,16.3,9.2,25,35.1c1.5,4.6,2.9,9.5,4.2,14.7c-9.5,2.2-19.3,3.3-29.2,3.3s-19.7-1.1-29.2-3.3c1.3-5.1,2.7-10,4.2-14.7
			C239.7,134.5,249.6,125.3,256,125.3z M227.8,128.4c-4.5,7.1-8.6,16.1-12.2,26.9c-1.6,4.8-3.1,9.9-4.4,15.2
			c-12.1-4.4-23.6-10.7-34-18.6C191.9,140.6,209.1,132.5,227.8,128.4z M164.5,162.7c13,10.4,27.6,18.4,43.1,23.8
			c-3.5,18.7-5.6,39.6-6,61.3h-76.1C127.6,214.6,142.1,184.7,164.5,162.7z M125.5,264.2h76.1c0.4,21.7,2.5,42.6,6,61.3
			c-15.5,5.4-30.1,13.4-43.1,23.8C142.1,327.3,127.6,297.4,125.5,264.2z M177.1,360.2c10.4-7.9,21.9-14.1,34-18.6
			c1.3,5.3,2.8,10.4,4.4,15.2c3.6,10.8,7.7,19.8,12.2,26.9C209.1,379.5,191.9,371.4,177.1,360.2z M256,386.7
			c-6.4,0-16.3-9.2-25-35.1c-1.5-4.6-2.9-9.5-4.2-14.7c9.5-2.2,19.3-3.3,29.2-3.3s19.7,1.1,29.2,3.3c-1.3,5.1-2.7,10-4.2,14.7
			C272.3,377.5,262.4,386.7,256,386.7z M284.2,383.6c4.5-7.1,8.6-16.1,12.2-26.9c1.6-4.8,3.1-9.9,4.4-15.2
			c12.1,4.4,23.6,10.7,34,18.6C320.1,371.4,302.9,379.5,284.2,383.6z M347.5,349.3c-13-10.4-27.6-18.4-43.1-23.8
			c3.5-18.7,5.6-39.6,6-61.3h76.1C384.4,297.4,369.9,327.3,347.5,349.3z"></path>
	</g>
</g>
<style data-made-with="vivus-instant">.PUwyxyjs_0{stroke-dasharray:5786 5788;stroke-dashoffset:5787;animation:PUwyxyjs_draw_0 7200ms ease-in-out 0ms infinite,PUwyxyjs_fade 7200ms linear 0ms infinite;}.PUwyxyjs_1{stroke-dasharray:3490 3492;stroke-dashoffset:3491;animation:PUwyxyjs_draw_1 7200ms ease-in-out 0ms infinite,PUwyxyjs_fade 7200ms linear 0ms infinite;}@keyframes PUwyxyjs_draw{100%{stroke-dashoffset:0;}}@keyframes PUwyxyjs_fade{0%{stroke-opacity:1;}94.44444444444444%{stroke-opacity:1;}100%{stroke-opacity:0;}}@keyframes PUwyxyjs_draw_0{11.11111111111111%{stroke-dashoffset: 5787}52.77777777777778%{ stroke-dashoffset: 0;}100%{ stroke-dashoffset: 0;}}@keyframes PUwyxyjs_draw_1{11.11111111111111%{stroke-dashoffset: 3491}52.77777777777778%{ stroke-dashoffset: 0;}100%{ stroke-dashoffset: 0;}}</style></svg>
