<?xml version="1.0" encoding="utf-8"?>
<!-- Generator: Adobe Illustrator 23.0.1, SVG Export Plug-In . SVG Version: 6.00 Build 0)  -->
<svg version="1.1" id="Layer_1" xmlns="http://www.w3.org/2000/svg" xmlns:xlink="http://www.w3.org/1999/xlink" x="0px" y="0px"
	 viewBox="0 0 512 512" style="enable-background:new 0 0 512 512;" xml:space="preserve">
<style type="text/css">
	.st0{fill:#252A4C;}
	.st1{fill:#56E39F;}
</style>
<title>Element 4</title>
<g id="Ebene_2">
	<g id="Capa_1">
		<circle class="st0" cx="256" cy="256" r="256"/>
		<path class="st1" d="M367.9,196.9c6.7,0,12.2-5.5,12.2-12.2V144c0-6.7-5.5-12.2-12.2-12.2H311c-6.7,0-12.2,5.5-12.2,12.2v40.7
			c0,6.7,5.5,12.2,12.2,12.2h12.2v8.1h-8.1v8.1h20.3v40.7h-16.8c-3.3-3.2-7.3-5.6-11.7-6.9c0-0.4,0-0.8,0-1.2
			c0-18-14.5-32.5-32.5-32.5c-11.1,0-21.4,5.6-27.4,15c-4.2-1.9-8.7-2.9-13.3-2.9c-13.5,0.1-25.6,8.4-30.4,21
			c-3,0.7-5.9,1.8-8.6,3.4h-30.2v-12.2h16.3c6.7,0,12.2-5.5,12.2-12.2V144c0-6.7-5.5-12.2-12.2-12.2h-40.7
			c-6.7,0-12.2,5.5-12.2,12.2v81.3c0,6.7,5.5,12.2,12.2,12.2h16.3v20.3H186c-1.8,2.5-3.1,5.2-4,8.1h-17.5v44.7h-16.3
			c-6.7,0-12.2,5.5-12.2,12.2v36.6h-8v12.2c0,6.7,5.5,12.2,12.2,12.2h65.1c6.7,0,12.2-5.5,12.2-12.2v-12.2h-8.1V323
			c0-6.7-5.5-12.2-12.2-12.2h-24.4v-36.6h8.1c0,15.7,12.8,28.4,28.5,28.5h89.5c14.1,0,26.1-10.4,28.1-24.4h16.6v32.5h-28.5V384h65.1
			v-73.2h-28.5v-40.7H327c-0.4-2.8-1.3-5.6-2.5-8.1h19.1v-48.8h20.3v-8.1h-8.1V197L367.9,196.9L367.9,196.9z M184.9,196.9h-48.8
			v-40.7h48.8V196.9z M140.2,140h40.7c2.2,0,4.1,1.8,4.1,4.1l0,0v4.1h-48.8v-4.1C136.1,141.8,138,140,140.2,140z M136.1,225.4v-20.3
			h48.8v20.3c0,2.2-1.8,4.1-4.1,4.1h-40.7C138,229.5,136.1,227.7,136.1,225.4L136.1,225.4z M209.3,371.8c0,2.2-1.8,4.1-4.1,4.1l0,0
			h-65.1c-2.2,0-4.1-1.8-4.1-4.1v-4.1h73.2v4.1H209.3z M201.2,323v36.6h-56.9V323c0-2.2,1.8-4.1,4.1-4.1h48.8
			C199.4,318.9,201.2,320.8,201.2,323z M323.2,375.9v-24.4H372v24.4H323.2z M372,343.3h-48.8v-24.4H372V343.3z M298.8,294.5h-89.5
			c-11.2,0-20.3-9-20.4-20.3c0-10.3,7.7-19,17.9-20.2l2.7-0.3l0.8-2.6c3.7-12.9,17.2-20.4,30.1-16.6c2.1,0.6,4.2,1.5,6.1,2.7
			l3.9,2.4l1.9-4.1c5.6-12.2,20-17.6,32.2-12c10,4.6,15.7,15.3,13.9,26.1l-0.6,4l4,0.6c11.1,1.7,18.7,12,17,23.1
			C317.4,287.2,308.8,294.5,298.8,294.5L298.8,294.5z M311,140h56.9c2.2,0,4.1,1.8,4.1,4.1l0,0v28.5h-65.1v-28.4
			C306.9,141.8,308.7,140,311,140L311,140z M306.9,184.7v-4.1H372v4.1c0,2.2-1.8,4.1-4.1,4.1l0,0H311
			C308.8,188.8,306.9,187,306.9,184.7L306.9,184.7L306.9,184.7z M347.6,205.1h-16.3V197h16.3V205.1z"/>
	</g>
</g>
</svg>
