<svg xmlns="http://www.w3.org/2000/svg" viewBox="0 0 510.08 510.08">
  <defs>
    <style>
      .cls-1 {
        fill: #252a4c;
      }

      .cls-2 {
        fill: #fff;
      }
    </style>
  </defs>
  <title>Element 3</title>
  <g id="Ebene_2" data-name="Ebene 2">
    <g id="Capa_1" data-name="Capa 1">
      <circle class="cls-1" cx="255.04" cy="255.04" r="255.04"/>
      <g>
        <path class="cls-2" d="M377.37,139.89A162.85,162.85,0,1,0,425.06,255,161.77,161.77,0,0,0,377.37,139.89Zm37.2,109.68h-31.2a120.82,120.82,0,0,0-31.85-76.76l22.05-22.05A151.88,151.88,0,0,1,414.57,249.57Zm-152.35-147a151.85,151.85,0,0,1,104,41.1l-22.05,22.05a121,121,0,0,0-163.9,0l-22.05-22.05A151.87,151.87,0,0,1,262.22,102.59ZM150.87,150.76l22,22.05a120.82,120.82,0,0,0-31.85,76.76h-31.2A151.93,151.93,0,0,1,150.87,150.76Zm40.62,189.49a5.2,5.2,0,0,0-6.67,8,121.37,121.37,0,0,0,72.49,28.12v31.19c-79.93-2.69-144.46-67.21-147.15-147.15h31.2a121.27,121.27,0,0,0,28.11,72.49,5.2,5.2,0,0,0,8-6.67,110.89,110.89,0,0,1-25.8-71C151.64,185.09,217,130,290,147.64c35.27,8.54,71.51,44.78,80,80,17.67,73-37.44,138.38-107.54,138.38A110.92,110.92,0,0,1,191.49,340.25Zm76,67.14v-31.2a121.48,121.48,0,0,0,104.73-70l28.84,11.94A152.71,152.71,0,0,1,267.49,407.39ZM405,308.69l-28.82-11.94a120.57,120.57,0,0,0,7.22-36.37h31.2A151.67,151.67,0,0,1,405,308.69Z"/>
        <path class="cls-2" d="M262.22,161.49A93.55,93.55,0,1,0,355.77,255,93.66,93.66,0,0,0,262.22,161.49Zm83,88.08h-48.4a237.53,237.53,0,0,0-3.81-39,93.32,93.32,0,0,0,27.41-15.13A82.89,82.89,0,0,1,345.21,249.57Zm-32.82-60.8a82.89,82.89,0,0,1-21.63,11.83c-.85-3.37-1.78-6.6-2.79-9.65a78,78,0,0,0-7.78-17.1A82.73,82.73,0,0,1,312.39,188.77ZM238,249.57a229.36,229.36,0,0,1,3.45-36.12,93.17,93.17,0,0,0,41.5,0,227,227,0,0,1,3.45,36.12Zm48.4,10.81A227,227,0,0,1,283,296.5a93.17,93.17,0,0,0-41.5,0A229.36,229.36,0,0,1,238,260.38Zm-24.2-88.5c4.08,0,10.39,5.88,15.89,22.36,1,2.93,1.87,6,2.69,9.32a82.82,82.82,0,0,1-37.15,0c.81-3.27,1.71-6.39,2.69-9.32C251.83,177.76,258.14,171.88,262.22,171.88Zm-18,2A77.62,77.62,0,0,0,236.48,191c-1,3.05-1.95,6.28-2.8,9.65a82.89,82.89,0,0,1-21.63-11.83A82.87,82.87,0,0,1,244.26,173.84ZM204,195.43a93.45,93.45,0,0,0,27.41,15.13,237.53,237.53,0,0,0-3.81,39h-48.4A82.94,82.94,0,0,1,204,195.43Zm-24.8,64.95h48.4a237.41,237.41,0,0,0,3.81,39A93.48,93.48,0,0,0,204,314.52,82.91,82.91,0,0,1,179.23,260.38Zm32.82,60.92a83.15,83.15,0,0,1,21.63-11.82c.85,3.37,1.78,6.6,2.8,9.65a77.53,77.53,0,0,0,7.78,17.1A82.58,82.58,0,0,1,212.05,321.3Zm50.17,16.89c-4.08,0-10.39-5.87-15.88-22.35-1-2.94-1.88-6.06-2.69-9.32a82.82,82.82,0,0,1,37.15,0c-.82,3.26-1.72,6.38-2.69,9.32C272.61,332.32,266.3,338.19,262.22,338.19Zm18-2a77.76,77.76,0,0,0,7.79-17.1c1-3.05,1.94-6.28,2.79-9.65A83.37,83.37,0,0,1,312.4,321.3,82.69,82.69,0,0,1,280.18,336.23Zm40.24-21.71A93.53,93.53,0,0,0,293,299.38a237.41,237.41,0,0,0,3.81-39h48.4A83,83,0,0,1,320.42,314.52Z"/>
      </g>
    </g>
  </g>
</svg>
