<?xml version="1.0" encoding="utf-8"?>
<!-- Generator: Adobe Illustrator 23.0.1, SVG Export Plug-In . SVG Version: 6.00 Build 0)  -->
<svg version="1.1" id="Layer_1" xmlns="http://www.w3.org/2000/svg" xmlns:xlink="http://www.w3.org/1999/xlink" x="0px" y="0px"
	 viewBox="0 0 512 512" style="enable-background:new 0 0 512 512;" xml:space="preserve">
<style type="text/css">
	.st0{fill:#252A4C;}
	.st1{fill:#00C7FF;}
</style>
<title>Element 1</title>
<g id="Ebene_2">
	<g id="Capa_1">
		<circle class="st0" cx="256" cy="256" r="256"/>
		<g>
			<path class="st1" d="M198.1,318c-6.5-4.2-14.9-4-21.1,0.6c-1.8,1.6-2,4.4-0.4,6.2c1.4,1.6,3.8,1.9,5.6,0.8
				c3.3-2.4,7.7-2.5,11.1-0.3c2,1.3,4.7,0.8,6.1-1.2S200.1,319.3,198.1,318L198.1,318z"/>
			<path class="st1" d="M209.3,303c-13-9.2-30.3-9.1-43.1,0.3c-2,1.4-2.4,4.2-1,6.1c1.4,2,4.2,2.4,6.1,1c9.8-7.1,23.1-7.2,32.9-0.2
				c2,1.4,4.7,0.9,6.1-1C211.7,307.1,211.3,304.4,209.3,303L209.3,303z"/>
			<path class="st1" d="M220,287.6c-19.4-13.6-45.3-13.5-64.5,0.3c-2,1.4-2.5,4.1-1.1,6.1s4.1,2.5,6.1,1.1c0.1,0,0.1-0.1,0.1-0.1
				c16.2-11.6,38.1-11.7,54.4-0.2c2.1,1.2,4.8,0.5,6-1.6C222.1,291.4,221.6,289,220,287.6L220,287.6z"/>
			<path class="st1" d="M225.3,226.1h-74.6c-7.6,0-13.7,6.2-13.7,13.7v149.9c0,7.6,6.1,13.7,13.7,13.7l0,0h74.6
				c7.6,0,13.7-6.1,13.7-13.7V239.8C239.1,232.2,232.9,226.1,225.3,226.1L225.3,226.1z M225.3,394.6h-74.6c-2.8,0-5-2.2-5-5V239.8
				c0-2.8,2.2-5,5-5h74.6c2.8,0,5,2.2,5,5v149.9C230.3,392.4,228.1,394.6,225.3,394.6z"/>
			<path class="st1" d="M215.8,366.1h-56c-2.2,0-4.2,1.6-4.5,3.8c-0.3,2.4,1.4,4.6,3.8,4.9c0.2,0,0.4,0,0.5,0h55.9
				c2.3,0,4.2-1.6,4.5-3.8c0.3-2.4-1.4-4.6-3.8-4.9C216.2,366.1,216,366.1,215.8,366.1z"/>
			<path class="st1" d="M192.4,380.6h-9.2c-2.2,0-4.2,1.6-4.5,3.8c-0.3,2.4,1.4,4.6,3.8,4.9c0.2,0,0.4,0,0.6,0h9.2
				c2.2,0,4.2-1.6,4.5-3.8c0.3-2.4-1.4-4.6-3.8-4.9C192.8,380.7,192.6,380.6,192.4,380.6z"/>
			<path class="st1" d="M393.1,244.7h-4.8V114.1c0-5.2-4.2-9.3-9.3-9.3H178.7c-2.4,0-4.4,2-4.4,4.4l0,0v104.6c0,0.3,0.1,0.5,0.3,0.7
				c3.6,4,7.9,1.3,7.9-2.4v-88.8c0-5.3,4.3-9.7,9.6-9.7H370c5.3,0,9.6,4.3,9.6,9.7v121.6H253.3c-2.2,0-4.2,1.6-4.5,3.8
				c-0.3,2.4,1.4,4.6,3.8,4.9c0.2,0,0.4,0,0.6,0h14.6c0,0.1,0,0.2,0,0.3c0,2.4,2,4.4,4.4,4.4h18.7c2.4,0,4.4-2,4.4-4.4
				c0-0.1,0-0.2,0-0.3h93.6c0.2,0,0.3,0.1,0.3,0.3v9.5c0,0.1-0.1,0.2-0.1,0.2l0,0H251.9c-0.6,0-1.2,0.3-1.7,0.7
				c-3.3,3.7-0.8,8,2.8,8h140.1c2.5,0,4.6-2,4.6-4.6v-18.2C397.7,246.8,395.7,244.7,393.1,244.7L393.1,244.7z"/>
			<path class="st1" d="M365.4,123.4H197.1c-2.3,0-4.2,1.9-4.2,4.2V212c0,2,1.3,3.7,3.2,4.2c2.3,0.5,4.5-1,4.9-3.3
				c0.1-0.3,0.1-0.7,0.1-1v-79.8H361V226H253.3c-2.2,0-4.2,1.6-4.5,3.8c-0.3,2.4,1.4,4.6,3.8,4.9c0.2,0,0.4,0,0.5,0h112.2
				c2.4,0,4.4-2,4.4-4.4V127.8C369.7,125.4,367.8,123.4,365.4,123.4L365.4,123.4z"/>
		</g>
	</g>
</g>
</svg>
