<!--?xml version="1.0" encoding="utf-8"?-->
<!-- Generator: Adobe Illustrator 23.0.1, SVG Export Plug-In . SVG Version: 6.00 Build 0)  -->
<svg version="1.1" xmlns="http://www.w3.org/2000/svg" xmlns:xlink="http://www.w3.org/1999/xlink" x="0px" y="0px" viewBox="0 0 512 512" style="" xml:space="preserve">
<style type="text/css">
	.st0{fill:none;stroke:#A42CD6;stroke-width:3;stroke-linecap:round;stroke-linejoin:round;stroke-miterlimit:10;}
	.st1{fill:none;stroke:#A42CD6;stroke-width:3;stroke-miterlimit:10;}
</style>
<g id="kopf">
	<g>
		<g>
			<path class="st0 prbvNywm_0" d="M469.8,247.5c13.3-72.4-8.4-171.9-87.7-219.3C332.1,0.1,273-7.4,217.5,7.5C140.7,28,84.2,83.1,66.4,155
				c-4,14.6-5.6,29.7-5,44.7c0.9,9.4,2.6,18.6,5.2,27.6c3.5,11.5,5.2,23.5,5.1,35.5c-0.4,14.3-10.2,29.1-18.9,42.2
				c-9.5,14.3-17.7,26.6-12.9,38c4.5,7.7,12.4,12.8,21.3,13.7c0.5,0.1,1,0.1,1.5,0.2c2.4-0.3,4.8,0.5,6.5,2.1c1.7,1.7,2.6,4,2.5,6.4
				c0,17.7,0.4,26.9,7.8,31.1c-0.6,1.3-1.1,2.8-1.3,4.2c-0.7,5,1.1,10,4.8,13.4c3.7,3.6,8.4,6,13.5,6.9c0.4,0.1,0.7,0.1,1,0.2
				c0.2,1.3,0.3,2.6,0.3,3.8c-0.1,3.2-0.3,6.3-0.7,9.5c-1.4,13.6-3.4,32.3,23.9,41.3c5.5,1.5,11.2,2.2,16.8,2
				c25.9-1.1,51.4-6,75.8-14.5c7.1,12.3,11.3,26,12.5,40.2c0,2.3,0.9,4.4,2.5,6c1.6,1.6,3.8,2.5,6,2.5H448c3.6,0,6.9-2.4,8-5.9
				c1.1-3.5-0.1-7.4-3-9.6c-8.8-6.7-38.1-77.3-39-102.7c2.6-5.8,6-12.4,10.1-20C446.3,334.6,461.8,291.9,469.8,247.5z M396.8,393
				c0.2,20.4,18.6,74.3,34.4,102H242.5c-2.1-13.1-6.4-25.7-12.5-37.4c24.7-9.7,46.5-22.1,56.9-35.8c2.8-3.7,2.1-9.1-1.6-11.9
				c-3.7-2.9-9.1-2.1-11.9,1.6c-24.1,31.6-124.6,55.6-147,48.2c-14.2-4.6-13.6-10.1-12.3-23.3c0.5-3.7,0.7-7.5,0.8-11.3
				c0-14.4-5.8-18.7-14.5-20.7c-1.6-0.2-3.2-0.8-4.6-1.8c1.7-1.6,3.6-2.9,5.6-4c3.6-1.7,5.4-5.7,4.5-9.6c-0.9-3.9-4.3-6.6-8.3-6.6
				c-3.1,0-6.5,0-8.3-0.2c-0.5-5.6-0.7-11.2-0.5-16.8c0.2-6.7-2.4-13.2-7.1-18.1c-4.7-4.8-11.1-7.5-17.9-7.5c-6.1-1.3-8-3-8.2-3.3
				c-1.2-3,7-15.3,11.4-22c9.5-14.3,21.3-32,21.7-51.2c0.2-10.7-0.9-21.3-3.5-31.6c9.3-8.2,20.3-14.2,32.2-17.7
				c4.2-0.7,8.6-0.4,12.7,0.9c4.5,1.3,9.2-1.4,10.5-6c1.3-4.5-1.4-9.2-6-10.5c-6.7-2.1-13.8-2.5-20.7-1.1
				c-12.1,3.1-23.3,8.7-33.1,16.4c-1.2-5-2-10-2.4-15.1c-0.6-13.3,0.9-26.6,4.5-39.4C99.5,92.4,150.1,43.1,221.9,23.9
				c51-13.7,105.3-6.9,151.4,18.9c72.3,43.2,92,134.8,79.7,201.6c-7.7,42.6-22.6,83.7-44,121.3c-4.7,8.8-8.7,16.3-11.7,23.3
				C396.9,390.3,396.7,391.6,396.8,393z"></path>
		</g>
	</g>
</g>
<g id="hirn">
	<g>
		<g>
			<path class="st1 prbvNywm_1" d="M439.3,185.4c-1-11-9.1-20.1-19.9-22.5l-12.8-25.6c9-9.2,9.8-23.6,1.8-33.6c-8-10.1-22.2-12.7-33.2-6
				L361,85.8c1.1-2.8,1.6-5.8,1.7-8.9c0-10.5-6.3-19.9-16-23.8c-9.7-3.9-20.8-1.5-28,6.1l-25.3-6.3c-3-11-13-18.6-24.4-18.7
				s-21.4,7.4-24.6,18.4l-33.8,6.8c-8.8-9.5-23.4-10.9-33.8-3.2c-10.4,7.7-13.4,22-6.9,33.2l-16.6,22.1c-11.9,2.1-20.6,12.3-21,24.4
				s7.8,22.7,19.5,25.5l13.7,33.8c-7.5,7.4-9.7,18.6-5.6,28.3c4.1,9.7,13.8,15.8,24.3,15.5c10.5-0.3,19.8-7.1,23.3-17h45.8
				c3.8,11.8,15.8,18.9,27.9,16.7l28.3,43.1c-7.3,8.1-8.6,19.8-3.4,29.3c5.2,9.5,15.9,14.7,26.6,12.9s19.1-10.1,21-20.8l21.1-16.9
				c4,2.5,8.7,3.9,13.4,3.9c13.2,0,24.3-10.1,25.5-23.2c1.2-13.2-7.8-25.1-20.8-27.5l-16.3-22.6c1-1.8,1.8-3.8,2.3-5.9l15.8-6.3
				c7.3,8.3,19.1,11,29.3,6.6C434.2,206.9,440.4,196.4,439.3,185.4z M388.3,256.1c4.7,0,8.5,3.8,8.5,8.5s-3.8,8.5-8.5,8.5
				c-4.7,0-8.5-3.8-8.5-8.5C379.8,259.9,383.6,256.1,388.3,256.1z M379.9,117.9c0.8-4,4.3-6.8,8.4-6.8c4.7,0,8.5,3.8,8.5,8.5
				s-3.8,8.5-8.5,8.5c-1.1,0-2.1-0.2-3.1-0.6l-0.1,0c-0.1,0-0.2,0-0.2,0C381.2,125.8,379.1,121.8,379.9,117.9z M371.4,138.7
				l-15.8,39.4L328,156c3.7-3.2,6.5-7.4,7.9-12.1l33.8-6.8C370.3,137.7,370.9,138.2,371.4,138.7z M362.4,207.2
				c-1.1,4.1-5.2,6.7-9.4,6.1c-4.2-0.6-7.4-4.2-7.4-8.5c0-4.7,3.8-8.5,8.5-8.5c1.1,0,2.1,0.2,3.1,0.6l0.1,0c0.1,0,0.2,0,0.2,0
				C361.5,198.8,363.5,203.1,362.4,207.2z M337.1,68.4c4.7,0,8.5,3.8,8.5,8.5s-3.8,8.5-8.5,8.5c-4.7,0-8.5-3.8-8.5-8.5
				C328.6,72.2,332.4,68.4,337.1,68.4z M292.2,70.2l19.5,4.9c0,0.6-0.2,1.2-0.2,1.8c0,14.1,11.5,25.6,25.6,25.6
				c4.6,0,9.1-1.3,13-3.7l14.3,11.9c-1.1,2.8-1.6,5.8-1.7,8.9c0,0.5,0.1,1,0.2,1.5l-27.8,5.6c-3.5-8.1-10.9-13.9-19.6-15.2
				l-31.2-31.2C287.7,77.6,290.4,74.2,292.2,70.2z M320,136.6c0,4.7-3.8,8.5-8.5,8.5c-4.7,0-8.5-3.8-8.5-8.5c0-4.7,3.8-8.5,8.5-8.5
				S320,131.9,320,136.6z M268.9,51.3c4.7,0,8.5,3.8,8.5,8.5s-3.8,8.5-8.5,8.5s-8.5-3.8-8.5-8.5C260.3,55.2,264.1,51.3,268.9,51.3z
				 M270.5,90.7l25.6,25.6c-4,3-7,7.1-8.7,11.8h-20.2c-2-5.6-6-10.4-11.1-13.4L270.5,90.7z M217.5,75.4l27.8-5.6
				c2.2,5,5.9,9.2,10.7,12l-15.5,25.8l-26.8-17.2c2.6-4,4-8.7,4-13.5C217.7,76.4,217.5,75.9,217.5,75.4z M251.8,136.6
				c0,4.7-3.8,8.5-8.5,8.5c-4.7,0-8.5-3.8-8.5-8.5c0-4.7,3.8-8.5,8.5-8.5S251.8,131.9,251.8,136.6z M192.1,68.4
				c4.7,0,8.5,3.8,8.5,8.5s-3.8,8.5-8.5,8.5s-8.5-3.8-8.5-8.5C183.5,72.2,187.4,68.4,192.1,68.4z M182.8,100.7
				c5.2,2.1,11,2.4,16.3,0.7l26.3,16.9c-2.8,2.7-4.9,6.1-6.2,9.8H182c-1.9-5.3-5.4-9.8-10.1-12.9L182.8,100.7z M158,145.2
				c-4.7,0-8.5-3.8-8.5-8.5c0-4.7,3.8-8.5,8.5-8.5c4.7,0,8.5,3.8,8.5,8.5S162.7,145.2,158,145.2z M183.5,222c-4.7,0-8.5-3.8-8.5-8.5
				c0-4.7,3.8-8.5,8.5-8.5s8.5,3.8,8.5,8.5C192.1,218.1,188.3,222,183.5,222z M188.4,188.3c-1.6-0.3-3.2-0.5-4.9-0.5
				c-0.8,0-1.6,0.2-2.5,0.2l-11.6-28.7c5.8-3,10.3-8,12.5-14.2h37.3c1.5,4.3,4.2,8.1,7.7,11L188.4,188.3z M253.4,204.9h-45.8
				c-0.9-2.6-2.2-4.9-3.9-7.1l41.9-34.9l14.3,32C256.9,197.7,254.7,201.1,253.4,204.9z M267.3,145.2h20.2c2,5.6,6,10.4,11.1,13.4
				l-17.7,29.6c-1.2-0.2-2.3-0.3-3.5-0.4c-0.7,0-1.3,0.1-1.9,0.2l-14.6-32.8C263.7,152.4,265.9,149,267.3,145.2z M277.4,222
				c-4.7,0-8.5-3.8-8.5-8.5c0-4.7,3.8-8.5,8.5-8.5c4.7,0,8.5,3.8,8.5,8.5C285.9,218.1,282.1,222,277.4,222z M313.8,166.5l23.8,19.1
				c-3.7,3.2-6.5,7.4-7.9,12.1l-28.8,5.8c-1.2-2.7-2.8-5.2-4.9-7.4L313.8,166.5z M328.6,307.3c-4.7,0-8.5-3.8-8.5-8.5
				s3.8-8.5,8.5-8.5s8.5,3.8,8.5,8.5C337.1,303.4,333.3,307.3,328.6,307.3z M362.7,264.6c0,2.9,0.5,5.7,1.5,8.4l-14.4,11.5
				c-5.4-8.4-15.3-12.7-25.1-10.9l-28.3-43.1c2.5-2.8,4.4-6.2,5.5-9.8l28.8-5.8c5.5,13,20.4,19.1,33.4,13.6l10.5,14.6
				C367.2,247.8,362.7,255.9,362.7,264.6z M388.3,187.8c0,0.3,0.1,0.7,0.1,1l-11.5,4.6c-1.5-2.9-3.5-5.5-5.9-7.7l16.3-40.7
				c0.3,0,0.7,0.1,1,0.1c1,0,2.1-0.1,3.1-0.3l10.3,20.6C393.5,169.9,388.3,178.5,388.3,187.8z M416.2,196c-4.1,1.1-8.4-0.9-10.1-4.8
				c0-0.1,0-0.2,0-0.2l-0.1-0.1c-0.4-1-0.6-2-0.6-3.1c0-4.7,3.8-8.5,8.5-8.5c4.3,0,7.9,3.1,8.5,7.4
				C422.9,190.9,420.3,194.9,416.2,196z"></path>
		</g>
	</g>
</g>
<style data-made-with="vivus-instant">.prbvNywm_0{stroke-dasharray:3494 3496;stroke-dashoffset:3495;animation:prbvNywm_draw_0 7200ms linear 0ms infinite,prbvNywm_fade 7200ms linear 0ms infinite;}.prbvNywm_1{stroke-dasharray:3433 3435;stroke-dashoffset:3434;animation:prbvNywm_draw_1 7200ms linear 0ms infinite,prbvNywm_fade 7200ms linear 0ms infinite;}@keyframes prbvNywm_draw{100%{stroke-dashoffset:0;}}@keyframes prbvNywm_fade{0%{stroke-opacity:1;}94.44444444444444%{stroke-opacity:1;}100%{stroke-opacity:0;}}@keyframes prbvNywm_draw_0{11.11111111111111%{stroke-dashoffset: 3495}52.77777777777778%{ stroke-dashoffset: 0;}100%{ stroke-dashoffset: 0;}}@keyframes prbvNywm_draw_1{11.11111111111111%{stroke-dashoffset: 3434}52.77777777777778%{ stroke-dashoffset: 0;}100%{ stroke-dashoffset: 0;}}</style></svg>
