<?xml version="1.0" encoding="utf-8"?>
<!-- Generator: Adobe Illustrator 23.0.1, SVG Export Plug-In . SVG Version: 6.00 Build 0)  -->
<svg version="1.1" id="svg_bigData" class="bigData-image" xmlns="http://www.w3.org/2000/svg" xmlns:xlink="http://www.w3.org/1999/xlink" x="0px"
	 y="0px" viewBox="0 0 512 512" style="enable-background:new 0 0 512 512;" xml:space="preserve">

<g>
	<path class="map-path st11" d="M489.9,248h-47.9c-2-45.3-20.1-86.5-48.9-117.9l33.9-33.9C464.4,136.4,487.9,189.5,489.9,248z"/>
	<path class="map-path st11" d="M256,21.9c61.6,0,117.8,24,159.7,63.1l-33.9,33.9C348.6,88.4,304.4,69.8,256,69.8s-92.7,18.7-125.8,49.1
		L96.3,85C138.2,45.9,194.4,21.9,256,21.9z"/>
	<path class="map-path st11" d="M85,96.3l33.9,33.9c-28.8,31.3-47,72.6-48.9,117.9H22.1C24.1,189.5,47.6,136.4,85,96.3z"/>
	<path class="map-path st11" d="M264,489.9v-47.9c71.2-3,132.1-46.2,160.7-107.4l44.2,18.4C433.1,431.4,355.1,486.9,264,489.9z"/>
	<path class="map-path st11" d="M475.1,338.1l-44.2-18.4c6.4-17.6,10.3-36.3,11.1-55.9H490C489,290,483.8,314.9,475.1,338.1z"/>
</g>
<g>
	<path class="map-path st12" d="M432.8,79.2C385.6,32,322.8,6,256,6S126.4,32,79.2,79.2C32,126.4,6,189.2,6,256s26,129.6,73.2,176.8
		C126.5,480,189.2,506,256,506s129.6-26,176.8-73.2C480,385.5,506,322.8,506,256S480,126.4,432.8,79.2z"/>
	<path class="map-path st12" d="M147,386.6c-3.4-2.8-8.4-2.3-11.2,1c-2.8,3.4-2.3,8.4,1,11.2c31.3,26.3,70.6,41.4,111.3,43.2v47.9
		c-122.8-4-221.9-103.1-226-225.8H70c1.8,40.7,16.9,79.9,43.2,111.3c2.8,3.4,7.8,3.8,11.2,1c3.4-2.8,3.8-7.8,1-11.2
		C99.8,334.5,85.8,295.7,85.8,256c0-93.8,76.4-170.2,170.2-170.2S426.2,162.2,426.2,256S349.8,426.2,256,426.2
		C216.3,426.2,177.5,412.2,147,386.6z"/>
	<circle class="st12" cx="256" cy="256" r="143.7"/>
</g>
<g>
	<path class="map-path st13" d="M228.5,131.4c-4.4,6.9-8.4,15.7-11.9,26.3c-1.6,4.7-3,9.7-4.3,14.8c-11.8-4.3-23-10.4-33.2-18.2
		C193.4,143.3,210.2,135.4,228.5,131.4z"/>
	<path class="map-path st13" d="M166.6,164.9c12.7,10.2,27,18,42.1,23.2c-3.4,18.3-5.5,38.7-5.9,59.9h-74.3
		C130.6,215.6,144.8,186.4,166.6,164.9z"/>
	<path class="map-path st13" d="M128.6,264h74.3c0.4,21.2,2.4,41.6,5.9,59.9c-15.1,5.3-29.4,13.1-42.1,23.2C144.8,325.6,130.6,296.4,128.6,264
		z"/>
	<path class="map-path st13" d="M178.9,357.8c10.2-7.7,21.4-13.8,33.2-18.2c1.3,5.2,2.7,10.2,4.3,14.8c3.5,10.5,7.5,19.3,11.9,26.3
		C210.2,376.6,193.4,368.7,178.9,357.8z"/>
</g>
<g>
	<path class="map-path st14" d="M256,128.4c6.2,0,15.9,9,24.4,34.3c1.5,4.5,2.8,9.3,4.1,14.4c-9.3,2.1-18.8,3.2-28.5,3.2s-19.2-1.1-28.5-3.2
		c1.3-5,2.6-9.8,4.1-14.4C240.1,137.3,249.8,128.4,256,128.4z"/>
	<path class="map-path st14" d="M218.9,248c0.4-19.7,2.2-38.6,5.3-55.5c10.4,2.3,21.1,3.6,31.8,3.6s21.5-1.3,31.8-3.6
		c3.1,16.9,4.9,35.7,5.3,55.5H218.9z"/>
	<path class="map-path st14" d="M293.1,264c-0.4,19.7-2.2,38.6-5.3,55.5c-10.4-2.3-21.1-3.6-31.8-3.6s-21.5,1.3-31.8,3.6
		c-3.1-16.9-4.9-35.7-5.3-55.5H293.1z"/>
	<path class="map-path st14" d="M256,383.6c-6.2,0-15.9-9-24.4-34.3c-1.5-4.5-2.8-9.3-4.1-14.4c9.3-2.1,18.8-3.2,28.5-3.2s19.2,1.1,28.5,3.2
		c-1.3,5-2.6,9.8-4.1,14.4C271.9,374.7,262.2,383.6,256,383.6z"/>
</g>
<g>
	<path class="map-path st15" d="M383.4,248h-74.3c-0.4-21.2-2.4-41.6-5.9-59.9c15.1-5.3,29.4-13.1,42.1-23.2
		C367.2,186.4,381.4,215.6,383.4,248z"/>
	<path class="map-path st15" d="M333.1,154.2c-10.2,7.7-21.4,13.8-33.2,18.2c-1.3-5.2-2.7-10.2-4.3-14.8c-3.5-10.5-7.5-19.3-11.9-26.3
		C301.8,135.4,318.6,143.3,333.1,154.2z"/>
	<path class="map-path st15" d="M283.5,380.6c4.4-6.9,8.4-15.7,11.9-26.3c1.6-4.7,3-9.7,4.3-14.8c11.8,4.3,23,10.4,33.2,18.2
		C318.6,368.7,301.8,376.6,283.5,380.6z"/>
	<path class="map-path st15" d="M345.4,347.1c-12.7-10.2-27-18-42.1-23.2c3.4-18.3,5.5-38.7,5.9-59.9h74.3
		C381.4,296.4,367.2,325.6,345.4,347.1z"/>
</g>
</svg>
