<?xml version="1.0" encoding="utf-8"?>
<!-- Generator: Adobe Illustrator 23.0.1, SVG Export Plug-In . SVG Version: 6.00 Build 0)  -->
<svg version="1.1" id="Layer_1" xmlns="http://www.w3.org/2000/svg" xmlns:xlink="http://www.w3.org/1999/xlink" x="0px" y="0px"
	 viewBox="0 0 512 512" style="enable-background:new 0 0 512 512;" xml:space="preserve">
<style type="text/css">
	.st0{fill:#FFFFFF;}
	.st1{fill:#E9242F;}
</style>
<title>Element 2</title>
<g id="Ebene_2">
	<g id="Capa_1">
		<circle class="st0" cx="256" cy="256" r="256"/>
		<g>
			<path class="st1" d="M200.1,268.7v-18.5c5.9-1.5,11.6-3.9,16.9-7l13.1,13.1c2.1,2.1,5.6,2.1,7.7,0l15.4-15.4
				c2.1-2.1,2.1-5.6,0-7.7l-13.1-13c3.1-5.3,5.5-11,7-16.9h18.5c3,0,5.5-2.4,5.5-5.5v-21.9c0-3-2.4-5.5-5.5-5.5h-18.5
				c-1.5-5.9-3.9-11.6-7-16.9l13.1-13.1c2.1-2.1,2.1-5.6,0-7.7l-15.4-15.4c-2.1-2.1-5.6-2.1-7.7,0L217,130.4c-5.3-3.1-11-5.5-16.9-7
				v-18.5c0-3-2.4-5.5-5.5-5.5l0,0h-21.8c-3,0-5.5,2.4-5.5,5.4c0,0,0,0,0,0v18.5c-5.9,1.5-11.6,3.9-16.9,7l-13.1-13.1
				c-2.1-2.1-5.6-2.1-7.7,0l-15.4,15.4c-2.1,2.1-2.1,5.6,0,7.7l13.1,13.1c-3.1,5.3-5.5,11-7,16.9h-18.5c-3,0-5.5,2.4-5.5,5.4
				c0,0,0,0,0,0v21.8c0,3,2.4,5.5,5.4,5.5c0,0,0,0,0,0h18.5c1.5,5.9,3.9,11.6,7,16.9l-13.1,13.1c-2.1,2.1-2.1,5.6,0,7.7l15.4,15.5
				c2.1,2.1,5.6,2.1,7.7,0l13.1-13.1c5.3,3.1,11,5.5,16.9,7v18.5c0,3,2.4,5.5,5.4,5.5c0,0,0,0,0,0h21.8
				C197.7,274.1,200.1,271.7,200.1,268.7z M189.2,245.8v17.4h-10.9v-17.4c0-2.6-1.9-4.9-4.5-5.4c-7.5-1.4-14.7-4.3-21-8.7
				c-2.2-1.5-5.1-1.2-7,0.6l-12.3,12.3l-7.7-7.7l12.3-12.3c1.9-1.9,2.2-4.8,0.6-7c-4.3-6.3-7.3-13.5-8.7-21
				c-0.5-2.6-2.7-4.5-5.4-4.5h-17.4v-10.9h17.4c2.6,0,4.9-1.9,5.4-4.5c1.4-7.5,4.3-14.7,8.7-21c1.5-2.2,1.3-5.1-0.6-7l-12.3-12.3
				l7.7-7.7l12.3,12.3c1.9,1.9,4.8,2.2,7,0.6c6.3-4.4,13.5-7.3,21-8.7c2.6-0.5,4.5-2.7,4.5-5.4v-17.4h10.9v17.4
				c0,2.6,1.9,4.9,4.5,5.4c7.5,1.4,14.7,4.3,21,8.7c2.2,1.5,5.1,1.2,7-0.6l12.3-12.3l7.7,7.7l-12.3,12.3c-1.9,1.9-2.2,4.8-0.6,7
				c4.4,6.3,7.3,13.5,8.7,21c0.5,2.6,2.7,4.5,5.4,4.5h17.4v10.9h-17.5c-2.6,0-4.9,1.9-5.4,4.5c-1.4,7.5-4.3,14.7-8.7,21
				c-1.5,2.2-1.2,5.1,0.6,7l12.3,12.2l-7.7,7.7l-12.3-12.3c-1.9-1.9-4.8-2.1-6.9-0.6c-6.3,4.3-13.5,7.3-21,8.7
				C191.1,240.9,189.2,243.2,189.2,245.8L189.2,245.8z"/>
			<path class="st1" d="M183.7,143.1c-24.1,0-43.7,19.6-43.7,43.7s19.6,43.7,43.7,43.7s43.7-19.6,43.7-43.7
				C227.4,162.7,207.9,143.1,183.7,143.1C183.7,143.1,183.7,143.1,183.7,143.1z M183.7,219.6c-18.1,0-32.8-14.7-32.8-32.8
				c0-18.1,14.7-32.8,32.8-32.8c18.1,0,32.8,14.7,32.8,32.8c0,0,0,0,0,0C216.5,204.9,201.8,219.6,183.7,219.6z"/>
			<path class="st1" d="M183.7,170.4c-9,0-16.4,7.3-16.4,16.4s7.3,16.4,16.4,16.4c9,0,16.4-7.3,16.4-16.4S192.8,170.4,183.7,170.4
				C183.7,170.4,183.7,170.4,183.7,170.4z M183.7,192.3c-3,0-5.5-2.4-5.5-5.5s2.4-5.5,5.5-5.5s5.5,2.4,5.5,5.5
				C189.2,189.8,186.7,192.3,183.7,192.3C183.7,192.3,183.7,192.3,183.7,192.3z"/>
			<path class="st1" d="M309.3,334.2h-14.1l-0.3-0.7l10-10c2.1-2.1,2.1-5.6,0-7.7l-15.4-15.5c-2.1-2.1-5.6-2.1-7.7,0l-10,10
				l-0.7-0.3V296c0-3-2.4-5.5-5.5-5.5h-21.8c-3,0-5.5,2.4-5.5,5.5v14.1l-0.7,0.3l-10-10c-2.1-2.1-5.6-2.1-7.7,0l-15.4,15.5
				c-2.1,2.1-2.1,5.6,0,7.7l10,10l-0.3,0.7h-14.1c-3,0-5.5,2.4-5.5,5.5v21.8c0,3,2.4,5.5,5.4,5.5c0,0,0,0,0,0h14.1l0.3,0.7l-10,10
				c-2.1,2.1-2.1,5.6,0,7.7l15.5,15.4c2.1,2.1,5.6,2.1,7.7,0c0,0,0,0,0,0l10-10l0.7,0.3v14.1c0,3,2.4,5.5,5.4,5.5c0,0,0,0,0,0h21.8
				c3,0,5.5-2.4,5.5-5.5v-14.1l0.7-0.3l10,10c2.1,2.1,5.6,2.1,7.7,0c0,0,0,0,0,0l15.4-15.4c2.1-2.1,2.1-5.6,0-7.7l-10-10l0.3-0.7h14
				c3,0,5.5-2.4,5.5-5.5v-21.8C314.8,336.7,312.3,334.2,309.3,334.2z M303.8,356.1h-12.5c-2.4,0-4.5,1.6-5.2,3.9
				c-0.6,2.2-1.5,4.2-2.6,6.2c-1.2,2.1-0.8,4.8,0.9,6.5l8.9,8.8l-7.7,7.7l-8.9-8.8c-1.7-1.7-4.3-2.1-6.5-0.9c-2,1.1-4.1,1.9-6.2,2.6
				c-2.3,0.7-3.9,2.8-3.9,5.2v12.5h-10.9v-12.5c0-2.4-1.6-4.5-3.9-5.2c-2.2-0.6-4.2-1.5-6.2-2.6c-2.1-1.2-4.8-0.8-6.5,0.9l-8.9,8.8
				l-7.7-7.7l8.8-8.8c1.7-1.7,2.1-4.3,0.9-6.5c-1.1-2-1.9-4.1-2.6-6.2c-0.7-2.3-2.8-3.9-5.2-3.9h-12.5v-10.9h12.5
				c2.4,0,4.5-1.6,5.2-3.9c0.6-2.2,1.5-4.2,2.6-6.2c1.2-2.1,0.8-4.8-0.9-6.5l-8.8-8.9l7.7-7.7l8.9,8.8c1.7,1.7,4.3,2.1,6.5,0.9
				c2-1.1,4.1-1.9,6.2-2.6c2.3-0.7,3.9-2.8,3.9-5.2v-12.5h10.9V314c0,2.4,1.6,4.5,3.9,5.2c2.2,0.6,4.2,1.5,6.2,2.6
				c2.1,1.2,4.8,0.8,6.5-0.9l8.9-8.8l7.7,7.7l-8.9,8.9c-1.7,1.7-2.1,4.3-0.9,6.5c1.1,2,1.9,4.1,2.6,6.2c0.7,2.3,2.8,3.9,5.2,3.9
				h12.5L303.8,356.1z"/>
			<path class="st1" d="M254.7,328.8c-12.1,0-21.8,9.8-21.8,21.8c0,12.1,9.8,21.8,21.8,21.8c12.1,0,21.8-9.8,21.8-21.8
				S266.8,328.8,254.7,328.8C254.7,328.8,254.7,328.8,254.7,328.8z M254.7,361.5c-6,0-10.9-4.9-10.9-10.9c0-6,4.9-10.9,10.9-10.9
				c6,0,10.9,4.9,10.9,10.9S260.7,361.5,254.7,361.5L254.7,361.5z"/>
			<path class="st1" d="M353,214.1c-12.1,0-21.8,9.8-21.8,21.8c0,12.1,9.8,21.8,21.8,21.8s21.8-9.8,21.8-21.8S365,214.1,353,214.1
				C353,214.1,353,214.1,353,214.1z M353,246.9c-6,0-10.9-4.9-10.9-10.9c0-6,4.9-10.9,10.9-10.9c6,0,10.9,4.9,10.9,10.9
				S359,246.9,353,246.9L353,246.9z"/>
			<path class="st1" d="M418.5,219.6h-19.2c-0.6-1.6-1.3-3.2-2-4.8l13.6-13.6c2.1-2.1,2.1-5.6,0-7.7L395.5,178
				c-2.1-2.1-5.6-2.1-7.7,0l-13.6,13.6c-1.6-0.7-3.1-1.4-4.8-2v-19.2c0-3-2.5-5.4-5.5-5.4h-21.8c-3,0-5.5,2.4-5.5,5.4c0,0,0,0,0,0
				v19.2c-1.6,0.6-3.2,1.3-4.8,2L318.2,178c-2.1-2.1-5.6-2.1-7.7,0l-15.4,15.4c-2.1,2.1-2.1,5.6,0,7.7l13.6,13.6
				c-0.7,1.6-1.4,3.1-2,4.8h-19.2c-3,0-5.5,2.4-5.5,5.5c0,0,0,0,0,0v21.8c0,3,2.4,5.5,5.4,5.5c0,0,0,0,0,0h19.2
				c0.6,1.6,1.2,3.2,2,4.8l-13.6,13.6c-2.1,2.1-2.1,5.6,0,7.7l15.4,15.4c2.1,2.1,5.6,2.1,7.7,0l13.6-13.6c1.6,0.7,3.1,1.4,4.8,2
				v19.2c0,3,2.4,5.5,5.4,5.5c0,0,0,0,0,0h21.8c3,0,5.5-2.4,5.5-5.4c0,0,0,0,0,0v-19.2c1.6-0.6,3.2-1.3,4.8-2l13.6,13.6
				c2.1,2.1,5.6,2.1,7.7,0l15.4-15.4c2.1-2.1,2.1-5.6,0-7.7l-13.6-13.6c0.8-1.6,1.4-3.1,2-4.8h19.2c3,0,5.5-2.4,5.5-5.4c0,0,0,0,0,0
				V225C423.9,222,421.5,219.6,418.5,219.6z M413,241.4h-17.8c-2.5,0-4.7,1.7-5.3,4.1c-0.9,3.4-2.3,6.8-4.1,9.8
				c-1.3,2.1-0.9,4.9,0.9,6.6l12.6,12.6l-7.7,7.7L379,269.7c-1.8-1.8-4.5-2.1-6.6-0.9c-3.1,1.8-6.4,3.2-9.8,4.1
				c-2.4,0.6-4.1,2.8-4.1,5.3V296h-10.9v-17.8c0-2.5-1.7-4.7-4.1-5.3c-3.5-0.9-6.8-2.3-9.8-4.1c-2.1-1.3-4.9-0.9-6.6,0.9l-12.6,12.6
				l-7.7-7.7l12.6-12.6c1.8-1.8,2.1-4.5,0.8-6.6c-1.8-3.1-3.2-6.4-4.1-9.8c-0.6-2.4-2.8-4.1-5.3-4.1h-17.8v-11h17.8
				c2.5,0,4.7-1.7,5.3-4.1c0.9-3.4,2.3-6.8,4.1-9.8c1.3-2.1,0.9-4.9-0.9-6.6l-12.6-12.6l7.7-7.7l12.6,12.6c1.8,1.8,4.5,2.1,6.6,0.8
				c3.1-1.8,6.4-3.2,9.8-4.1c2.4-0.6,4.1-2.8,4.1-5.3v-17.8h10.9v17.8c0,2.5,1.7,4.7,4.1,5.3c3.4,0.9,6.8,2.3,9.8,4.1
				c2.1,1.3,4.9,0.9,6.6-0.9l12.6-12.6l7.7,7.7l-12.6,12.6c-1.8,1.8-2.1,4.5-0.9,6.6c1.8,3.1,3.2,6.4,4.1,9.8
				c0.6,2.4,2.8,4.1,5.3,4.1H413V241.4z"/>
		</g>
	</g>
</g>
</svg>
