<?xml version="1.0" encoding="utf-8"?>
<!-- Generator: Adobe Illustrator 23.0.1, SVG Export Plug-In . SVG Version: 6.00 Build 0)  -->
<svg version="1.1" id="Ebene_1" xmlns="http://www.w3.org/2000/svg" xmlns:xlink="http://www.w3.org/1999/xlink" x="0px" y="0px"
	 viewBox="0 0 512 512" style="enable-background:new 0 0 512 512;" xml:space="preserve">
<style type="text/css">
	.st0{fill:none;stroke:#24E9BC;stroke-width:3;stroke-miterlimit:10;}
</style>
<path class="st0" d="M49.5,165.2h33v16.5h-33V165.2z"/>
<path class="st0" d="M487.2,132.1c13.7,0,24.8-11.1,24.8-24.8V24.8C512,11.1,500.9,0,487.2,0H371.6c-13.7,0-24.8,11.1-24.8,24.8
	v82.6c0,13.7,11.1,24.8,24.8,24.8h24.8v16.5h-16.5v16.5h41.3v82.6h-34.1c-6.6-6.4-14.7-11.4-23.8-14.1c0-0.8,0.1-1.6,0.1-2.5
	c0-36.4-29.6-66.1-66.1-66.1c-22.6,0-43.6,11.8-55.6,30.6c-8.5-3.8-17.6-5.8-26.9-5.8c-27.4,0-52.1,17.3-61.7,42.6
	c-6.3,1.3-12.1,3.8-17.4,6.9H74.3v-24.8h33c13.7,0,24.8-11.1,24.8-24.8v-165C132.1,11.1,121,0,107.4,0H24.8C11.1,0,0,11.1,0,24.8
	V190c0,13.7,11.1,24.8,24.8,24.8h33V256H118c-3.5,5-6.2,10.5-8,16.5H74.3v90.8h-33c-13.7,0-24.8,11.1-24.8,24.8v74.3H0v24.8
	C0,500.9,11.1,512,24.8,512h132.1c13.7,0,24.8-11.1,24.8-24.8v-24.8h-16.5v-74.3c0-13.7-11.1-24.8-24.8-24.8H90.8V289h16.5
	c0,31.9,25.9,57.8,57.8,57.8h181.7c29.1,0,53.1-21.6,57.1-49.5h33.7v66.1h-57.8V512H512V363.4h-57.8v-82.6H404
	c-0.9-5.8-2.6-11.3-5.1-16.5h38.9v-99.1H479v-16.5h-16.5v-16.5L487.2,132.1L487.2,132.1z M115.6,132.1H16.5V49.5h99.1V132.1z
	 M24.8,16.5h82.6c4.6,0,8.3,3.7,8.3,8.3V33H16.5v-8.3C16.5,20.2,20.2,16.5,24.8,16.5z M16.5,189.9v-41.3h99.1v41.3
	c0,4.6-3.7,8.3-8.3,8.3H24.8C20.2,198.2,16.5,194.5,16.5,189.9z M165.2,487.2c0,4.6-3.7,8.3-8.3,8.3H24.8c-4.6,0-8.3-3.7-8.3-8.3
	V479h148.6L165.2,487.2L165.2,487.2z M148.6,388.1v74.3H33v-74.3c0-4.6,3.7-8.3,8.3-8.3h99.1C144.9,379.9,148.6,383.6,148.6,388.1z
	 M396.4,495.5V446h99.1v49.5H396.4z M495.5,429.4h-99.1v-49.5h99.1V429.4z M346.8,330.3H165.2c-22.8,0-41.3-18.5-41.3-41.3
	c0-20.9,15.6-38.5,36.3-41l5.4-0.7l1.5-5.2c6.1-21,25.7-35.7,47.6-35.7c9.1,0,18.1,2.6,25.9,7.4l7.9,4.9l3.9-8.4
	c8.1-17.4,25.7-28.6,44.9-28.6c27.3,0,49.5,22.2,49.5,49.5c0,2.3-0.2,4.7-0.7,7.6l-1.2,8.2l8.2,1.2c20,3,35,20.6,35,40.8
	C388.1,311.8,369.6,330.3,346.8,330.3z M371.6,16.5h115.6c4.6,0,8.3,3.7,8.3,8.3v57.8H363.4V24.8C363.4,20.2,367.1,16.5,371.6,16.5z
	 M363.4,107.4v-8.3h132.1v8.3c0,4.6-3.7,8.3-8.3,8.3H371.6C367.1,115.6,363.4,111.9,363.4,107.4z M445.9,148.6h-33v-16.5h33V148.6z"
	/>
<path class="st0" d="M412.9,396.4h16.5v16.5h-16.5V396.4z"/>
<path class="st0" d="M462.5,462.5H479V479h-16.5V462.5z"/>
<path class="st0" d="M445.9,396.4h33v16.5h-33V396.4z"/>
<path class="st0" d="M412.9,462.5h33V479h-33V462.5z"/>
</svg>
