<svg xmlns="http://www.w3.org/2000/svg" viewBox="0 0 512 512">
  <defs>
    <style>
      .cls-1 {
        fill: #252a4c;
      }

      .cls-2 {
        fill: #fff;
      }
    </style>
  </defs>
  <title>Element 4</title>
  <g id="Ebene_2" data-name="Ebene 2">
    <g id="Capa_1" data-name="Capa 1">
      <circle class="cls-1" cx="256" cy="256" r="256"/>
      <path class="cls-2" d="M367.92,196.94a12.21,12.21,0,0,0,12.2-12.2V144.08a12.21,12.21,0,0,0-12.2-12.2H311a12.22,12.22,0,0,0-12.2,12.2v40.66a12.22,12.22,0,0,0,12.2,12.2h12.2v8.14h-8.13v8.13h20.33v40.66H318.61A28.49,28.49,0,0,0,306.9,247c0-.41,0-.81,0-1.21A32.51,32.51,0,0,0,247,228.26a32.23,32.23,0,0,0-13.26-2.85,32.7,32.7,0,0,0-30.4,21,28.14,28.14,0,0,0-8.59,3.42H164.6v-12.2h16.26a12.22,12.22,0,0,0,12.2-12.2V144.08a12.21,12.21,0,0,0-12.2-12.2H140.2a12.21,12.21,0,0,0-12.2,12.2v81.33a12.22,12.22,0,0,0,12.2,12.2h16.27v20.33h29.62a28.26,28.26,0,0,0-4,8.13H164.6V310.8H148.33a12.22,12.22,0,0,0-12.2,12.2v36.6H128v12.2A12.21,12.21,0,0,0,140.2,384h65.06a12.21,12.21,0,0,0,12.2-12.2V359.6h-8.13V323a12.22,12.22,0,0,0-12.2-12.2h-24.4V274.21h8.13a28.5,28.5,0,0,0,28.47,28.46h89.46a28.48,28.48,0,0,0,28.14-24.4h16.59V310.8H315.06V384h65.06V310.8H351.66V270.14H326.92a28.29,28.29,0,0,0-2.53-8.13h19.13v-48.8h20.34v-8.13h-8.14v-8.14Zm-183,0h-48.8V156.28h48.8ZM140.2,140h40.66a4.07,4.07,0,0,1,4.07,4.07v4.06h-48.8v-4.06A4.07,4.07,0,0,1,140.2,140Zm-4.07,85.4V205.08h48.8v20.33a4.07,4.07,0,0,1-4.07,4.06H140.2A4.07,4.07,0,0,1,136.13,225.41Zm73.2,146.39a4.07,4.07,0,0,1-4.07,4.07H140.2a4.08,4.08,0,0,1-4.07-4.07v-4.07h73.2ZM201.2,323v36.6H144.27V323a4.06,4.06,0,0,1,4.06-4.06h48.8A4.07,4.07,0,0,1,201.2,323Zm122,52.87v-24.4H372v24.4ZM372,343.34h-48.8v-24.4H372Zm-73.2-48.8H209.33a20.32,20.32,0,0,1-2.44-40.5l2.67-.33.75-2.58a24.33,24.33,0,0,1,36.18-13.95l3.88,2.39,1.94-4.13a24.34,24.34,0,0,1,46.16,14.06l-.61,4,4,.61a20.32,20.32,0,0,1-3.09,40.41ZM311,140h56.93a4.07,4.07,0,0,1,4.07,4.07v28.46H306.92V144.08A4.07,4.07,0,0,1,311,140Zm-4.07,44.73v-4.06H372v4.06a4.07,4.07,0,0,1-4.07,4.07H311A4.07,4.07,0,0,1,306.92,184.74Zm40.67,20.34H331.32v-8.14h16.27Z"/>
    </g>
  </g>
</svg>
