<?xml version="1.0" encoding="utf-8"?>
<!-- Generator: Adobe Illustrator 23.0.1, SVG Export Plug-In . SVG Version: 6.00 Build 0)  -->
<svg version="1.1" id="Layer_1" xmlns="http://www.w3.org/2000/svg" xmlns:xlink="http://www.w3.org/1999/xlink" x="0px" y="0px"
	 viewBox="0 0 512 512" style="enable-background:new 0 0 512 512;" xml:space="preserve">
<style type="text/css">
	.st0{fill:#FFFFFF;}
	.st1{fill:#FE7F2D;}
</style>
<title>Element 7</title>
<g id="Ebene_2">
	<g id="Capa_1">
		<circle class="st0" cx="256" cy="256" r="256"/>
		<g id="Ebene_2-2">
			<path class="st1" d="M228.2,170.1c-12,0-21.7,9.7-21.7,21.7s9.7,21.7,21.7,21.7s21.7-9.7,21.7-21.7l0,0
				C249.9,179.9,240.2,170.1,228.2,170.1z M228.2,202.7c-6,0-10.8-4.8-10.8-10.8c0-6,4.8-10.8,10.8-10.8c0,0,0,0,0,0V181
				c6,0,10.9,4.9,10.9,10.9C239,197.9,234.2,202.7,228.2,202.7L228.2,202.7z"/>
			<path class="st1" d="M290.3,170.1c-12,0-21.7,9.7-21.8,21.7c0,12,9.7,21.7,21.7,21.8c12,0,21.7-9.7,21.8-21.7c0,0,0,0,0,0
				C312,179.9,302.3,170.2,290.3,170.1z M290.3,202.7c-6,0-10.8-4.8-10.8-10.8c0-6,4.8-10.8,10.8-10.8c0,0,0,0,0,0V181
				c6,0,10.9,4.9,10.9,10.9C301.2,197.9,296.3,202.7,290.3,202.7L290.3,202.7z"/>
			<path class="st1" d="M356.6,195.1c-2.3-12.9-12.7-22.8-25.7-24.6c-3.6-13.2-13.9-24.6-34.7-24.6h-31.5v-12
				c9.5-3,14.8-13.2,11.8-22.7s-13.2-14.8-22.7-11.8c-9.5,3-14.8,13.2-11.8,22.7c1.8,5.6,6.2,10,11.8,11.8v11.7h-31.5
				c-14.7,0-30.1,6.7-34.8,24.6c-16.6,2.3-28.1,17.6-25.8,34.1c1.8,13,11.7,23.3,24.6,25.6v0.3c1.6,23.9,19.3,32.6,36,32.6h73.9
				c24.8,0,34.8-16.3,36-32.6C348.6,227.3,359.5,211.6,356.6,195.1z M186.1,219.5c-10.3-3-16.2-13.7-13.2-23.9
				c1.8-6.4,6.8-11.4,13.2-13.2V219.5z M252,117.1c0-4,3.2-7.2,7.2-7.2c4,0,7.2,3.2,7.2,7.2s-3.2,7.2-7.2,7.2c0,0,0,0,0,0
				C255.2,124.3,252,121.1,252,117.1z M321.5,226.4c0,9.4-3.3,25.3-25.3,25.3h-73.8c-9.4,0-25.3-3.3-25.3-25.3l0-44.1
				c0-22.1,15.9-25.3,25.3-25.3h73.9c22.1,0,25.3,15.9,25.3,25.3L321.5,226.4z M332.1,219.1v-37.2c10.3,2.9,16.2,13.7,13.2,23.9
				C343.6,212.2,338.6,217.3,332.1,219.1z"/>
			<path class="st1" d="M290.3,228.4h-62.1c-3-0.1-5.5,2.2-5.7,5.2s2.2,5.5,5.2,5.7c0.2,0,0.3,0,0.5,0h62.1c3-0.1,5.3-2.7,5.2-5.7
				C295.4,230.8,293.1,228.5,290.3,228.4z"/>
			<path class="st1" d="M380.1,273.1L380.1,273.1c-0.1-11.6-9.6-21-21.2-20.9c-9.8,0.1-18.2,6.8-20.4,16.3l-14.5,2.8H194.5
				l-14.5-2.8c-2.5-11.4-13.7-18.6-25.1-16.1c-11.4,2.5-18.6,13.7-16.1,25.1c1.7,7.7,7.6,13.8,15.2,15.9V334
				c-9.2,2.5-15.6,10.8-15.6,20.3v9.6c0,3,2.4,5.4,5.4,5.4c3,0,5.4-2.4,5.4-5.4v-9.7c0.2-5.6,4.9-10.1,10.5-9.9
				c5.4,0.2,9.7,4.5,9.9,9.9v9.7c0.1,3,2.7,5.3,5.7,5.2c2.8-0.1,5.1-2.4,5.2-5.2v-9.7c-0.1-9.5-6.5-17.8-15.7-20.2v-40.6
				c6.9-1.9,12.4-7.1,14.6-13.9l9.1,1.8v67c0,9.8,2.1,19.5,6.1,28.5v0.5c16,35.6,57.9,51.4,93.4,35.3c15.7-7.1,28.3-19.6,35.3-35.3
				l0.3-0.6c4-8.9,6.2-18.6,6.2-28.4v-67l9.1-1.8c2.2,6.8,7.7,12.1,14.6,13.9V334c-9.2,2.4-15.6,10.7-15.6,20.3v9.7
				c0.1,3,2.7,5.3,5.7,5.2c2.8-0.1,5.1-2.4,5.2-5.2v-9.7c0.2-5.6,4.9-10.1,10.5-9.9c5.4,0.2,9.7,4.5,9.9,9.9v9.7
				c0,3,2.4,5.4,5.4,5.4s5.4-2.4,5.4-5.4c0,0,0,0,0,0v-9.7c0-9.5-6.5-17.8-15.6-20.3v-40.6C373.6,290.9,380.1,282.6,380.1,273.1z
				 M159.4,283.3c-5.6,0-10.2-4.6-10.2-10.2c0-5.6,4.6-10.2,10.2-10.2c5.6,0,10.2,4.6,10.2,10.2c0,0,0,0,0,0
				C169.6,278.7,165.1,283.3,159.4,283.3z M259.2,408.1c-20.5,0-39.5-10.5-50.5-27.8h101C298.7,397.6,279.7,408.1,259.2,408.1
				L259.2,408.1z M319,348.4c0,7.2-1.4,14.4-4,21.2H203.3c-2.6-6.8-4-13.9-4-21.2v-66.1H319V348.4z M359.1,283.4H359l-0.1-0.2
				c-2.9-2.8-2.9-7.4-0.1-10.2c2.8-2.9,7.4-2.9,10.2-0.1c2.9,2.8,2.9,7.4,0.1,10.2C366.4,285.8,361.9,286,359.1,283.4L359.1,283.4z"
				/>
			<path class="st1" d="M278.5,320.6c-1-0.9-2.3-1.4-3.6-1.4h-16.3l20-20.5c1.9-2.3,1.6-5.7-0.6-7.7c-2.1-1.7-5.1-1.7-7.1,0.1
				l-29,29.8c-2.1,2.1-2.1,5.6,0.1,7.7c1,1,2.4,1.6,3.8,1.5h16.7L241.9,353c-2,2.2-1.8,5.6,0.4,7.7c0,0,0,0,0,0l0,0
				c2.2,2,5.6,1.8,7.7-0.4l29-32.1C280.9,326,280.7,322.6,278.5,320.6z"/>
		</g>
	</g>
</g>
</svg>
