<?xml version="1.0" encoding="utf-8"?>
<!-- Generator: Adobe Illustrator 23.0.1, SVG Export Plug-In . SVG Version: 6.00 Build 0)  -->
<svg version="1.1" id="Capa_1" xmlns="http://www.w3.org/2000/svg" xmlns:xlink="http://www.w3.org/1999/xlink" x="0px" y="0px"
	 viewBox="0 0 512 512" style="enable-background:new 0 0 512 512;" xml:space="preserve">
<style type="text/css">
	.st0{fill:none;stroke:#EA6B32;stroke-width:3;stroke-miterlimit:10;}
</style>
<path class="st0" d="M286.8,354.8c-1.6-1.4-3.7-2.2-5.8-2.2h-26.1l32-32.8c3.1-3.7,2.6-9.2-1.1-12.2c-3.3-2.7-8.1-2.7-11.3,0.2
	l-46.3,47.6c-3.4,3.4-3.3,8.9,0.1,12.3c1.6,1.6,3.8,2.5,6.1,2.5h26.8l-32.9,36.7c-3.2,3.6-2.9,9,0.6,12.2l0,0
	c3.6,3.2,9,2.9,12.2-0.6l46.3-51.3C290.6,363.5,290.3,358,286.8,354.8z"/>
<path class="st0" d="M449.3,278.8L449.3,278.8c-0.2-18.6-15.4-33.6-34-33.4c-15.6,0.1-29,10.9-32.5,26.1l-23.2,4.5H152.5l-23.2-4.5
	c-4-18.2-21.9-29.7-40.1-25.7s-29.7,21.9-25.7,40.1c2.7,12.4,12.1,22.2,24.3,25.4v64.9c-14.7,3.9-24.9,17.2-25,32.4V424
	c0,4.8,3.9,8.7,8.7,8.7s8.7-3.9,8.7-8.7v-15.5c0-9,7.3-16.3,16.3-16.3s16.3,7.3,16.3,16.3V424c0,4.8,3.9,8.7,8.7,8.7
	s8.7-3.9,8.7-8.7v-15.5c-0.1-15.2-10.3-28.5-25-32.4v-64.9c11-3,19.8-11.4,23.3-22.2l14.5,2.9v107.2c0,15.7,3.3,31.3,9.7,45.6v0.8
	c25.6,56.9,92.5,82.2,149.4,56.5c25.1-11.3,45.2-31.4,56.5-56.5l0.4-1c6.5-14.3,9.9-29.8,10-45.4V291.9l14.5-2.9
	c3.5,10.9,12.2,19.3,23.3,22.2v64.9c-14.7,3.9-24.9,17.2-25,32.4V424c0,4.8,3.9,8.7,8.7,8.7s8.7-3.9,8.7-8.7v-15.5
	c0-9,7.3-16.3,16.3-16.3c9,0,16.3,7.3,16.3,16.3V424c0,4.8,3.9,8.7,8.7,8.7c4.8,0,8.7-3.9,8.7-8.7v-15.5
	c-0.1-15.2-10.3-28.5-25-32.4v-64.9C438.9,307.4,449.3,294.1,449.3,278.8z M96.5,295.2c-9,0-16.3-7.3-16.3-16.3s7.3-16.3,16.3-16.3
	s16.3,7.3,16.3,16.3C112.8,287.9,105.5,295.2,96.5,295.2z M256,494.7c-32.7,0-63.2-16.8-80.7-44.4h161.4
	C319.2,478,288.8,494.7,256,494.7z M351.6,399.2c0,11.6-2.2,23.1-6.3,33.9H166.7c-4.2-10.8-6.3-22.3-6.3-33.9V293.4h191.3V399.2z
	 M415.7,295.2C415.7,295.2,415.7,295.2,415.7,295.2l-0.3-0.3c-9,0-16.3-7.3-16.3-16.3s7.3-16.3,16.3-16.3c9,0,16.3,7.3,16.3,16.3
	C431.9,287.6,424.7,295,415.7,295.2z"/>
<path class="st0" d="M305.7,207.3h-99.4c-4.8,0-8.7,3.9-8.7,8.7c0,4.8,3.9,8.7,8.7,8.7h99.4c4.8,0,8.7-3.9,8.7-8.7
	C314.4,211.2,310.5,207.3,305.7,207.3z"/>
<path class="st0" d="M411.7,154.2c-3.7-20.6-20.4-36.5-41.1-39.3c-5.7-21.2-22.2-39.3-55.4-39.3h-50.4V56.5
	c15.2-4.8,23.7-21,18.9-36.3c-4.8-15.2-21-23.7-36.3-18.9c-15.2,4.8-23.7,21-18.9,36.3c2.8,9,9.9,16.1,18.9,18.9v18.7h-50.3
	c-23.5,0-48.1,10.8-55.6,39.3c-26.5,3.6-45,28-41.4,54.5c2.8,20.8,18.7,37.3,39.4,41l-0.1,0.4c2.6,38.1,30.9,52.1,57.6,52.1h118.2
	c39.7,0,55.6-26.1,57.6-52.1C399,205.7,416.5,180.5,411.7,154.2z M139.1,193.1c-16.4-4.7-25.9-21.9-21.1-38.3
	c2.9-10.2,10.9-18.2,21.1-21.1V193.1z M244.5,29.4c0-6.4,5.2-11.6,11.6-11.6s11.6,5.2,11.6,11.6S262.4,41,256,41
	C249.7,41,244.5,35.8,244.5,29.4z M355.6,204.2c0,15.1-5.3,40.5-40.5,40.5H197.1c-15.1,0-40.5-5.3-40.5-40.5l-0.1-70.5
	c0-35.3,25.4-40.5,40.5-40.5h118.2c35.3,0,40.5,25.4,40.5,40.5V204.2z M372.6,192.5v-59.4c13.2,3.8,22.4,15.9,22.4,29.7
	C395,176.6,385.9,188.7,372.6,192.5z"/>
<path class="st0" d="M305.7,114.2c-19.2,0-34.8,15.6-34.8,34.8s15.6,34.8,34.8,34.8c19.2,0,34.8-15.6,34.8-34.8
	S324.9,114.2,305.7,114.2z M305.7,166.3c-9.6,0-17.4-7.8-17.4-17.4c0-9.6,7.8-17.3,17.4-17.3v-0.1c9.6,0,17.4,7.8,17.4,17.4
	S315.3,166.3,305.7,166.3z"/>
<path class="st0" d="M206.4,114.2c-19.2,0-34.8,15.6-34.8,34.8s15.6,34.8,34.8,34.8s34.8-15.6,34.8-34.8S225.5,114.2,206.4,114.2z
	 M206.4,166.3c-9.6,0-17.4-7.8-17.4-17.4c0-9.6,7.8-17.3,17.4-17.3v-0.1c9.6,0,17.4,7.8,17.4,17.4S216,166.3,206.4,166.3z"/>
</svg>
