<?xml version="1.0" encoding="utf-8"?>
<!-- Generator: Adobe Illustrator 23.0.1, SVG Export Plug-In . SVG Version: 6.00 Build 0)  -->
<svg version="1.1" id="kreis_kuenstlicheintelligenz"
	 xmlns="http://www.w3.org/2000/svg" xmlns:xlink="http://www.w3.org/1999/xlink" x="0px" y="0px" viewBox="0 0 40 40"
	 style="enable-background:new 0 0 40 40;" xml:space="preserve">
<g>
	<path d="M29.5,19.6c0.6-3.2-0.4-7.7-3.9-9.8c-2.2-1.3-4.9-1.6-7.3-0.9c-3.4,0.9-5.9,3.4-6.7,6.6c-0.2,0.6-0.2,1.3-0.2,2
		c0,0.4,0.1,0.8,0.2,1.2c0.2,0.5,0.2,1,0.2,1.6c0,0.6-0.5,1.3-0.8,1.9c-0.4,0.6-0.8,1.2-0.6,1.7c0.2,0.3,0.6,0.6,1,0.6
		c0,0,0,0,0.1,0c0.1,0,0.2,0,0.3,0.1c0.1,0.1,0.1,0.2,0.1,0.3c0,0.8,0,1.2,0.3,1.4c0,0.1,0,0.1-0.1,0.2c0,0.2,0,0.4,0.2,0.6
		c0.2,0.2,0.4,0.3,0.6,0.3l0,0c0,0.1,0,0.1,0,0.2c0,0.1,0,0.3,0,0.4c-0.1,0.6-0.2,1.4,1.1,1.8c0.2,0.1,0.5,0.1,0.8,0.1
		c1.2,0,2.3-0.3,3.4-0.6c0.3,0.6,0.5,1.2,0.6,1.8c0,0.2,0.2,0.4,0.4,0.4l0,0h9.5c0.2,0,0.3-0.1,0.4-0.3c0-0.2,0-0.3-0.1-0.4
		c-0.4-0.3-1.7-3.4-1.7-4.6c0.1-0.3,0.3-0.6,0.4-0.9C28.5,23.5,29.2,21.6,29.5,19.6z M26.3,26.1c0,0.9,0.8,3.3,1.5,4.5h-8.4
		c-0.1-0.6-0.3-1.1-0.6-1.7c1.1-0.4,2.1-1,2.5-1.6c0.1-0.2,0.1-0.4-0.1-0.5c-0.2-0.1-0.4-0.1-0.5,0.1c-1.1,1.4-5.6,2.5-6.6,2.2
		c-0.6-0.2-0.6-0.4-0.5-1c0-0.2,0-0.3,0-0.5c0-0.6-0.3-0.8-0.6-0.9c-0.1,0-0.1,0-0.2-0.1c0.1-0.1,0.2-0.1,0.2-0.2
		c0.2-0.1,0.3-0.3,0.2-0.5c-0.1-0.1-0.2-0.2-0.3-0.2c-0.1,0-0.3,0-0.4,0c0-0.2,0-0.5,0-0.8c0-0.6-0.5-1.1-1.1-1.1c0,0,0,0,0,0
		c-0.3-0.1-0.4-0.1-0.4-0.2c-0.1-0.1,0.3-0.7,0.5-1c0.4-0.6,1-1.4,1-2.3c0-0.5,0-1-0.2-1.4c0.4-0.4,0.9-0.6,1.4-0.8
		c0.2,0,0.4,0,0.6,0c0.2,0.1,0.4,0,0.5-0.2c0.1-0.2,0-0.4-0.2-0.5c0,0,0,0,0,0c-0.3-0.1-0.6-0.1-0.9,0c-0.5,0.1-1,0.4-1.5,0.7
		c0-0.2-0.1-0.4-0.1-0.7c0-0.6,0-1.2,0.2-1.8c0.7-3,3-5.2,6.2-6c2.3-0.6,4.7-0.3,6.8,0.8c3.2,1.9,4.1,6,3.6,9c-0.3,1.9-1,3.7-2,5.4
		c-0.2,0.4-0.4,0.7-0.5,1C26.3,26,26.3,26,26.3,26.1z"/>
	<path d="M27,20.5c0.1-0.6-0.3-1.1-0.9-1.2l-0.7-1c0-0.1,0.1-0.2,0.1-0.3l0.7-0.3c0.4,0.5,1.1,0.5,1.6,0.1c0.5-0.4,0.5-1.1,0.1-1.6
		c-0.2-0.2-0.4-0.3-0.6-0.4l-0.6-1.1c0.4-0.4,0.4-1.2,0-1.6c-0.4-0.4-0.9-0.4-1.4-0.2l-0.6-0.5c0-0.1,0.1-0.3,0.1-0.4
		c0-0.6-0.5-1.1-1.1-1.1c-0.3,0-0.6,0.1-0.8,0.4l-1.1-0.3c-0.2-0.6-0.8-1-1.4-0.8c-0.4,0.1-0.7,0.4-0.8,0.8L18,11.2
		c-0.4-0.5-1.1-0.5-1.6-0.1c-0.4,0.4-0.5,0.9-0.2,1.4l-0.7,1c-0.6,0.1-1,0.7-0.9,1.3c0.1,0.4,0.4,0.8,0.8,0.9l0.6,1.5
		c-0.4,0.4-0.5,1.2,0,1.6c0.4,0.4,1.2,0.5,1.6,0c0.1-0.1,0.2-0.3,0.3-0.4h2c0.2,0.5,0.7,0.8,1.2,0.7l1.3,1.9
		c-0.4,0.5-0.4,1.2,0.1,1.6c0.5,0.4,1.2,0.4,1.6-0.1c0.1-0.2,0.2-0.4,0.3-0.6l0.9-0.8c0.5,0.3,1.2,0.2,1.6-0.4
		C27,20.8,27,20.7,27,20.5L27,20.5z M27,16.6c0.2,0,0.4,0.2,0.4,0.4c0,0.2-0.2,0.4-0.4,0.4c-0.2,0-0.3-0.1-0.4-0.2v0v0
		c-0.1-0.2,0-0.4,0.2-0.5C26.9,16.6,27,16.6,27,16.6L27,16.6z M25.5,13.8c0-0.2,0.2-0.3,0.4-0.3s0.3,0.2,0.3,0.4
		c0,0.2-0.2,0.3-0.4,0.3c0,0-0.1,0-0.1,0l0,0h0C25.6,14.2,25.5,14,25.5,13.8z M25.1,14.8L25.1,14.8l-0.7,1.8l-1.2-1
		c0.2-0.1,0.3-0.3,0.4-0.5L25.1,14.8C25.1,14.7,25.1,14.7,25.1,14.8z M24.7,17.8c-0.1,0.2-0.3,0.3-0.5,0.3C24.1,18,24,17.8,24,17.6
		c0-0.2,0.2-0.3,0.4-0.3c0,0,0.1,0,0.1,0l0,0h0C24.7,17.4,24.8,17.6,24.7,17.8z M23.6,11.6c0.2,0,0.4,0.2,0.4,0.4
		c0,0.2-0.2,0.4-0.4,0.4c-0.2,0-0.4-0.2-0.4-0.4l0,0C23.2,11.8,23.4,11.6,23.6,11.6L23.6,11.6z M21.6,11.7l0.9,0.2c0,0,0,0.1,0,0.1
		c0,0.6,0.5,1.1,1.1,1.1h0c0.2,0,0.4-0.1,0.6-0.2l0.6,0.5c0,0.1-0.1,0.3-0.1,0.4c0,0,0,0,0,0.1l-1.2,0.2c-0.2-0.4-0.5-0.6-0.9-0.7
		l-1.4-1.4C21.4,12,21.5,11.9,21.6,11.7L21.6,11.7z M22.9,14.7c0,0.2-0.2,0.4-0.4,0.4c-0.2,0-0.4-0.2-0.4-0.4c0-0.2,0.2-0.4,0.4-0.4
		l0,0C22.7,14.3,22.9,14.5,22.9,14.7L22.9,14.7z M20.6,10.9c0.2,0,0.4,0.2,0.4,0.4s-0.2,0.4-0.4,0.4c-0.2,0-0.4-0.2-0.4-0.4l0,0
		C20.2,11,20.4,10.9,20.6,10.9L20.6,10.9L20.6,10.9z M20.6,12.6l1.1,1.1c-0.2,0.1-0.3,0.3-0.4,0.5h-0.9c-0.1-0.2-0.3-0.5-0.5-0.6
		L20.6,12.6z M18.3,11.9l1.2-0.2c0.1,0.2,0.3,0.4,0.5,0.5l-0.7,1.2l-1.2-0.8C18.2,12.4,18.3,12.2,18.3,11.9
		C18.3,12,18.3,12,18.3,11.9L18.3,11.9z M19.8,14.7c0,0.2-0.2,0.4-0.4,0.4c-0.2,0-0.4-0.2-0.4-0.4c0-0.2,0.2-0.4,0.4-0.4l0,0
		C19.6,14.3,19.8,14.5,19.8,14.7L19.8,14.7z M17.1,11.6c0.2,0,0.4,0.2,0.4,0.4c0,0.2-0.2,0.4-0.4,0.4c-0.2,0-0.4-0.2-0.4-0.4l0,0
		C16.8,11.8,16.9,11.6,17.1,11.6z M16.7,13.1c0.2,0.1,0.5,0.1,0.7,0l1.2,0.8c-0.1,0.1-0.2,0.3-0.3,0.4h-1.7
		c-0.1-0.2-0.2-0.4-0.4-0.6L16.7,13.1z M15.6,15.1c-0.2,0-0.4-0.2-0.4-0.4s0.2-0.4,0.4-0.4s0.4,0.2,0.4,0.4l0,0
		C16,14.9,15.8,15,15.6,15.1L15.6,15.1z M16.8,18.5c-0.2,0-0.4-0.2-0.4-0.4c0-0.2,0.2-0.4,0.4-0.4c0.2,0,0.4,0.2,0.4,0.4l0,0
		C17.1,18.3,17,18.5,16.8,18.5L16.8,18.5z M17,17c-0.1,0-0.1,0-0.2,0c0,0-0.1,0-0.1,0l-0.5-1.3c0.3-0.1,0.5-0.4,0.6-0.6h1.7
		c0.1,0.2,0.2,0.4,0.3,0.5L17,17z M19.9,17.7h-2c0-0.1-0.1-0.2-0.2-0.3l1.9-1.6l0.6,1.4C20,17.4,19.9,17.5,19.9,17.7z M20.5,15h0.9
		c0.1,0.2,0.3,0.5,0.5,0.6L21.1,17c0,0-0.1,0-0.2,0c0,0-0.1,0-0.1,0l-0.7-1.5C20.3,15.4,20.4,15.2,20.5,15L20.5,15z M20.9,18.5
		c-0.2,0-0.4-0.2-0.4-0.4s0.2-0.4,0.4-0.4c0.2,0,0.4,0.2,0.4,0.4l0,0C21.3,18.3,21.2,18.5,20.9,18.5L20.9,18.5L20.9,18.5z M22.6,16
		l1.1,0.8c-0.2,0.1-0.3,0.3-0.4,0.5L22,17.6c-0.1-0.1-0.1-0.2-0.2-0.3L22.6,16z M23.2,22.3c-0.2,0-0.4-0.2-0.4-0.4
		c0-0.2,0.2-0.4,0.4-0.4c0.2,0,0.4,0.2,0.4,0.4C23.6,22.1,23.4,22.3,23.2,22.3C23.2,22.3,23.2,22.3,23.2,22.3L23.2,22.3z M24.7,20.4
		c0,0.1,0,0.3,0.1,0.4l-0.6,0.5c-0.2-0.4-0.7-0.6-1.1-0.5l-1.3-1.9c0.1-0.1,0.2-0.3,0.2-0.4l1.3-0.3c0.2,0.6,0.9,0.8,1.5,0.6
		l0.5,0.6C24.9,19.6,24.8,20,24.7,20.4L24.7,20.4z M25.1,16.9l0.7-1.8c0,0,0,0,0,0c0,0,0.1,0,0.1,0l0.5,0.9c-0.4,0.2-0.6,0.6-0.6,1
		c0,0,0,0,0,0l-0.5,0.2C25.3,17.1,25.2,17,25.1,16.9L25.1,16.9z M25.9,20.7c-0.2,0-0.4-0.2-0.4-0.4c0-0.2,0.2-0.4,0.4-0.4
		c0.2,0,0.4,0.2,0.4,0.4l0,0C26.3,20.6,26.1,20.7,25.9,20.7C25.9,20.8,25.9,20.8,25.9,20.7L25.9,20.7z"/>
</g>
</svg>
