<?xml version="1.0" encoding="utf-8"?>
<!-- Generator: Adobe Illustrator 23.0.1, SVG Export Plug-In . SVG Version: 6.00 Build 0)  -->
<svg version="1.1" id="Layer_1" xmlns="http://www.w3.org/2000/svg" xmlns:xlink="http://www.w3.org/1999/xlink" x="0px" y="0px"
	 viewBox="0 0 512 512" style="enable-background:new 0 0 512 512;" xml:space="preserve">
<style type="text/css">
	.st0{fill:#FFFFFF;}
	.st1{fill:#A42CD6;}
</style>
<title>Element 6</title>
<g id="Ebene_2">
	<g id="Capa_1">
		<circle class="st0" cx="256" cy="256" r="256"/>
		<g>
			<path class="st1" d="M374.2,238.8c7.4-40.3-4.7-95.8-48.9-122.2c-27.9-15.7-60.8-19.8-91.7-11.5c-42.8,11.5-74.3,42.2-84.2,82.2
				c-2.2,8.1-3.1,16.5-2.8,24.9c0.5,5.2,1.4,10.4,2.9,15.4c1.9,6.4,2.9,13.1,2.8,19.8c-0.2,8-5.7,16.2-10.5,23.5
				c-5.3,8-9.8,14.8-7.2,21.2c2.5,4.3,6.9,7.1,11.9,7.6c0.3,0.1,0.6,0.1,0.9,0.1c1.3-0.2,2.7,0.3,3.6,1.2c1,0.9,1.5,2.2,1.4,3.6
				c0,9.9,0.2,15,4.3,17.3c-0.4,0.7-0.6,1.5-0.7,2.4c-0.4,2.8,0.6,5.6,2.7,7.5c2.1,2,4.7,3.3,7.5,3.9l0.6,0.1
				c0.1,0.7,0.2,1.4,0.1,2.1c0,1.8-0.2,3.5-0.4,5.3c-0.8,7.6-1.9,18,13.3,23c3.1,0.8,6.2,1.2,9.4,1.1c14.4-0.6,28.6-3.4,42.3-8.1
				c4,6.9,6.3,14.5,7,22.4c0,2.6,2.1,4.8,4.8,4.8l0,0H362c2,0,3.8-1.4,4.4-3.3c0.6-2-0.1-4.1-1.7-5.4c-4.9-3.7-21.2-43.1-21.7-57.2
				c1.4-3.3,3.4-6.9,5.6-11.2C361.1,287.3,369.7,263.5,374.2,238.8z M333.5,319.8c0.1,11.4,10.4,41.4,19.2,56.8H247.5
				c-1.2-7.3-3.5-14.3-7-20.9c13.8-5.4,25.9-12.3,31.7-20c1.5-2.2,1-5.1-1.2-6.6c-2-1.4-4.8-1-6.4,0.9c-13.5,17.6-69.4,31-81.9,26.9
				c-7.9-2.6-7.6-5.6-6.8-13c0.2-2.1,0.4-4.2,0.4-6.3c0-8-3.2-10.4-8.1-11.5c-0.9-0.1-1.8-0.5-2.6-1c0.9-0.9,2-1.6,3.1-2.2
				c2.3-1.2,3.3-4,2.1-6.4c-0.8-1.6-2.4-2.6-4.2-2.6c-1.7,0-3.6,0-4.6-0.1c-0.3-3.1-0.4-6.2-0.3-9.4c0.2-7.7-5.9-14.1-13.5-14.2
				c-0.1,0-0.2,0-0.4,0c-3.4-0.7-4.5-1.6-4.6-1.9c-0.7-1.6,3.9-8.5,6.4-12.2c5.3-7.9,11.9-17.8,12.1-28.5c0.1-5.9-0.5-11.9-2-17.6
				c5.2-4.6,11.3-7.9,18-9.8c2.4-0.4,4.8-0.2,7.1,0.5c2.5,0.8,5.2-0.6,6-3.1c0.8-2.5-0.6-5.2-3.1-6c-0.1,0-0.2-0.1-0.4-0.1
				c-3.7-1.2-7.7-1.4-11.6-0.6c-6.7,1.7-13,4.8-18.4,9.1c-0.6-2.8-1.1-5.6-1.3-8.4c-0.3-7.4,0.5-14.8,2.5-22
				c9.2-37.1,37.4-64.6,77.4-75.3c28.4-7.6,58.7-3.9,84.4,10.5c40.3,24.1,51.3,75.1,44.4,112.3c-4.3,23.8-12.6,46.6-24.5,67.6
				c-2.6,4.9-4.9,9.1-6.5,13C333.5,318.3,333.4,319.1,333.5,319.8z"/>
			<path class="st1" d="M342.9,249.6c0.7-7.3-4.3-14-11.6-15.3l-9.1-12.6c0.6-1,1-2.1,1.3-3.3l8.8-3.5c5.2,5.9,14.2,6.5,20.1,1.3
				c5.9-5.2,6.5-14.2,1.3-20.1c-2-2.3-4.7-3.9-7.6-4.5l-7.1-14.3c5.5-5.6,5.4-14.6-0.2-20.1c-4.6-4.6-11.8-5.4-17.3-2l-8-6.6
				c0.6-1.6,0.9-3.2,0.9-4.9c0-7.9-6.3-14.2-14.2-14.3c-3.9,0-7.6,1.6-10.3,4.4l-14.1-3.5c-2.1-7.5-9.9-12-17.4-9.9
				c-4.8,1.3-8.5,5-9.9,9.7l-18.8,3.8c-5.3-5.7-14.3-6.1-20.1-0.8c-4.8,4.5-6,11.7-2.7,17.5l-9.2,12.3c-7.7,1.4-12.8,8.8-11.4,16.6
				c1,5.5,5.2,9.9,10.6,11.2l7.6,18.8c-5.6,5.5-5.8,14.5-0.3,20.1c5.5,5.6,14.5,5.8,20.1,0.3c1.6-1.5,2.8-3.4,3.5-5.5h25.5
				c2.1,6.6,8.8,10.5,15.6,9.3l15.8,24c-5.3,5.8-4.8,14.8,1,20.1c5.8,5.3,14.8,4.8,20.1-1c1.8-2,3-4.4,3.5-7.1l11.8-9.4
				c6.6,4.2,15.4,2.2,19.6-4.5C342,254,342.7,251.9,342.9,249.6L342.9,249.6z M343,200.8c2.6,0,4.8,2.1,4.8,4.7s-2.1,4.8-4.7,4.8
				c-1.9,0-3.6-1.1-4.4-2.9c0,0,0-0.1,0-0.1v-0.1c-1-2.4,0.2-5.1,2.6-6.1C341.8,200.9,342.4,200.8,343,200.8L343,200.8z
				 M324.1,166.5c0.5-2.6,3-4.2,5.6-3.7c2.6,0.5,4.2,3,3.7,5.6c-0.5,2.2-2.4,3.8-4.7,3.8c-0.6,0-1.2-0.1-1.7-0.3l0,0
				c0,0-0.1,0-0.1,0C324.8,171,323.6,168.8,324.1,166.5z M319.3,178.1L319.3,178.1l-8.8,22l-15.4-12.3c2.1-1.8,3.6-4.1,4.4-6.8
				l18.8-3.8C318.7,177.6,319,177.9,319.3,178.1z M314.3,216.3c-0.7,2.5-3.3,4-5.8,3.3c-2.5-0.7-4-3.3-3.3-5.8
				c0.6-2.1,2.4-3.5,4.6-3.5c0.6,0,1.2,0.1,1.7,0.3l0,0c0,0,0.1,0,0.1,0C313.8,211.6,314.9,214,314.3,216.3z M300.2,139
				c2.6,0,4.8,2.1,4.8,4.8s-2.1,4.8-4.8,4.8c-2.6,0-4.8-2.1-4.8-4.8c0,0,0,0,0,0C295.4,141.1,297.6,139,300.2,139
				C300.2,139,300.2,139,300.2,139z M275.2,140l10.8,2.7c0,0.3-0.1,0.7-0.1,1c0,7.9,6.3,14.3,14.2,14.3c0,0,0.1,0,0.1,0
				c2.5,0,5-0.7,7.2-2l8,6.6c-0.6,1.6-0.9,3.2-0.9,4.9c0,0.3,0.1,0.6,0.1,0.8l-15.5,3.1c-1.9-4.5-6.1-7.7-11-8.5l-17.4-17.4
				C272.7,144.1,274.2,142.2,275.2,140L275.2,140z M290.7,177c0,2.6-2.1,4.8-4.8,4.8c-2.6,0-4.8-2.1-4.8-4.8c0-2.6,2.1-4.8,4.8-4.8
				c0,0,0,0,0,0C288.6,172.3,290.7,174.4,290.7,177L290.7,177z M262.2,129.5c2.6,0,4.8,2.1,4.8,4.8s-2.1,4.8-4.8,4.8
				c-2.6,0-4.8-2.1-4.8-4.8c0,0,0,0,0,0C257.4,131.6,259.5,129.5,262.2,129.5L262.2,129.5L262.2,129.5z M263.1,151.4l14.3,14.3
				c-2.2,1.7-3.9,4-4.8,6.6h-11.3c-1.1-3.1-3.3-5.8-6.2-7.5L263.1,151.4z M233.6,142.9l15.4-3.1c1.2,2.8,3.3,5.1,5.9,6.7l-8.6,14.4
				l-14.9-9.6c1.4-2.3,2.2-4.9,2.2-7.6C233.6,143.4,233.6,143.2,233.6,142.9L233.6,142.9z M252.7,177c0,2.6-2.1,4.8-4.8,4.8
				c-2.6,0-4.8-2.1-4.8-4.8c0-2.6,2.1-4.8,4.8-4.8c0,0,0,0,0,0C250.5,172.2,252.7,174.4,252.7,177L252.7,177z M219.4,139
				c2.6,0,4.8,2.1,4.8,4.8c0,2.6-2.1,4.8-4.8,4.8c-2.6,0-4.8-2.1-4.8-4.8c0,0,0,0,0,0C214.6,141.1,216.8,139,219.4,139z M214.2,157
				c2.9,1.2,6.1,1.3,9.1,0.4l14.7,9.4c-1.6,1.5-2.8,3.4-3.5,5.5h-20.8c-1-2.9-3-5.5-5.6-7.2L214.2,157z M200.4,181.8
				c-2.6,0-4.8-2.1-4.8-4.8s2.1-4.8,4.8-4.8s4.8,2.1,4.8,4.8l0,0C205.1,179.6,203,181.7,200.4,181.8L200.4,181.8z M214.6,224.6
				c-2.6,0-4.8-2.1-4.8-4.7c0-2.6,2.1-4.8,4.7-4.8c2.6,0,4.8,2.1,4.8,4.7c0,0,0,0,0,0C219.4,222.4,217.2,224.5,214.6,224.6
				L214.6,224.6z M217.3,205.8c-0.9-0.2-1.8-0.3-2.7-0.3c-0.5,0-0.9,0.1-1.4,0.1l-6.5-16c3.3-1.6,5.8-4.5,7-7.9h20.8
				c0.9,2.4,2.3,4.5,4.3,6.1L217.3,205.8z M253.5,215H228c-0.5-1.4-1.2-2.8-2.2-4l23.4-19.5l7.9,17.8
				C255.5,210.9,254.3,212.9,253.5,215z M261.3,181.7h11.3c1.1,3.1,3.3,5.8,6.2,7.5l-9.9,16.5c-0.6-0.1-1.3-0.2-1.9-0.2
				c-0.4,0-0.7,0.1-1.1,0.1l-8.2-18.3C259.3,185.8,260.5,183.9,261.3,181.7L261.3,181.7z M266.9,224.5c-2.6,0-4.8-2.1-4.8-4.7
				c0-2.6,2.1-4.8,4.8-4.8c2.6,0,4.8,2.1,4.8,4.7c0,0,0,0,0,0C271.7,222.4,269.6,224.5,266.9,224.5
				C266.9,224.5,266.9,224.5,266.9,224.5L266.9,224.5z M287.2,193.6l13.3,10.6c-2.1,1.8-3.6,4.1-4.4,6.8l-16,3.2
				c-0.7-1.5-1.6-2.9-2.7-4.1L287.2,193.6z M295.4,272.1c-2.6,0-4.8-2.1-4.8-4.8c0-2.6,2.1-4.8,4.8-4.8c2.6,0,4.8,2.1,4.8,4.8
				C300.2,269.9,298.1,272.1,295.4,272.1C295.5,272.1,295.4,272.1,295.4,272.1L295.4,272.1z M314.4,248.3c0,1.6,0.3,3.2,0.8,4.6
				l-8,6.4c-3-4.7-8.5-7.1-14-6.1l-15.8-24c1.4-1.6,2.4-3.4,3-5.5l16-3.2c3.1,7.2,11.4,10.6,18.6,7.6l5.9,8.1
				C316.9,238.9,314.5,243.4,314.4,248.3L314.4,248.3z M319.1,204.4l9.1-22.7c0.2,0,0.4,0.1,0.6,0.1c0.6,0,1.1-0.1,1.7-0.2l5.8,11.5
				c-4.6,2.5-7.4,7.3-7.5,12.5c0,0.2,0,0.4,0.1,0.6l-6.4,2.6C321.6,207,320.4,205.6,319.1,204.4L319.1,204.4z M328.7,253
				c-2.6,0-4.8-2.1-4.8-4.8c0-2.6,2.1-4.8,4.8-4.8c2.6,0,4.8,2.1,4.8,4.8c0,0,0,0,0,0C333.5,250.9,331.3,253,328.7,253
				C328.7,253.1,328.7,253.1,328.7,253L328.7,253z"/>
		</g>
	</g>
</g>
</svg>
