<!--?xml version="1.0" encoding="utf-8"?-->
<!-- Generator: Adobe Illustrator 23.0.1, SVG Export Plug-In . SVG Version: 6.00 Build 0)  -->
<svg version="1.1" id="Capa_1" xmlns="http://www.w3.org/2000/svg" xmlns:xlink="http://www.w3.org/1999/xlink" x="0px" y="0px" viewBox="0 0 512 512" style="" xml:space="preserve">
<style type="text/css">
	.st0{fill:none;stroke:#249DE9;stroke-width:3;stroke-miterlimit:10;}
</style>
<g>
	<g>
		<path class="st0 CxHlLlxh_0" d="M137.4,365.9c-11-7.3-25.5-6.9-36.1,1c-3.3,2.5-4,7.2-1.6,10.5c1.5,2,3.7,3,6,3c1.6,0,3.1-0.5,4.5-1.5
			c5.6-4.1,13.2-4.3,18.9-0.5c3.5,2.3,8.1,1.3,10.4-2.1C141.8,372.9,140.8,368.2,137.4,365.9z"></path>
	</g>
</g>
<g>
	<g>
		<path class="st0 CxHlLlxh_1" d="M156.7,340.3c-22.2-15.7-51.9-15.5-74,0.5c-3.4,2.4-4.1,7.1-1.7,10.5c1.5,2,3.8,3.1,6.1,3.1
			c1.5,0,3.1-0.5,4.4-1.4c16.8-12.2,39.5-12.3,56.5-0.4c3.4,2.4,8.1,1.6,10.5-1.8C160.9,347.3,160,342.7,156.7,340.3z"></path>
	</g>
</g>
<g>
	<g>
		<path class="st0 CxHlLlxh_2" d="M175,314c-33.2-23.4-77.6-23.2-110.6,0.4c-3.4,2.4-4.1,7.1-1.7,10.5c1.5,2,3.8,3.1,6.1,3.1
			c1.5,0,3-0.5,4.4-1.4c27.8-19.9,65.3-20.1,93.3-0.4c3.4,2.4,8.1,1.6,10.4-1.8C179.2,321,178.4,316.3,175,314z"></path>
	</g>
</g>
<g>
	<g>
		<path class="st0 CxHlLlxh_3" d="M183.9,208.4H55.6c-13,0-23.5,10.6-23.5,23.5v256.5c0,13,10.6,23.5,23.5,23.5h128.3c13,0,23.5-10.6,23.5-23.5
			V232C207.4,219,196.8,208.4,183.9,208.4z M192.4,488.5c0,4.7-3.8,8.5-8.5,8.5H55.6c-4.7,0-8.5-3.8-8.5-8.5V232
			c0-4.7,3.8-8.5,8.5-8.5h128.3c4.7,0,8.5,3.8,8.5,8.5V488.5z"></path>
	</g>
</g>
<g>
	<g>
		<path class="st0 CxHlLlxh_4" d="M167.8,448.9H71.6c-4.1,0-7.5,3.4-7.5,7.5s3.4,7.5,7.5,7.5h96.2c4.1,0,7.5-3.4,7.5-7.5
			C175.3,452.3,172,448.9,167.8,448.9z"></path>
	</g>
</g>
<g>
	<g>
		<path class="st0 CxHlLlxh_5" d="M127.7,473h-16c-4.1,0-7.5,3.4-7.5,7.5s3.4,7.5,7.5,7.5h16c4.1,0,7.5-3.4,7.5-7.5S131.9,473,127.7,473z"></path>
	</g>
</g>
<g>
	<g>
		<path class="st0 CxHlLlxh_6" d="M464.4,240.5h-0.5V31.5c0-17.4-14.2-31.5-31.5-31.5H127.7c-17.4,0-31.5,14.2-31.5,31.5v152.3
			c0,4.1,3.4,7.5,7.5,7.5s7.5-3.4,7.5-7.5V31.5c0-9.1,7.4-16.5,16.5-16.5h304.6c9.1,0,16.5,7.4,16.5,16.5v208.9H232
			c-4.1,0-7.5,3.4-7.5,7.5s3.4,7.5,7.5,7.5h24.6c0,0.2,0,0.3,0,0.5c0,4.1,3.4,7.5,7.5,7.5h32.1c4.1,0,7.5-3.4,7.5-7.5
			c0-0.2,0-0.3,0-0.5h160.9c0.3,0,0.5,0.2,0.5,0.5v16c0,0.3-0.2,0.5-0.5,0.5H232c-4.1,0-7.5,3.4-7.5,7.5s3.4,7.5,7.5,7.5h232.5
			c8.6,0,15.5-7,15.5-15.5v-16C479.9,247.4,473,240.5,464.4,240.5z"></path>
	</g>
</g>
<g>
	<g>
		<path class="st0 CxHlLlxh_7" d="M424.3,32.1H135.8c-4.1,0-7.5,3.4-7.5,7.5v144.3c0,4.1,3.4,7.5,7.5,7.5s7.5-3.4,7.5-7.5V47.1h273.6v161.4H232
			c-4.1,0-7.5,3.4-7.5,7.5s3.4,7.5,7.5,7.5h192.4c4.1,0,7.5-3.4,7.5-7.5V39.6C431.8,35.4,428.5,32.1,424.3,32.1z"></path>
	</g>
</g>
<style data-made-with="vivus-instant">.CxHlLlxh_0{stroke-dasharray:106 108;stroke-dashoffset:107;animation:CxHlLlxh_draw_0 7200ms linear 0ms infinite,CxHlLlxh_fade 7200ms linear 0ms infinite;}.CxHlLlxh_1{stroke-dasharray:187 189;stroke-dashoffset:188;animation:CxHlLlxh_draw_1 7200ms linear 0ms infinite,CxHlLlxh_fade 7200ms linear 0ms infinite;}.CxHlLlxh_2{stroke-dasharray:265 267;stroke-dashoffset:266;animation:CxHlLlxh_draw_2 7200ms linear 0ms infinite,CxHlLlxh_fade 7200ms linear 0ms infinite;}.CxHlLlxh_3{stroke-dasharray:1741 1743;stroke-dashoffset:1742;animation:CxHlLlxh_draw_3 7200ms linear 0ms infinite,CxHlLlxh_fade 7200ms linear 0ms infinite;}.CxHlLlxh_4{stroke-dasharray:240 242;stroke-dashoffset:241;animation:CxHlLlxh_draw_4 7200ms linear 0ms infinite,CxHlLlxh_fade 7200ms linear 0ms infinite;}.CxHlLlxh_5{stroke-dasharray:80 82;stroke-dashoffset:81;animation:CxHlLlxh_draw_5 7200ms linear 0ms infinite,CxHlLlxh_fade 7200ms linear 0ms infinite;}.CxHlLlxh_6{stroke-dasharray:2560 2562;stroke-dashoffset:2561;animation:CxHlLlxh_draw_6 7200ms linear 0ms infinite,CxHlLlxh_fade 7200ms linear 0ms infinite;}.CxHlLlxh_7{stroke-dasharray:1641 1643;stroke-dashoffset:1642;animation:CxHlLlxh_draw_7 7200ms linear 0ms infinite,CxHlLlxh_fade 7200ms linear 0ms infinite;}@keyframes CxHlLlxh_draw{100%{stroke-dashoffset:0;}}@keyframes CxHlLlxh_fade{0%{stroke-opacity:1;}94.44444444444444%{stroke-opacity:1;}100%{stroke-opacity:0;}}@keyframes CxHlLlxh_draw_0{11.11111111111111%{stroke-dashoffset: 107}52.77777777777778%{ stroke-dashoffset: 0;}100%{ stroke-dashoffset: 0;}}@keyframes CxHlLlxh_draw_1{11.11111111111111%{stroke-dashoffset: 188}52.77777777777778%{ stroke-dashoffset: 0;}100%{ stroke-dashoffset: 0;}}@keyframes CxHlLlxh_draw_2{11.11111111111111%{stroke-dashoffset: 266}52.77777777777778%{ stroke-dashoffset: 0;}100%{ stroke-dashoffset: 0;}}@keyframes CxHlLlxh_draw_3{11.11111111111111%{stroke-dashoffset: 1742}52.77777777777778%{ stroke-dashoffset: 0;}100%{ stroke-dashoffset: 0;}}@keyframes CxHlLlxh_draw_4{11.11111111111111%{stroke-dashoffset: 241}52.77777777777778%{ stroke-dashoffset: 0;}100%{ stroke-dashoffset: 0;}}@keyframes CxHlLlxh_draw_5{11.11111111111111%{stroke-dashoffset: 81}52.77777777777778%{ stroke-dashoffset: 0;}100%{ stroke-dashoffset: 0;}}@keyframes CxHlLlxh_draw_6{11.11111111111111%{stroke-dashoffset: 2561}52.77777777777778%{ stroke-dashoffset: 0;}100%{ stroke-dashoffset: 0;}}@keyframes CxHlLlxh_draw_7{11.11111111111111%{stroke-dashoffset: 1642}52.77777777777778%{ stroke-dashoffset: 0;}100%{ stroke-dashoffset: 0;}}</style></svg>
