<svg xmlns="http://www.w3.org/2000/svg" viewBox="0 0 512 512">
  <defs>
    <style>
      .cls-1 {
        fill: #252a4c;
      }

      .cls-2 {
        fill: #fff;
      }
    </style>
  </defs>
  <title>Element 7</title>
  <g id="Ebene_2" data-name="Ebene 2">
    <g id="Capa_1" data-name="Capa 1">
      <circle class="cls-1" cx="256" cy="256" r="256"/>
      <g id="Ebene_2-2" data-name="Ebene 2">
        <path class="cls-2" d="M228.16,170.14a21.73,21.73,0,1,0,21.73,21.73A21.73,21.73,0,0,0,228.16,170.14Zm0,32.6a10.84,10.84,0,1,1,0-21.68V181a10.87,10.87,0,0,1,0,21.74Z"/>
        <path class="cls-2" d="M290.31,170.14A21.73,21.73,0,1,0,312,191.87,21.73,21.73,0,0,0,290.31,170.14Zm0,32.6a10.84,10.84,0,1,1,0-21.68V181a10.87,10.87,0,0,1,0,21.74Z"/>
        <path class="cls-2" d="M356.56,195.15a30.25,30.25,0,0,0-25.72-24.58C327.26,157.32,316.93,146,296.18,146H264.67v-12a18.09,18.09,0,1,0-10.87,0v11.68H222.34c-14.67,0-30.1,6.74-34.77,24.56a30.27,30.27,0,0,0-1.25,59.77l0,.27c1.63,23.85,19.34,32.6,36,32.6h73.89c24.83,0,34.77-16.3,36-32.6A30.27,30.27,0,0,0,356.56,195.15ZM186.1,219.47a19.34,19.34,0,0,1,0-37.16ZM252,117.11a7.23,7.23,0,1,1,7.22,7.23A7.23,7.23,0,0,1,252,117.11ZM321.5,226.43c0,9.45-3.32,25.31-25.32,25.31H222.34c-9.45,0-25.32-3.31-25.32-25.31L197,182.31c0-22.06,15.86-25.32,25.32-25.32h73.89c22.06,0,25.32,15.87,25.32,25.32Zm10.65-7.34V181.93a19.33,19.33,0,0,1,0,37.16Z"/>
        <path class="cls-2" d="M290.31,228.38H228.16a5.44,5.44,0,1,0,0,10.87h62.15a5.44,5.44,0,0,0,0-10.87Z"/>
        <path class="cls-2" d="M380.12,273.1h0a21.08,21.08,0,0,0-41.62-4.57L324,271.36H194.47L180,268.53a21.08,21.08,0,1,0-26,24.89V334a21.07,21.07,0,0,0-15.64,20.27v9.62a5.43,5.43,0,0,0,10.86,0v-9.68a10.22,10.22,0,0,1,20.43,0v9.68a5.44,5.44,0,0,0,10.87,0v-9.68A21.08,21.08,0,0,0,164.86,334V293.36a21,21,0,0,0,14.56-13.91l9.07,1.8v67a70.47,70.47,0,0,0,6.09,28.53v.49a70.63,70.63,0,0,0,128.76,0l.28-.6a70.16,70.16,0,0,0,6.24-28.42v-67l9.08-1.8a21,21,0,0,0,14.56,13.91V334a21.08,21.08,0,0,0-15.65,20.26v9.68a5.44,5.44,0,0,0,10.87,0v-9.68a10.22,10.22,0,0,1,20.43,0v9.68a5.43,5.43,0,1,0,10.86,0v-9.68A21.06,21.06,0,0,0,364.37,334V293.36A21.08,21.08,0,0,0,380.12,273.1ZM159.43,283.31a10.22,10.22,0,1,1,10.21-10.21A10.22,10.22,0,0,1,159.43,283.31Zm99.8,124.8a59.78,59.78,0,0,1-50.47-27.76H309.71A59.79,59.79,0,0,1,259.23,408.11ZM319,348.35a59.79,59.79,0,0,1-4,21.19H203.33a59.79,59.79,0,0,1-4-21.19V282.22H319Zm40.1-65H359l-.11-.16a7.23,7.23,0,1,1,.17.16Z"/>
        <path class="cls-2" d="M278.45,320.57a5.38,5.38,0,0,0-3.62-1.4h-16.3l20-20.54a5.43,5.43,0,0,0-7.77-7.55l-29,29.77a5.44,5.44,0,0,0,3.92,9.24h16.73L241.85,353a5.42,5.42,0,0,0,.38,7.66h0a5.44,5.44,0,0,0,7.66-.38l29-32.06A5.43,5.43,0,0,0,278.45,320.57Z"/>
      </g>
    </g>
  </g>
</svg>
