<?xml version="1.0" encoding="utf-8"?>
<!-- Generator: Adobe Illustrator 23.0.1, SVG Export Plug-In . SVG Version: 6.00 Build 0)  -->
<svg version="1.1" id="kreis_internetderdinge" xmlns="http://www.w3.org/2000/svg" xmlns:xlink="http://www.w3.org/1999/xlink"
	 x="0px" y="0px" viewBox="0 0 40 40" style="enable-background:new 0 0 40 40;" xml:space="preserve">
<g>
	<path d="M14.5,25.1c-0.5-0.3-1.2-0.3-1.7,0c-0.1,0.1-0.2,0.4,0,0.5c0.1,0.1,0.3,0.2,0.4,0.1c0.3-0.2,0.6-0.2,0.9,0
		c0.2,0.1,0.4,0.1,0.5-0.1C14.7,25.4,14.6,25.2,14.5,25.1L14.5,25.1z"/>
	<path d="M15.4,23.9c-1-0.7-2.4-0.7-3.4,0c-0.2,0.1-0.2,0.3-0.1,0.5c0.1,0.2,0.3,0.2,0.5,0.1c0.8-0.6,1.8-0.6,2.6,0
		c0.2,0.1,0.4,0.1,0.5-0.1C15.5,24.2,15.5,24,15.4,23.9L15.4,23.9z"/>
	<path d="M16.2,22.7c-1.6-1.1-3.6-1.1-5.2,0c-0.2,0.1-0.2,0.3-0.1,0.5s0.3,0.2,0.5,0.1c0,0,0,0,0,0c1.3-0.9,3-0.9,4.4,0
		c0.2,0.1,0.4,0,0.5-0.1C16.4,23,16.3,22.8,16.2,22.7L16.2,22.7z"/>
	<path d="M16.6,17.8h-6c-0.6,0-1.1,0.5-1.1,1.1v12c0,0.6,0.5,1.1,1.1,1.1l0,0h6c0.6,0,1.1-0.5,1.1-1.1v-12
		C17.7,18.2,17.2,17.8,16.6,17.8L16.6,17.8z M16.6,31.2h-6c-0.2,0-0.4-0.2-0.4-0.4v-12c0-0.2,0.2-0.4,0.4-0.4h6
		c0.2,0,0.4,0.2,0.4,0.4v12C17,31.1,16.9,31.2,16.6,31.2z"/>
	<path d="M15.9,29h-4.5c-0.2,0-0.3,0.1-0.4,0.3c0,0.2,0.1,0.4,0.3,0.4c0,0,0,0,0,0h4.5c0.2,0,0.3-0.1,0.4-0.3
		C16.2,29.2,16.1,29,15.9,29C15.9,29,15.9,29,15.9,29z"/>
	<path d="M14,30.1h-0.7c-0.2,0-0.3,0.1-0.4,0.3c0,0.2,0.1,0.4,0.3,0.4c0,0,0,0,0,0H14c0.2,0,0.3-0.1,0.4-0.3
		C14.4,30.3,14.2,30.1,14,30.1C14,30.1,14,30.1,14,30.1z"/>
	<path d="M30.1,19.2h-0.4V8.8c0-0.4-0.3-0.7-0.7-0.7h-16c-0.2,0-0.4,0.2-0.4,0.4l0,0v8.4c0,0,0,0,0,0.1c0.3,0.3,0.6,0.1,0.6-0.2V9.5
		c0-0.4,0.3-0.8,0.8-0.8h14.2c0.4,0,0.8,0.3,0.8,0.8v9.7H18.9c-0.2,0-0.3,0.1-0.4,0.3c0,0.2,0.1,0.4,0.3,0.4c0,0,0,0,0,0H20
		c0,0,0,0,0,0c0,0.2,0.2,0.4,0.4,0.4h1.5c0.2,0,0.4-0.2,0.4-0.4c0,0,0,0,0,0h7.5c0,0,0,0,0,0v0.8c0,0,0,0,0,0l0,0h-11
		c0,0-0.1,0-0.1,0.1c-0.3,0.3-0.1,0.6,0.2,0.6h11.2c0.2,0,0.4-0.2,0.4-0.4v-1.5C30.4,19.4,30.3,19.2,30.1,19.2L30.1,19.2z"/>
	<path d="M27.8,9.5H14.4c-0.2,0-0.3,0.2-0.3,0.3v6.8c0,0.2,0.1,0.3,0.3,0.3c0.2,0,0.4-0.1,0.4-0.3c0,0,0-0.1,0-0.1v-6.4h12.8v7.5
		h-8.6c-0.2,0-0.3,0.1-0.4,0.3c0,0.2,0.1,0.4,0.3,0.4c0,0,0,0,0,0h9c0.2,0,0.4-0.2,0.4-0.4V9.9C28.2,9.7,28,9.5,27.8,9.5L27.8,9.5z"
		/>
</g>
</svg>
