<svg xmlns="http://www.w3.org/2000/svg" viewBox="0 0 512 512">
  <defs>
    <style>
      .cls-1 {
        fill: #252a4c;
      }

      .cls-2 {
        fill: #fff;
      }
    </style>
  </defs>
  <title>Element 2</title>
  <g id="Ebene_2" data-name="Ebene 2">
    <g id="Capa_1" data-name="Capa 1">
      <circle class="cls-1" cx="256" cy="256" r="256"/>
      <path class="cls-2" d="M200.1,268.7V250.21a64.1,64.1,0,0,0,16.88-7l13.07,13.07a5.46,5.46,0,0,0,7.72,0l15.44-15.45a5.46,5.46,0,0,0,0-7.72l-13.06-13a64.49,64.49,0,0,0,7-16.9h18.5a5.46,5.46,0,0,0,5.46-5.46V175.88a5.46,5.46,0,0,0-5.46-5.46h-18.5a64.28,64.28,0,0,0-7-16.89l13.06-13.06a5.46,5.46,0,0,0,0-7.72L237.77,117.3a5.46,5.46,0,0,0-7.72,0L217,130.36a64.62,64.62,0,0,0-16.89-7V104.9a5.46,5.46,0,0,0-5.46-5.46H172.8a5.45,5.45,0,0,0-5.46,5.46v18.49a64.48,64.48,0,0,0-16.89,7L137.39,117.3a5.46,5.46,0,0,0-7.72,0l-15.45,15.45a5.46,5.46,0,0,0,0,7.72l13.06,13.05a64.83,64.83,0,0,0-7,16.9H101.82a5.45,5.45,0,0,0-5.46,5.46v21.84a5.45,5.45,0,0,0,5.46,5.46h18.49a64.62,64.62,0,0,0,7,16.89l-13.06,13.06a5.46,5.46,0,0,0,0,7.72l15.44,15.45a5.46,5.46,0,0,0,7.72,0l13.06-13.07a64.37,64.37,0,0,0,16.9,7V268.7a5.45,5.45,0,0,0,5.46,5.46h21.84A5.46,5.46,0,0,0,200.1,268.7Zm-10.92-22.88v17.42H178.26V245.82a5.47,5.47,0,0,0-4.47-5.37,53.93,53.93,0,0,1-21-8.68,5.47,5.47,0,0,0-7,.64l-12.3,12.3L125.81,237l12.29-12.31a5.44,5.44,0,0,0,.64-7,54.14,54.14,0,0,1-8.68-21,5.45,5.45,0,0,0-5.37-4.47H107.28V181.34h17.41a5.45,5.45,0,0,0,5.37-4.47,54.14,54.14,0,0,1,8.68-21,5.44,5.44,0,0,0-.64-7l-12.29-12.31,7.72-7.72,12.3,12.3a5.47,5.47,0,0,0,7,.64,53.93,53.93,0,0,1,21-8.68,5.47,5.47,0,0,0,4.47-5.37V110.36h10.92v17.42a5.46,5.46,0,0,0,4.47,5.37,54,54,0,0,1,21,8.68,5.47,5.47,0,0,0,7-.64l12.31-12.3,7.72,7.72-12.3,12.31a5.46,5.46,0,0,0-.64,7,54,54,0,0,1,8.68,21,5.46,5.46,0,0,0,5.37,4.47h17.42v10.92H242.74a5.46,5.46,0,0,0-5.37,4.47,54,54,0,0,1-8.68,21,5.46,5.46,0,0,0,.64,7L241.63,237l-7.72,7.72-12.31-12.3a5.46,5.46,0,0,0-6.95-.64,54.05,54.05,0,0,1-21,8.68A5.46,5.46,0,0,0,189.18,245.82Z"/>
      <path class="cls-2" d="M183.72,143.12A43.68,43.68,0,1,0,227.4,186.8,43.67,43.67,0,0,0,183.72,143.12Zm0,76.44a32.76,32.76,0,1,1,32.76-32.76A32.76,32.76,0,0,1,183.72,219.56Z"/>
      <path class="cls-2" d="M183.72,170.42A16.38,16.38,0,1,0,200.1,186.8,16.38,16.38,0,0,0,183.72,170.42Zm0,21.84a5.46,5.46,0,1,1,5.46-5.46A5.45,5.45,0,0,1,183.72,192.26Z"/>
      <path class="cls-2" d="M309.3,334.22H295.19l-.28-.67,10-10a5.46,5.46,0,0,0,0-7.72l-15.44-15.45a5.46,5.46,0,0,0-7.72,0l-10,10-.67-.28V296a5.47,5.47,0,0,0-5.46-5.46H243.78a5.46,5.46,0,0,0-5.46,5.46v14.11l-.67.28-10-10a5.46,5.46,0,0,0-7.72,0l-15.44,15.45a5.46,5.46,0,0,0,0,7.72l10,10-.27.67H200.1a5.46,5.46,0,0,0-5.46,5.46v21.84A5.45,5.45,0,0,0,200.1,367h14.11l.27.68-10,10a5.46,5.46,0,0,0,0,7.72L220,400.79a5.44,5.44,0,0,0,7.72,0l10-10,.67.28v14.1a5.45,5.45,0,0,0,5.46,5.46h21.84a5.46,5.46,0,0,0,5.46-5.46V391.1l.67-.28,10,10a5.44,5.44,0,0,0,7.72,0l15.44-15.44a5.46,5.46,0,0,0,0-7.72l-10-10,.28-.68H309.3a5.46,5.46,0,0,0,5.46-5.46V339.68A5.47,5.47,0,0,0,309.3,334.22Zm-5.46,21.84H291.31a5.47,5.47,0,0,0-5.23,3.9,31.81,31.81,0,0,1-2.56,6.22,5.47,5.47,0,0,0,.94,6.47l8.85,8.84-7.72,7.72-8.85-8.84a5.44,5.44,0,0,0-6.46-.94,33.37,33.37,0,0,1-6.22,2.56,5.45,5.45,0,0,0-3.9,5.23v12.52H249.24V387.22a5.47,5.47,0,0,0-3.9-5.23,33.09,33.09,0,0,1-6.22-2.56,5.44,5.44,0,0,0-6.46.94l-8.85,8.84-7.72-7.72,8.84-8.84a5.46,5.46,0,0,0,.95-6.47,32.48,32.48,0,0,1-2.57-6.22,5.46,5.46,0,0,0-5.23-3.9H205.56V345.14h12.52a5.45,5.45,0,0,0,5.23-3.89,32.21,32.21,0,0,1,2.57-6.22,5.46,5.46,0,0,0-.95-6.47l-8.84-8.85,7.72-7.71,8.85,8.84a5.46,5.46,0,0,0,6.46.94,32.44,32.44,0,0,1,6.22-2.56,5.47,5.47,0,0,0,3.9-5.23V301.46h10.92V314a5.45,5.45,0,0,0,3.9,5.23,32.7,32.7,0,0,1,6.22,2.56,5.46,5.46,0,0,0,6.46-.94l8.85-8.84,7.72,7.71-8.85,8.85a5.47,5.47,0,0,0-.94,6.47,31.56,31.56,0,0,1,2.56,6.22,5.46,5.46,0,0,0,5.23,3.89h12.53Z"/>
      <path class="cls-2" d="M254.7,328.76a21.84,21.84,0,1,0,21.84,21.84A21.84,21.84,0,0,0,254.7,328.76Zm0,32.76a10.92,10.92,0,1,1,10.92-10.92A10.92,10.92,0,0,1,254.7,361.52Z"/>
      <path class="cls-2" d="M418.5,219.56H399.27a49.35,49.35,0,0,0-2-4.77l13.59-13.6a5.46,5.46,0,0,0,0-7.72L395.45,178a5.46,5.46,0,0,0-7.72,0l-13.6,13.6a49.43,49.43,0,0,0-4.77-2V170.42A5.45,5.45,0,0,0,363.9,165H342.06a5.45,5.45,0,0,0-5.46,5.46v19.23a49.43,49.43,0,0,0-4.77,2L318.23,178a5.46,5.46,0,0,0-7.72,0l-15.44,15.44a5.46,5.46,0,0,0,0,7.72l13.6,13.6a49.43,49.43,0,0,0-2,4.77H287.46A5.46,5.46,0,0,0,282,225v21.84a5.45,5.45,0,0,0,5.46,5.46h19.23a48.4,48.4,0,0,0,2,4.77l-13.6,13.6a5.46,5.46,0,0,0,0,7.72l15.44,15.44a5.46,5.46,0,0,0,7.72,0l13.6-13.59a49.35,49.35,0,0,0,4.77,2v19.23a5.45,5.45,0,0,0,5.46,5.46H363.9a5.45,5.45,0,0,0,5.46-5.46V282.23a49.35,49.35,0,0,0,4.77-2l13.6,13.59a5.46,5.46,0,0,0,7.72,0l15.44-15.44a5.46,5.46,0,0,0,0-7.72l-13.59-13.6a48.32,48.32,0,0,0,2-4.77H418.5a5.45,5.45,0,0,0,5.46-5.46V225A5.46,5.46,0,0,0,418.5,219.56ZM413,241.4H395.23a5.46,5.46,0,0,0-5.28,4.1,38.05,38.05,0,0,1-4.08,9.82,5.46,5.46,0,0,0,.85,6.64l12.59,12.59-7.72,7.72L379,269.69a5.45,5.45,0,0,0-6.64-.85,38.47,38.47,0,0,1-9.83,4.08,5.45,5.45,0,0,0-4.09,5.28V296H347.52V278.19a5.46,5.46,0,0,0-4.09-5.28,38.12,38.12,0,0,1-9.83-4.08,5.48,5.48,0,0,0-6.64.85l-12.59,12.59-7.72-7.72L319.24,262a5.46,5.46,0,0,0,.84-6.64,38.47,38.47,0,0,1-4.08-9.83,5.44,5.44,0,0,0-5.27-4.09H292.92V230.48h17.81a5.46,5.46,0,0,0,5.28-4.09,38.47,38.47,0,0,1,4.08-9.83,5.45,5.45,0,0,0-.85-6.64l-12.59-12.59,7.72-7.72L327,202.2a5.46,5.46,0,0,0,6.64.84,38.09,38.09,0,0,1,9.83-4.07,5.48,5.48,0,0,0,4.1-5.28V175.88h10.92v17.81a5.45,5.45,0,0,0,4.09,5.28,38.47,38.47,0,0,1,9.83,4.08,5.45,5.45,0,0,0,6.64-.85l12.59-12.59,7.72,7.72-12.59,12.59a5.48,5.48,0,0,0-.85,6.64,37.77,37.77,0,0,1,4.08,9.83,5.48,5.48,0,0,0,5.28,4.1H413Z"/>
    </g>
  </g>
</svg>
