<svg xmlns="http://www.w3.org/2000/svg" viewBox="0 0 511.96 511.96">
  <defs>
    <style>
      .cls-1 {
        fill: #252a4c;
      }

      .cls-2 {
        fill: #fff;
      }
    </style>
  </defs>
  <title>Element 6</title>
  <g id="Ebene_2" data-name="Ebene 2">
    <g id="Capa_1" data-name="Capa 1">
      <circle class="cls-1" cx="255.98" cy="255.98" r="255.98"/>
      <g>
        <path class="cls-2" d="M374.18,238.76c7.42-40.34-4.7-95.8-48.89-122.22A122.75,122.75,0,0,0,233.56,105c-42.82,11.46-74.3,42.18-84.2,82.2a81.61,81.61,0,0,0-2.77,24.93,84.21,84.21,0,0,0,2.88,15.41,66.76,66.76,0,0,1,2.84,19.76c-.2,8-5.69,16.23-10.54,23.52-5.28,8-9.84,14.84-7.2,21.18a15.57,15.57,0,0,0,11.89,7.61,6.11,6.11,0,0,0,.86.09,4.43,4.43,0,0,1,3.62,1.19,4.48,4.48,0,0,1,1.37,3.56c0,9.88.24,15,4.32,17.31a8.9,8.9,0,0,0-.73,2.35,8.46,8.46,0,0,0,2.67,7.49,14.45,14.45,0,0,0,7.54,3.85l.58.13a12.69,12.69,0,0,1,.15,2.14,51.85,51.85,0,0,1-.38,5.28c-.79,7.61-1.87,18,13.34,23a31.69,31.69,0,0,0,9.39,1.14,148.94,148.94,0,0,0,42.26-8.1,53.6,53.6,0,0,1,7,22.38,4.75,4.75,0,0,0,4.75,4.75H362a4.73,4.73,0,0,0,4.44-3.29,4.87,4.87,0,0,0-1.7-5.35c-4.92-3.73-21.21-43.08-21.71-57.22,1.43-3.26,3.36-6.92,5.64-11.17A223.43,223.43,0,0,0,374.18,238.76Zm-40.69,81.07c.12,11.37,10.37,41.41,19.17,56.82H247.5a67.87,67.87,0,0,0-7-20.85c13.78-5.4,25.91-12.34,31.74-20a4.76,4.76,0,0,0-7.56-5.77c-13.46,17.6-69.44,31-81.93,26.88-7.92-2.59-7.6-5.63-6.84-13a62.68,62.68,0,0,0,.43-6.27c0-8-3.24-10.4-8.09-11.53a6.09,6.09,0,0,1-2.56-1,13.36,13.36,0,0,1,3.14-2.23,4.75,4.75,0,0,0-2.09-9c-1.72,0-3.63,0-4.63-.12a75.33,75.33,0,0,1-.31-9.38,13.9,13.9,0,0,0-13.91-14.25c-3.43-.72-4.47-1.65-4.55-1.87-.7-1.65,3.89-8.54,6.35-12.25,5.28-7.94,11.85-17.84,12.11-28.54a66.26,66.26,0,0,0-2-17.63A47.24,47.24,0,0,1,177.78,220a14.7,14.7,0,0,1,7.06.5,4.76,4.76,0,1,0,2.53-9.17,24,24,0,0,0-11.56-.63,48.91,48.91,0,0,0-18.42,9.15,57.16,57.16,0,0,1-1.32-8.42,70.56,70.56,0,0,1,2.52-22c9.19-37.15,37.41-64.59,77.43-75.29a112.89,112.89,0,0,1,84.39,10.52c40.29,24.1,51.27,75.13,44.41,112.34a212.09,212.09,0,0,1-24.54,67.61c-2.61,4.87-4.87,9.08-6.49,13A4.59,4.59,0,0,0,333.49,319.83Z"/>
        <path class="cls-2" d="M342.92,249.63a14.25,14.25,0,0,0-11.58-15.33l-9.1-12.62a14.05,14.05,0,0,0,1.27-3.26l8.82-3.52a14.23,14.23,0,1,0,13.77-23.28L339,177.37a14.2,14.2,0,0,0-17.47-22.11l-8-6.62a14,14,0,0,0,.93-4.93,14.23,14.23,0,0,0-24.54-9.84l-14.09-3.53a14.17,14.17,0,0,0-27.28-.16L229.72,134A14.19,14.19,0,0,0,207,150.7L197.79,163A14.22,14.22,0,0,0,197,190.8l7.63,18.84A14.24,14.24,0,1,0,228,224.53h25.52a13.79,13.79,0,0,0,15.57,9.29l15.78,24a14.23,14.23,0,1,0,24.57,12l11.78-9.42a14.19,14.19,0,0,0,21.69-10.75Zm.06-48.87a4.75,4.75,0,1,1-4.35,6.64s0-.09,0-.13l0-.05a4.7,4.7,0,0,1,4.41-6.46Zm-18.91-34.24a4.75,4.75,0,1,1,4.65,5.71,4.53,4.53,0,0,1-1.71-.34l0,0a.69.69,0,0,0-.13,0A4.74,4.74,0,0,1,324.07,166.52Zm-4.73,11.62h0l-8.79,22-15.4-12.32a14.18,14.18,0,0,0,4.4-6.76l18.83-3.77C318.68,177.57,319,177.85,319.34,178.14Zm-5.06,38.16a4.75,4.75,0,1,1-4.57-6,4.61,4.61,0,0,1,1.71.34l0,0s.09,0,.13,0A4.74,4.74,0,0,1,314.28,216.3ZM300.2,139a4.76,4.76,0,1,1-4.76,4.75A4.75,4.75,0,0,1,300.2,139Zm-25,1L286,142.7c0,.34-.1.66-.1,1A14.26,14.26,0,0,0,300.2,158a14.06,14.06,0,0,0,7.23-2l8,6.61a14.13,14.13,0,0,0-.93,4.93c0,.29.07.56.08.84l-15.48,3.1A14.26,14.26,0,0,0,288.13,163l-17.41-17.41A14.24,14.24,0,0,0,275.18,140Zm15.51,37a4.76,4.76,0,1,1-4.75-4.75A4.75,4.75,0,0,1,290.69,177Zm-28.52-47.54a4.76,4.76,0,1,1-4.76,4.75A4.75,4.75,0,0,1,262.17,129.45Zm.94,21.93,14.27,14.27a14.24,14.24,0,0,0-4.83,6.59H261.29a14.27,14.27,0,0,0-6.2-7.5Zm-29.55-8.51L249,139.78a14.32,14.32,0,0,0,5.94,6.67l-8.63,14.38-14.92-9.57a14,14,0,0,0,2.21-7.55C233.64,143.42,233.57,143.16,233.56,142.87ZM252.66,177a4.76,4.76,0,1,1-4.75-4.75A4.75,4.75,0,0,1,252.66,177Zm-33.28-38a4.76,4.76,0,1,1-4.75,4.75A4.76,4.76,0,0,1,219.38,139Zm-5.17,18a13.34,13.34,0,0,0,9.11.38L238,166.77a14.19,14.19,0,0,0-3.47,5.47H213.75a14.23,14.23,0,0,0-5.62-7.18Zm-13.84,24.77a4.75,4.75,0,1,1,4.75-4.75A4.75,4.75,0,0,1,200.37,181.74Zm14.26,42.79a4.76,4.76,0,1,1,4.75-4.76A4.76,4.76,0,0,1,214.63,224.53Zm2.7-18.74a14.38,14.38,0,0,0-2.7-.28c-.47,0-.92.1-1.38.14l-6.47-16a14.25,14.25,0,0,0,7-7.92h20.77a14.2,14.2,0,0,0,4.29,6.14ZM253.54,215H228a14,14,0,0,0-2.17-4l23.35-19.46,7.95,17.84A14.11,14.11,0,0,0,253.54,215Zm7.75-33.28h11.26a14.27,14.27,0,0,0,6.2,7.5l-9.89,16.47a14,14,0,0,0-1.94-.2c-.37,0-.71.08-1.07.11l-8.17-18.3A14.24,14.24,0,0,0,261.29,181.74Zm5.63,42.79a4.76,4.76,0,1,1,4.75-4.76A4.75,4.75,0,0,1,266.92,224.53Zm20.29-30.92,13.28,10.62a14.18,14.18,0,0,0-4.4,6.76l-16,3.21a14.56,14.56,0,0,0-2.72-4.11Zm8.23,78.46a4.76,4.76,0,1,1,4.76-4.76A4.76,4.76,0,0,1,295.44,272.07Zm19-23.77a14.16,14.16,0,0,0,.84,4.65l-8,6.42a13.71,13.71,0,0,0-14-6.1l-15.78-24a14.13,14.13,0,0,0,3-5.47l16.05-3.21a14.23,14.23,0,0,0,18.62,7.58l5.87,8.13A14.24,14.24,0,0,0,314.46,248.3Zm4.63-43.93,9.07-22.68c.19,0,.37.05.56.05a14.14,14.14,0,0,0,1.71-.17l5.76,11.48a14.23,14.23,0,0,0-7.47,12.46c0,.2,0,.37.06.57l-6.39,2.55A14.15,14.15,0,0,0,319.09,204.37Zm9.63,48.68a4.76,4.76,0,1,1,4.75-4.75A4.75,4.75,0,0,1,328.72,253.05Z"/>
      </g>
    </g>
  </g>
</svg>
