<svg xmlns="http://www.w3.org/2000/svg" viewBox="0 0 512 512">
  <defs>
    <style>
      .cls-1 {
        fill: #252a4c;
      }

      .cls-2 {
        fill: #fff;
      }
    </style>
  </defs>
  <title>Element 1</title>
  <g id="Ebene_2" data-name="Ebene 2">
    <g id="Capa_1" data-name="Capa 1">
      <circle class="cls-1" cx="256" cy="256" r="256"/>
      <g>
        <path class="cls-2" d="M198.06,318a18.42,18.42,0,0,0-21.08.57,4.38,4.38,0,0,0,5.21,7,9.65,9.65,0,0,1,11.05-.3,4.37,4.37,0,1,0,4.82-7.3Z"/>
        <path class="cls-2" d="M209.31,303a37,37,0,0,0-43.14.27,4.37,4.37,0,1,0,5.14,7.08,28.31,28.31,0,0,1,32.95-.21,4.37,4.37,0,1,0,5.05-7.14Z"/>
        <path class="cls-2" d="M220,287.63a55.8,55.8,0,0,0-64.53.26,4.38,4.38,0,1,0,5.1,7.12,47,47,0,0,1,54.4-.22,4.38,4.38,0,0,0,5-7.16Z"/>
        <path class="cls-2" d="M225.33,226.06H150.7A13.73,13.73,0,0,0,137,239.79V389.67a13.72,13.72,0,0,0,13.72,13.72h74.63a13.73,13.73,0,0,0,13.73-13.72V239.79A13.73,13.73,0,0,0,225.33,226.06Zm0,168.58H150.7a5,5,0,0,1-5-5V239.79a5,5,0,0,1,5-5h74.63a5,5,0,0,1,5,5V389.67A5,5,0,0,1,225.33,394.64Z"/>
        <path class="cls-2" d="M215.82,366.06H159.87a4.5,4.5,0,0,0-4.51,3.83,4.38,4.38,0,0,0,4.35,4.92h55.94a4.49,4.49,0,0,0,4.51-3.83A4.37,4.37,0,0,0,215.82,366.06Z"/>
        <path class="cls-2" d="M192.44,380.64h-9.19a4.48,4.48,0,0,0-4.5,3.83,4.37,4.37,0,0,0,4.34,4.92h9.18a4.48,4.48,0,0,0,4.51-3.82A4.38,4.38,0,0,0,192.44,380.64Z"/>
        <path class="cls-2" d="M393.14,244.73h-4.75V114.06a9.33,9.33,0,0,0-9.33-9.33H178.67a4.36,4.36,0,0,0-4.36,4.36V213.67a1.08,1.08,0,0,0,.27.72c3.55,4,7.9,1.31,7.9-2.41V123.13a9.65,9.65,0,0,1,9.65-9.65H370a9.65,9.65,0,0,1,9.65,9.65v121.6H253.26a4.48,4.48,0,0,0-4.51,3.82,4.37,4.37,0,0,0,4.34,4.93h14.57c0,.1,0,.2,0,.3a4.37,4.37,0,0,0,4.37,4.36h18.67a4.36,4.36,0,0,0,4.36-4.36c0-.1,0-.2,0-.3h93.65a.3.3,0,0,1,.3.3v9.46a.15.15,0,0,1-.16.15H251.92a2.24,2.24,0,0,0-1.68.72c-3.33,3.72-.75,8,2.83,8H393.14a4.59,4.59,0,0,0,4.59-4.58V249.32A4.59,4.59,0,0,0,393.14,244.73Z"/>
        <path class="cls-2" d="M365.35,123.39H197.15a4.18,4.18,0,0,0-4.17,4.18V212a4.25,4.25,0,0,0,3.19,4.2,4.17,4.17,0,0,0,5-4.27v-79.8H361v93.92H253.29a4.5,4.5,0,0,0-4.51,3.83,4.38,4.38,0,0,0,4.35,4.92H365.35a4.38,4.38,0,0,0,4.38-4.37V127.77A4.38,4.38,0,0,0,365.35,123.39Z"/>
      </g>
    </g>
  </g>
</svg>
