<?xml version="1.0" encoding="utf-8"?>
<!-- Generator: Adobe Illustrator 23.0.1, SVG Export Plug-In . SVG Version: 6.00 Build 0)  -->
<svg version="1.1" id="kreis_industrie40" xmlns="http://www.w3.org/2000/svg" xmlns:xlink="http://www.w3.org/1999/xlink" x="0px"
	 y="0px" viewBox="0 0 40 40" style="enable-background:new 0 0 40 40;" xml:space="preserve">
<g>
	<path d="M15.2,21.1v-1.5c0.5-0.1,0.9-0.3,1.4-0.6l1,1c0.2,0.2,0.4,0.2,0.6,0l1.2-1.2c0.2-0.2,0.2-0.4,0-0.6l-1-1
		c0.2-0.4,0.4-0.9,0.6-1.4h1.5c0.2,0,0.4-0.2,0.4-0.4v-1.8c0-0.2-0.2-0.4-0.4-0.4H19c-0.1-0.5-0.3-0.9-0.6-1.4l1-1
		c0.2-0.2,0.2-0.4,0-0.6L18.2,9c-0.2-0.2-0.4-0.2-0.6,0l-1,1c-0.4-0.2-0.9-0.4-1.4-0.6V8c0-0.2-0.2-0.4-0.4-0.4l0,0H13
		c-0.2,0-0.4,0.2-0.4,0.4l0,0v1.5c-0.5,0.1-0.9,0.3-1.4,0.6l-1-1C10,8.8,9.7,8.8,9.6,9l-1.2,1.2c-0.2,0.2-0.2,0.4,0,0.6l1,1
		c-0.2,0.4-0.4,0.9-0.6,1.4H7.3c-0.2,0-0.4,0.2-0.4,0.4l0,0v1.7c0,0.2,0.2,0.4,0.4,0.4l0,0h1.5c0.1,0.5,0.3,0.9,0.6,1.4l-1,1
		c-0.2,0.2-0.2,0.4,0,0.6l1.2,1.2c0.2,0.2,0.4,0.2,0.6,0l1-1c0.4,0.2,0.9,0.4,1.4,0.6v1.5c0,0.2,0.2,0.4,0.4,0.4l0,0h1.7
		C15,21.5,15.2,21.3,15.2,21.1z M14.3,19.3v1.4h-0.9v-1.4c0-0.2-0.2-0.4-0.4-0.4c-0.6-0.1-1.2-0.3-1.7-0.7c-0.2-0.1-0.4-0.1-0.6,0
		l-1,1l-0.6-0.6l1-1c0.2-0.2,0.2-0.4,0-0.6c-0.3-0.5-0.6-1.1-0.7-1.7c0-0.2-0.2-0.4-0.4-0.4H7.8v-0.9h1.4c0.2,0,0.4-0.2,0.4-0.4
		c0.1-0.6,0.3-1.2,0.7-1.7c0.1-0.2,0.1-0.4,0-0.6l-1-1l0.6-0.6l1,1c0.2,0.2,0.4,0.2,0.6,0c0.5-0.4,1.1-0.6,1.7-0.7
		c0.2,0,0.4-0.2,0.4-0.4V8.4h0.9v1.4c0,0.2,0.2,0.4,0.4,0.4c0.6,0.1,1.2,0.3,1.7,0.7c0.2,0.1,0.4,0.1,0.6,0l1-1l0.6,0.6l-1,1
		c-0.2,0.2-0.2,0.4,0,0.6c0.4,0.5,0.6,1.1,0.7,1.7c0,0.2,0.2,0.4,0.4,0.4H20V15h-1.4c-0.2,0-0.4,0.2-0.4,0.4
		c-0.1,0.6-0.3,1.2-0.7,1.7c-0.1,0.2-0.1,0.4,0,0.6l1,1l-0.6,0.6l-1-1c-0.2-0.2-0.4-0.2-0.6,0c-0.5,0.3-1.1,0.6-1.7,0.7
		C14.5,18.9,14.3,19,14.3,19.3L14.3,19.3z"/>
	<path d="M13.9,11c-1.9,0-3.5,1.6-3.5,3.5S12,18,13.9,18s3.5-1.6,3.5-3.5S15.8,11,13.9,11L13.9,11z M13.9,17.2
		c-1.4,0-2.6-1.2-2.6-2.6s1.2-2.6,2.6-2.6s2.6,1.2,2.6,2.6l0,0C16.5,16,15.3,17.2,13.9,17.2z"/>
	<path d="M13.9,13.2c-0.7,0-1.3,0.6-1.3,1.3c0,0.7,0.6,1.3,1.3,1.3c0.7,0,1.3-0.6,1.3-1.3C15.2,13.8,14.6,13.2,13.9,13.2L13.9,13.2z
		 M13.9,15c-0.2,0-0.4-0.2-0.4-0.4c0-0.2,0.2-0.4,0.4-0.4c0.2,0,0.4,0.2,0.4,0.4C14.3,14.8,14.1,15,13.9,15L13.9,15z"/>
	<path d="M23.9,26.3h-1.1l0-0.1l0.8-0.8c0.2-0.2,0.2-0.4,0-0.6l-1.2-1.2c-0.2-0.2-0.4-0.2-0.6,0l-0.8,0.8l-0.1,0v-1.1
		c0-0.2-0.2-0.4-0.4-0.4h-1.7c-0.2,0-0.4,0.2-0.4,0.4v1.1l-0.1,0l-0.8-0.8c-0.2-0.2-0.4-0.2-0.6,0l-1.2,1.2c-0.2,0.2-0.2,0.4,0,0.6
		l0.8,0.8l0,0.1h-1.1c-0.2,0-0.4,0.2-0.4,0.4v1.7c0,0.2,0.2,0.4,0.4,0.4l0,0h1.1l0,0.1l-0.8,0.8c-0.2,0.2-0.2,0.4,0,0.6l1.2,1.2
		c0.2,0.2,0.4,0.2,0.6,0l0,0l0.8-0.8l0.1,0V32c0,0.2,0.2,0.4,0.4,0.4l0,0h1.7c0.2,0,0.4-0.2,0.4-0.4v-1.1l0.1,0l0.8,0.8
		c0.2,0.2,0.4,0.2,0.6,0l0,0l1.2-1.2c0.2-0.2,0.2-0.4,0-0.6L22.8,29l0-0.1h1.1c0.2,0,0.4-0.2,0.4-0.4v-1.7
		C24.4,26.5,24.2,26.3,23.9,26.3z M23.5,28.1h-1c-0.2,0-0.4,0.1-0.4,0.3c0,0.2-0.1,0.3-0.2,0.5c-0.1,0.2-0.1,0.4,0.1,0.5l0.7,0.7
		L22,30.7L21.3,30c-0.1-0.1-0.3-0.2-0.5-0.1c-0.2,0.1-0.3,0.2-0.5,0.2c-0.2,0.1-0.3,0.2-0.3,0.4v1h-0.9v-1c0-0.2-0.1-0.4-0.3-0.4
		c-0.2,0-0.3-0.1-0.5-0.2c-0.2-0.1-0.4-0.1-0.5,0.1l-0.7,0.7l-0.6-0.6l0.7-0.7c0.1-0.1,0.2-0.3,0.1-0.5c-0.1-0.2-0.2-0.3-0.2-0.5
		c-0.1-0.2-0.2-0.3-0.4-0.3h-1v-0.9h1c0.2,0,0.4-0.1,0.4-0.3c0-0.2,0.1-0.3,0.2-0.5c0.1-0.2,0.1-0.4-0.1-0.5l-0.7-0.7l0.6-0.6
		l0.7,0.7c0.1,0.1,0.3,0.2,0.5,0.1c0.2-0.1,0.3-0.2,0.5-0.2c0.2-0.1,0.3-0.2,0.3-0.4v-1H20v1c0,0.2,0.1,0.4,0.3,0.4
		c0.2,0,0.3,0.1,0.5,0.2c0.2,0.1,0.4,0.1,0.5-0.1l0.7-0.7l0.6,0.6l-0.7,0.7c-0.1,0.1-0.2,0.3-0.1,0.5c0.1,0.2,0.2,0.3,0.2,0.5
		c0.1,0.2,0.2,0.3,0.4,0.3h1V28.1z"/>
	<path d="M19.6,25.9c-1,0-1.7,0.8-1.7,1.7c0,1,0.8,1.7,1.7,1.7c1,0,1.7-0.8,1.7-1.7C21.3,26.7,20.5,25.9,19.6,25.9L19.6,25.9z
		 M19.6,28.5c-0.5,0-0.9-0.4-0.9-0.9c0-0.5,0.4-0.9,0.9-0.9c0.5,0,0.9,0.4,0.9,0.9C20.4,28.1,20.1,28.5,19.6,28.5L19.6,28.5z"/>
	<path d="M27.4,16.7c-1,0-1.7,0.8-1.7,1.7c0,1,0.8,1.7,1.7,1.7c1,0,1.7-0.8,1.7-1.7C29.2,17.5,28.4,16.7,27.4,16.7L27.4,16.7z
		 M27.4,19.3c-0.5,0-0.9-0.4-0.9-0.9c0-0.5,0.4-0.9,0.9-0.9c0.5,0,0.9,0.4,0.9,0.9C28.3,19,27.9,19.3,27.4,19.3L27.4,19.3z"/>
	<path d="M32.7,17.2h-1.5c0-0.1-0.1-0.3-0.2-0.4l1.1-1.1c0.2-0.2,0.2-0.4,0-0.6l-1.2-1.2c-0.2-0.2-0.4-0.2-0.6,0l-1.1,1.1
		c-0.1-0.1-0.2-0.1-0.4-0.2v-1.5c0-0.2-0.2-0.4-0.4-0.4h-1.7c-0.2,0-0.4,0.2-0.4,0.4l0,0v1.5c-0.1,0-0.3,0.1-0.4,0.2l-1.1-1.1
		c-0.2-0.2-0.4-0.2-0.6,0l-1.2,1.2c-0.2,0.2-0.2,0.4,0,0.6l1.1,1.1c-0.1,0.1-0.1,0.2-0.2,0.4h-1.5c-0.2,0-0.4,0.2-0.4,0.4l0,0v1.7
		c0,0.2,0.2,0.4,0.4,0.4l0,0h1.5c0,0.1,0.1,0.3,0.2,0.4l-1.1,1.1c-0.2,0.2-0.2,0.4,0,0.6l1.2,1.2c0.2,0.2,0.4,0.2,0.6,0l1.1-1.1
		c0.1,0.1,0.2,0.1,0.4,0.2v1.5c0,0.2,0.2,0.4,0.4,0.4l0,0h1.7c0.2,0,0.4-0.2,0.4-0.4l0,0v-1.5c0.1,0,0.3-0.1,0.4-0.2l1.1,1.1
		c0.2,0.2,0.4,0.2,0.6,0l1.2-1.2c0.2-0.2,0.2-0.4,0-0.6L31,20.2c0.1-0.1,0.1-0.2,0.2-0.4h1.5c0.2,0,0.4-0.2,0.4-0.4l0,0v-1.8
		C33.1,17.4,32.9,17.2,32.7,17.2z M32.2,18.9h-1.4c-0.2,0-0.4,0.1-0.4,0.3c-0.1,0.3-0.2,0.5-0.3,0.8c-0.1,0.2-0.1,0.4,0.1,0.5l1,1
		l-0.6,0.6l-1-1C29.4,21,29.2,21,29,21.1c-0.2,0.1-0.5,0.3-0.8,0.3c-0.2,0-0.3,0.2-0.3,0.4v1.4H27v-1.4c0-0.2-0.1-0.4-0.3-0.4
		c-0.3-0.1-0.5-0.2-0.8-0.3c-0.2-0.1-0.4-0.1-0.5,0.1l-1,1l-0.6-0.6l1-1c0.1-0.1,0.2-0.4,0.1-0.5c-0.1-0.2-0.3-0.5-0.3-0.8
		c0-0.2-0.2-0.3-0.4-0.3h-1.4V18h1.4c0.2,0,0.4-0.1,0.4-0.3c0.1-0.3,0.2-0.5,0.3-0.8c0.1-0.2,0.1-0.4-0.1-0.5l-1-1l0.6-0.6l1,1
		c0.1,0.1,0.4,0.2,0.5,0.1c0.2-0.1,0.5-0.3,0.8-0.3c0.2,0,0.3-0.2,0.3-0.4v-1.4h0.9v1.4c0,0.2,0.1,0.4,0.3,0.4
		c0.3,0.1,0.5,0.2,0.8,0.3c0.2,0.1,0.4,0.1,0.5-0.1l1-1l0.6,0.6l-1,1c-0.1,0.1-0.2,0.4-0.1,0.5c0.1,0.2,0.3,0.5,0.3,0.8
		c0,0.2,0.2,0.3,0.4,0.3h1.4V18.9z"/>
</g>
</svg>
