<?xml version="1.0" encoding="utf-8"?>
<!-- Generator: Adobe Illustrator 23.0.1, SVG Export Plug-In . SVG Version: 6.00 Build 0)  -->
<svg version="1.1" id="kreis_smartservices" xmlns="http://www.w3.org/2000/svg" xmlns:xlink="http://www.w3.org/1999/xlink"
	 x="0px" y="0px" viewBox="0 0 40 40" style="enable-background:new 0 0 40 40;" xml:space="preserve">
<path d="M29.8,15.2c0.5,0,1-0.4,1-1v-3.3c0-0.5-0.4-1-1-1h-4.6c-0.5,0-1,0.4-1,1v3.3c0,0.5,0.4,1,1,1h1v0.7h-0.7v0.7h1.6v3.3h-1.4
	c-0.3-0.3-0.6-0.5-1-0.6c0,0,0-0.1,0-0.1c0-1.5-1.2-2.6-2.6-2.6c-0.9,0-1.7,0.5-2.2,1.2c-0.3-0.2-0.7-0.2-1.1-0.2
	c-1.1,0-2.1,0.7-2.5,1.7c-0.2,0.1-0.5,0.1-0.7,0.3h-2.5v-1h1.3c0.5,0,1-0.4,1-1v-6.6c0-0.5-0.4-1-1-1h-3.3c-0.5,0-1,0.4-1,1v6.6
	c0,0.5,0.4,1,1,1h1.3v1.6H15c-0.1,0.2-0.3,0.4-0.3,0.7h-1.4v3.6h-1.3c-0.5,0-1,0.4-1,1v3h-0.6v1c0,0.5,0.4,1,1,1h5.3
	c0.5,0,1-0.4,1-1v-1h-0.7v-3c0-0.5-0.4-1-1-1h-2v-3h0.7c0,1.3,1,2.3,2.3,2.3h7.3c1.1,0,2.1-0.8,2.3-2h1.3v2.6h-2.3v5.9h5.3v-5.9
	h-2.3v-3.3h-2c0-0.2-0.1-0.5-0.2-0.7h1.6v-4h1.6v-0.7h-0.7v-0.7L29.8,15.2L29.8,15.2z M14.9,15.2h-4v-3.3h4V15.2z M11.3,10.6h3.3
	c0.2,0,0.3,0.1,0.3,0.3l0,0v0.3h-4v-0.3C10.9,10.8,11.1,10.6,11.3,10.6z M10.9,17.6v-1.6h4v1.6c0,0.2-0.1,0.3-0.3,0.3h-3.3
	C11.1,17.9,10.9,17.7,10.9,17.6L10.9,17.6z M16.9,29.4c0,0.2-0.1,0.3-0.3,0.3l0,0h-5.3c-0.2,0-0.3-0.1-0.3-0.3v-0.3h5.9L16.9,29.4
	L16.9,29.4z M16.2,25.5v3h-4.6v-3c0-0.2,0.1-0.3,0.3-0.3h4C16.1,25.1,16.2,25.3,16.2,25.5z M26.1,29.8v-2h4v2H26.1z M30.1,27.1h-4
	v-2h4V27.1z M24.2,23.2h-7.3c-0.9,0-1.6-0.7-1.7-1.6c0-0.8,0.6-1.5,1.5-1.6l0.2,0l0.1-0.2c0.3-1,1.4-1.7,2.4-1.3
	c0.2,0,0.3,0.1,0.5,0.2l0.3,0.2l0.2-0.3c0.5-1,1.6-1.4,2.6-1c0.8,0.4,1.3,1.2,1.1,2.1l0,0.3l0.3,0c0.9,0.1,1.5,1,1.4,1.9
	C25.7,22.6,25,23.2,24.2,23.2L24.2,23.2z M25.1,10.6h4.6c0.2,0,0.3,0.1,0.3,0.3l0,0v2.3h-5.3V11C24.8,10.8,25,10.6,25.1,10.6
	L25.1,10.6z M24.8,14.2v-0.3h5.3v0.3c0,0.2-0.1,0.3-0.3,0.3l0,0h-4.6C25,14.6,24.8,14.4,24.8,14.2L24.8,14.2L24.8,14.2z M28.1,15.9
	h-1.3v-0.7h1.3V15.9z"/>
</svg>
