<?xml version="1.0" encoding="utf-8"?>
<!-- Generator: Adobe Illustrator 23.0.1, SVG Export Plug-In . SVG Version: 6.00 Build 0)  -->
<svg version="1.1" id="Layer_1" xmlns="http://www.w3.org/2000/svg" xmlns:xlink="http://www.w3.org/1999/xlink" x="0px" y="0px"
	 viewBox="0 0 510.1 510.1" style="enable-background:new 0 0 510.1 510.1;" xml:space="preserve">
<style type="text/css">
	.st0{fill:#FFFFFF;}
	.st1{fill:#FFDB5B;}
</style>
<title>Element 3</title>
<g id="Ebene_2">
	<g id="Capa_1">
		<circle class="st0" cx="255" cy="255" r="255"/>
		<g>
			<path class="st1" d="M377.4,139.9c-63.6-63.6-166.7-63.6-230.3,0s-63.6,166.7,0,230.3s166.7,63.6,230.3,0
				c30.6-30.5,47.7-72,47.7-115.2C425.2,211.8,408,170.4,377.4,139.9z M414.6,249.6h-31.2c-1.2-28.5-12.5-55.7-31.9-76.8l22-22.1
				C398.8,177.6,413.3,212.8,414.6,249.6z M262.2,102.6c38.6,0,75.8,14.7,104,41.1l-22,22.1c-46.3-42.6-117.6-42.6-163.9,0
				l-22.1-22.1C186.4,117.2,223.6,102.6,262.2,102.6L262.2,102.6z M150.9,150.8l22,22.1c-19.4,21-30.6,48.2-31.9,76.8h-31.2
				C111.1,212.7,125.7,177.6,150.9,150.8z M191.5,340.2c-2.2-1.8-5.5-1.5-7.3,0.7c-1.8,2.2-1.5,5.5,0.7,7.3
				c20.4,17.1,45.9,26.9,72.5,28.1v31.2c-79.9-2.7-144.5-67.2-147.1-147.1h31.2c1.2,26.6,11,52.1,28.1,72.5c1.8,2.2,5.1,2.5,7.3,0.7
				c2.2-1.8,2.5-5.1,0.7-7.3c-16.6-19.9-25.8-45-25.8-71c0-70.1,65.3-125.2,138.3-107.6c35.3,8.5,71.5,44.8,80,80
				c17.7,73-37.4,138.4-107.5,138.4C236.5,366,211.4,356.9,191.5,340.2L191.5,340.2z M267.5,407.4v-31.2c45.2-2,85.6-29,104.7-70
				l28.8,11.9C377,370.8,325.3,405.4,267.5,407.4z M405,308.7l-28.8-11.9c4.3-11.7,6.7-23.9,7.2-36.4h31.2
				C414.1,276.9,410.8,293.2,405,308.7z"/>
			<path class="st1" d="M262.2,161.5c-51.7,0-93.6,41.9-93.6,93.6s41.9,93.6,93.6,93.6s93.5-41.9,93.5-93.6c0,0,0,0,0,0
				C355.7,203.4,313.8,161.6,262.2,161.5z M345.2,249.6h-48.4c-0.2-13.1-1.5-26.1-3.8-39c9.9-3.5,19.2-8.6,27.4-15.1
				C335.1,209.8,343.9,229.1,345.2,249.6L345.2,249.6z M312.4,188.8c-6.6,5-13.9,9-21.6,11.8c-0.9-3.4-1.8-6.6-2.8-9.6
				c-1.9-6-4.5-11.7-7.8-17.1C291.9,176.4,302.9,181.5,312.4,188.8L312.4,188.8z M238,249.6c0.2-12.1,1.3-24.2,3.4-36.1
				c13.7,3.1,27.8,3.1,41.5,0c2.1,11.9,3.3,24,3.5,36.1H238z M286.4,260.4c-0.2,12.1-1.3,24.2-3.4,36.1c-13.7-3.1-27.8-3.1-41.5,0
				c-2.1-11.9-3.3-24-3.5-36.1H286.4z M262.2,171.9c4.1,0,10.4,5.9,15.9,22.4c1,2.9,1.9,6,2.7,9.3c-12.2,2.8-24.9,2.8-37.1,0
				c0.8-3.3,1.7-6.4,2.7-9.3C251.8,177.8,258.1,171.9,262.2,171.9L262.2,171.9z M244.2,173.9c-3.3,5.4-5.8,11.1-7.7,17.1
				c-1,3.1-1.9,6.3-2.8,9.6c-7.8-2.8-15.1-6.8-21.6-11.8C221.6,181.6,232.6,176.4,244.2,173.9L244.2,173.9z M204,195.4
				c8.2,6.5,17.5,11.7,27.4,15.1c-2.3,12.9-3.6,25.9-3.8,39h-48.4C180.5,229.1,189.3,209.8,204,195.4z M179.2,260.4h48.4
				c0.2,13.1,1.5,26.1,3.8,39c-9.9,3.5-19.2,8.6-27.4,15.1C189.3,300.2,180.5,280.9,179.2,260.4L179.2,260.4z M212,321.3
				c6.6-5,13.9-9,21.6-11.8c0.9,3.4,1.8,6.6,2.8,9.6c1.9,6,4.5,11.7,7.8,17.1C232.5,333.6,221.6,328.5,212,321.3L212,321.3z
				 M262.2,338.2c-4.1,0-10.4-5.9-15.9-22.4c-1-2.9-1.9-6.1-2.7-9.3c12.2-2.8,24.9-2.8,37.1,0c-0.8,3.3-1.7,6.4-2.7,9.3
				C272.6,332.3,266.3,338.2,262.2,338.2L262.2,338.2z M280.2,336.2c3.3-5.4,5.9-11.1,7.8-17.1c1-3,1.9-6.3,2.8-9.6
				c7.8,2.9,15,6.9,21.6,11.9C302.9,328.6,291.9,333.6,280.2,336.2L280.2,336.2z M320.4,314.5c-8.2-6.5-17.5-11.6-27.4-15.1
				c2.3-12.9,3.6-25.9,3.8-39h48.4C343.9,280.9,335.1,300.2,320.4,314.5L320.4,314.5z"/>
		</g>
	</g>
</g>
</svg>
