<?xml version="1.0" encoding="utf-8"?>
<!-- Generator: Adobe Illustrator 23.0.1, SVG Export Plug-In . SVG Version: 6.00 Build 0)  -->
<svg version="1.1" id="svg_smartServices" class="smartServices-image" xmlns="http://www.w3.org/2000/svg" xmlns:xlink="http://www.w3.org/1999/xlink" x="0px"
   y="0px" viewBox="0 0 512 512" style="enable-background:new 0 0 512 512;" xml:space="preserve">
<path class="map-path st5" d="M482.8,134.5c13.4,0,24.3-10.9,24.3-24.3V29.2c0-13.4-10.9-24.3-24.3-24.3H369.3c-13.4,0-24.3,10.9-24.3,24.3
  v81c0,13.4,10.9,24.3,24.3,24.3h24.3v16.1h-16.1v16.1H418v81h-33.4c-6.5-6.3-14.5-11.2-23.4-13.8c0-0.7,0.1-1.6,0.1-2.4
  c0-35.8-29-64.8-64.8-64.8c-22.1,0-42.8,11.5-54.5,30c-8.4-3.8-17.3-5.7-26.4-5.7c-26.8,0-51.1,17-60.5,41.8
  c-6.2,1.3-11.8,3.8-17.1,6.8H77.8v-24.3h32.4c13.4,0,24.3-10.9,24.3-24.3v-162c0-13.4-10.9-24.3-24.2-24.3h-81
  C15.8,4.9,4.9,15.8,4.9,29.2v162.1c0,13.4,10.9,24.3,24.3,24.3h32.4V256h59c-3.5,4.9-6.1,10.3-7.9,16.1h-35v89H45.4
  c-13.4,0-24.3,10.9-24.3,24.3v72.9H4.9v24.3c0,13.4,10.9,24.3,24.3,24.3h129.6c13.4,0,24.3-10.9,24.3-24.3v-24.3H167v-72.9
  c0-13.4-10.9-24.3-24.3-24.3H94v-72.9h16.1c0,31.2,25.4,56.7,56.7,56.7h178.2c28.5,0,52.1-21.2,56-48.5h33v64.8h-56.7V507h129.7
  V361.3h-56.7v-81h-49.3c-0.8-5.7-2.5-11.1-5-16.1h38.2v-97.2h40.4v-16.1h-16.1v-16.1L482.8,134.5L482.8,134.5z"/>
<path class="map-path st5" d="M345,328.9H167c-22.3,0-40.5-18.1-40.5-40.5c0-20.5,15.3-37.7,35.6-40.3l5.3-0.7l1.5-5.1c6-20.5,25.2-35,46.7-35
  c8.9,0,17.7,2.5,25.4,7.2l7.8,4.8l3.8-8.3c8-17.1,25.2-28.1,44-28.1c26.7,0,48.5,21.8,48.5,48.5c0,2.3-0.2,4.6-0.7,7.4l-1.2,8.1
  l8.1,1.2c19.6,2.9,34.3,20.2,34.3,40.1C385.6,310.7,367.4,328.9,345,328.9z"/>

  <path class="map-path st6" d="M53.4,167h32.4v16.1H53.4V167z"/>
  <rect class="map-path st6" x="21" y="53.4" width="97.2" height="81"/>
  <path class="map-path st6" d="M29.2,21h81c4.5,0,8.2,3.7,8.2,8.2v8.1H21v-8.2C21,24.7,24.7,21,29.2,21z"/>
  <path class="map-path st6" d="M21,191.2v-40.5h97.2v40.5c0,4.5-3.7,8.2-8.2,8.2H29.2C24.7,199.3,21,195.7,21,191.2z"/>

  <path class="map-path st7" d="M167,482.8c0,4.5-3.7,8.2-8.2,8.2H29.2c-4.5,0-8.2-3.7-8.2-8.2v-8.1h145.7L167,482.8L167,482.8z"/>
  <path class="map-path st7" d="M150.6,385.6v72.9H37.3v-72.9c0-4.5,3.7-8.2,8.2-8.2h97.2C147.1,377.5,150.6,381.2,150.6,385.6z"/>

  <path class="map-path st8" d="M369.3,21h113.3c4.5,0,8.2,3.7,8.2,8.2v56.7H361.4V29.2C361.4,24.7,364.9,21,369.3,21z"/>
  <path class="map-path st8" d="M361.4,110.3v-8.2H491v8.2c0,4.5-3.7,8.2-8.2,8.2H369.3C364.9,118.2,361.4,114.7,361.4,110.3z"/>
  <rect class="map-path st8" x="409.9" y="134.5" width="32.4" height="16.1"/>

  <rect class="map-path st9" x="393.8" y="442.4" width="97.2" height="48.5"/>
  <rect class="map-path st9" x="393.8" y="377.5" width="97.2" height="48.5"/>
  <path class="map-path st9" d="M409.9,393.8h16.1v16.1h-16.1V393.8z"/>
  <path class="map-path st9" d="M458.6,458.6h16.1v16.1h-16.1V458.6z"/>
  <path class="map-path st9" d="M442.3,393.8h32.4v16.1h-32.4V393.8z"/>
  <path class="map-path st9" d="M409.9,458.6h32.4v16.1h-32.4V458.6z"/>

</svg>