<?xml version="1.0" encoding="utf-8"?>
<!-- Generator: Adobe Illustrator 23.0.1, SVG Export Plug-In . SVG Version: 6.00 Build 0)  -->
<svg version="1.1" id="kreis_bigdata" xmlns="http://www.w3.org/2000/svg" xmlns:xlink="http://www.w3.org/1999/xlink" x="0px"
	 y="0px" viewBox="0 0 40 40" style="enable-background:new 0 0 40 40;" xml:space="preserve">
<g>
	<path d="M29.2,10.8c-5.1-5.1-13.3-5.1-18.4,0s-5.1,13.3,0,18.4s13.3,5.1,18.4,0c2.4-2.4,3.8-5.8,3.8-9.2
		C33,16.5,31.7,13.2,29.2,10.8z M32.2,19.6h-2.5c-0.1-2.3-1-4.5-2.6-6.1l1.8-1.8C30.9,13.8,32.1,16.6,32.2,19.6z M20,7.8
		c3.1,0,6.1,1.2,8.3,3.3l-1.8,1.8c-3.7-3.4-9.4-3.4-13.1,0l-1.8-1.8C13.9,9,16.9,7.8,20,7.8L20,7.8z M11.1,11.7l1.8,1.8
		c-1.6,1.7-2.4,3.9-2.6,6.1H7.8C7.9,16.6,9.1,13.8,11.1,11.7z M14.3,26.8c-0.2-0.1-0.4-0.1-0.6,0.1c-0.1,0.2-0.1,0.4,0.1,0.6
		c1.6,1.4,3.7,2.2,5.8,2.2v2.5C13.2,32,8.1,26.8,7.8,20.4h2.5c0.1,2.1,0.9,4.2,2.2,5.8c0.1,0.2,0.4,0.2,0.6,0.1
		c0.2-0.1,0.2-0.4,0.1-0.6c-1.3-1.6-2.1-3.6-2.1-5.7c0-5.6,5.2-10,11.1-8.6c2.8,0.7,5.7,3.6,6.4,6.4c1.4,5.8-3,11.1-8.6,11.1
		C17.9,28.9,15.9,28.1,14.3,26.8L14.3,26.8z M20.4,32.2v-2.5c3.6-0.2,6.8-2.3,8.4-5.6l2.3,1C29.2,29.3,25,32,20.4,32.2z M31.4,24.3
		l-2.3-1c0.3-0.9,0.5-1.9,0.6-2.9h2.5C32.1,21.7,31.9,23.1,31.4,24.3z"/>
	<path d="M20,12.5c-4.1,0-7.5,3.4-7.5,7.5s3.4,7.5,7.5,7.5s7.5-3.4,7.5-7.5l0,0C27.5,15.9,24.1,12.5,20,12.5z M26.6,19.6h-3.9
		c0-1-0.1-2.1-0.3-3.1c0.8-0.3,1.5-0.7,2.2-1.2C25.8,16.4,26.5,17.9,26.6,19.6L26.6,19.6z M24,14.7c-0.5,0.4-1.1,0.7-1.7,0.9
		c-0.1-0.3-0.1-0.5-0.2-0.8c-0.2-0.5-0.4-0.9-0.6-1.4C22.4,13.7,23.3,14.1,24,14.7L24,14.7z M18.1,19.6c0-1,0.1-1.9,0.3-2.9
		c1.1,0.2,2.2,0.2,3.3,0c0.2,1,0.3,1.9,0.3,2.9H18.1z M21.9,20.4c0,1-0.1,1.9-0.3,2.9c-1.1-0.2-2.2-0.2-3.3,0
		c-0.2-1-0.3-1.9-0.3-2.9H21.9z M20,13.3c0.3,0,0.8,0.5,1.3,1.8c0.1,0.2,0.2,0.5,0.2,0.7c-1,0.2-2,0.2-3,0c0.1-0.3,0.1-0.5,0.2-0.7
		C19.2,13.8,19.7,13.3,20,13.3L20,13.3z M18.6,13.5c-0.3,0.4-0.5,0.9-0.6,1.4c-0.1,0.2-0.2,0.5-0.2,0.8c-0.6-0.2-1.2-0.5-1.7-0.9
		C16.7,14.1,17.6,13.7,18.6,13.5L18.6,13.5z M15.3,15.2c0.7,0.5,1.4,0.9,2.2,1.2c-0.2,1-0.3,2.1-0.3,3.1h-3.9
		C13.5,17.9,14.2,16.4,15.3,15.2z M13.4,20.4h3.9c0,1,0.1,2.1,0.3,3.1c-0.8,0.3-1.5,0.7-2.2,1.2C14.2,23.6,13.5,22.1,13.4,20.4
		L13.4,20.4z M16,25.3c0.5-0.4,1.1-0.7,1.7-0.9c0.1,0.3,0.1,0.5,0.2,0.8c0.2,0.5,0.4,0.9,0.6,1.4C17.6,26.3,16.7,25.9,16,25.3
		L16,25.3z M20,26.7c-0.3,0-0.8-0.5-1.3-1.8c-0.1-0.2-0.2-0.5-0.2-0.7c1-0.2,2-0.2,3,0c-0.1,0.3-0.1,0.5-0.2,0.7
		C20.8,26.2,20.3,26.7,20,26.7L20,26.7z M21.4,26.5c0.3-0.4,0.5-0.9,0.6-1.4c0.1-0.2,0.2-0.5,0.2-0.8c0.6,0.2,1.2,0.6,1.7,1
		C23.3,25.9,22.4,26.3,21.4,26.5L21.4,26.5z M24.7,24.8c-0.7-0.5-1.4-0.9-2.2-1.2c0.2-1,0.3-2.1,0.3-3.1h3.9
		C26.5,22.1,25.8,23.6,24.7,24.8L24.7,24.8z"/>
</g>
</svg>
