<?xml version="1.0" encoding="utf-8"?>
<!-- Generator: Adobe Illustrator 23.0.1, SVG Export Plug-In . SVG Version: 6.00 Build 0)  -->
<svg version="1.1" id="Ebene_1" xmlns="http://www.w3.org/2000/svg" xmlns:xlink="http://www.w3.org/1999/xlink" x="0px" y="0px"
	 viewBox="0 0 512 512" style="enable-background:new 0 0 512 512;" xml:space="preserve">
<style type="text/css">
	.st0{fill:none;stroke:#E9242F;stroke-width:3;stroke-miterlimit:10;}
</style>
<path class="map-path st0" d="M164.3,276.8v-28.2c9.1-2.3,17.8-5.9,25.8-10.6l19.9,19.9c3.2,3.2,8.5,3.2,11.8,0l23.5-23.5
	c3.2-3.2,3.2-8.5,0-11.8l-19.9-19.9c4.8-8,8.3-16.7,10.6-25.8h28.2c4.6,0,8.3-3.7,8.3-8.3v-33.3c0-4.6-3.7-8.3-8.3-8.3h-28.2
	c-2.3-9.1-5.9-17.8-10.6-25.8l19.9-19.9c3.2-3.2,3.2-8.5,0-11.8l-23.5-23.6c-3.2-3.2-8.5-3.2-11.8,0l-19.9,19.9
	c-8-4.8-16.7-8.3-25.8-10.6V26.9c0-4.6-3.7-8.3-8.3-8.3h-33.3c-4.6,0-8.3,3.7-8.3,8.3v28.2c-9.1,2.3-17.8,5.9-25.8,10.6l-20-19.9
	c-3.2-3.2-8.5-3.2-11.8,0L33.3,69.5c-3.2,3.2-3.2,8.5,0,11.8l19.9,19.9c-4.8,8-8.3,16.7-10.6,25.8H14.4c-4.6,0-8.3,3.7-8.3,8.3v33.3
	c0,4.6,3.7,8.3,8.3,8.3h28.2c2.3,9.1,5.9,17.8,10.6,25.8l-19.9,19.9c-3.2,3.2-3.2,8.5,0,11.8l23.5,23.5c3.2,3.2,8.5,3.2,11.8,0
	l19.9-19.9c8,4.8,16.7,8.3,25.8,10.6v28.2c0,4.6,3.7,8.3,8.3,8.3h33.3C160.6,285.2,164.3,281.4,164.3,276.8z M147.7,241.9v26.6
	h-16.7v-26.6c0-4-2.8-7.5-6.8-8.2c-11.5-2-22.5-6.6-32-13.3c-3.3-2.2-7.8-1.9-10.6,1l-18.7,18.7L51,228.5l18.7-18.7
	c2.8-2.8,3.2-7.3,1-10.6c-6.6-9.7-11.1-20.5-13.3-32c-0.7-4-4.2-6.8-8.2-6.8H22.8v-16.7h26.6c4,0,7.5-2.8,8.2-6.8
	c2-11.5,6.6-22.5,13.3-32c2.2-3.3,1.9-7.8-1-10.6L51,75.3l11.8-11.8l18.7,18.7c2.8,2.8,7.3,3.2,10.6,1c9.6-6.6,20.5-11.1,32-13.3
	c4-0.7,6.8-4.2,6.8-8.2V35.3h16.7v26.6c0,4,2.8,7.4,6.8,8.2c11.5,2,22.5,6.6,32,13.3c3.3,2.2,7.8,1.9,10.6-1L216,63.5l11.7,11.8
	l-18.7,18.7c-2.8,2.8-3.2,7.3-1,10.6c6.6,9.6,11.1,20.5,13.3,32c0.7,4,4.2,6.8,8.2,6.8H256v16.7h-26.6c-4,0-7.4,2.8-8.2,6.8
	c-2,11.5-6.6,22.5-13.3,32c-2.2,3.3-1.9,7.8,1,10.6l18.7,18.7L216,240.2l-18.7-18.7c-2.8-2.8-7.3-3.2-10.6-1
	c-9.7,6.6-20.5,11.1-32,13.3C150.6,234.4,147.7,237.9,147.7,241.9z"/>
<path class="map-path st0" d="M139.3,85.3c-36.8,0-66.7,29.9-66.7,66.7s29.9,66.7,66.7,66.7s66.7-29.9,66.7-66.7S176.1,85.3,139.3,85.3z
	 M139.3,201.8c-27.6,0-50-22.4-50-50s22.4-50,50-50s50,22.4,50,50S167,201.8,139.3,201.8z"/>
<path class="map-path st0" d="M139.3,126.9c-13.8,0-25,11.2-25,25c0,13.8,11.2,25,25,25s25-11.2,25-25C164.3,138.1,153.2,126.9,139.3,126.9z
	 M139.3,160.2c-4.6,0-8.3-3.7-8.3-8.3s3.7-8.3,8.3-8.3s8.3,3.7,8.3,8.3C147.7,156.4,143.9,160.2,139.3,160.2z"/>
<path class="map-path st1" d="M331,376.8h-21.5l-0.4-1l15.2-15.2c3.2-3.2,3.2-8.5,0-11.8l-23.5-23.5c-3.2-3.2-8.5-3.2-11.8,0l-15.2,15.2l-1-0.4v-21.6
	c0-4.6-3.7-8.3-8.3-8.3h-33.3c-4.6,0-8.3,3.7-8.3,8.3V340l-1.1,0.4l-15.2-15.2c-3.2-3.2-8.5-3.2-11.8,0l-23.7,23.5
	c-3.2,3.2-3.2,8.5,0,11.8l15.2,15.2l-0.4,1h-21.6c-4.6,0-8.3,3.7-8.3,8.3v33.3c0,4.6,3.7,8.3,8.3,8.3h21.6l0.4,1L171.1,443
	c-3.2,3.2-3.2,8.5,0,11.8l23.5,23.5c3.2,3.2,8.5,3.2,11.8,0l15.2-15.2l1.1,0.4V485c0,4.6,3.7,8.3,8.3,8.3h33.3
	c4.6,0,8.3-3.7,8.3-8.3v-21.5l1-0.4l15.2,15.2c3.2,3.2,8.5,3.2,11.8,0l23.5-23.5c3.2-3.2,3.2-8.5,0-11.8L309,427.8l0.4-1h21.5
	c4.6,0,8.3-3.7,8.3-8.3v-33.3C339.3,380.6,335.6,376.8,331,376.8z M322.7,410.1h-19.1c-3.7,0-6.9,2.4-8,6c-1,3.3-2.2,6.4-3.9,9.5
	c-1.8,3.2-1.2,7.2,1.5,9.9l13.5,13.5l-11.8,11.8l-13.5-13.5c-2.6-2.6-6.6-3.2-9.9-1.5c-3,1.7-6.1,2.9-9.5,3.9c-3.5,1.1-6,4.3-6,8
	v19.1h-16.7v-19.1c0-3.7-2.4-6.9-6-8c-3.3-1-6.4-2.2-9.5-3.9c-3.2-1.8-7.2-1.2-9.9,1.5l-13.5,13.5l-11.8-11.8l13.5-13.5
	c2.6-2.6,3.2-6.6,1.5-9.9c-1.7-3-2.9-6.1-3.9-9.5c-1.1-3.5-4.3-6-8-6h-19.1v-16.7h19.1c3.7,0,6.9-2.4,8-6c1-3.3,2.2-6.4,3.9-9.5
	c1.8-3.2,1.2-7.2-1.5-9.9l-13.5-13.5l11.8-11.8l13.5,13.5c2.6,2.6,6.6,3.2,9.9,1.5c3-1.7,6.1-2.9,9.5-3.9c3.5-1.1,6-4.3,6-8v-19.1
	H256v19.1c0,3.7,2.4,6.9,6,8c3.3,1,6.4,2.2,9.5,3.9c3.2,1.8,7.2,1.2,9.9-1.5l13.5-13.5l11.8,11.8l-13.5,13.5
	c-2.6,2.6-3.2,6.6-1.5,9.9c1.7,3,2.9,6.2,3.9,9.5c1.1,3.5,4.3,6,8,6h19.1L322.7,410.1L322.7,410.1z"/>
<path class="map-path st1" d="M247.7,368.5c-18.4,0-33.3,14.9-33.3,33.3s14.9,33.3,33.3,33.3c18.4,0,33.3-14.9,33.3-33.3S266.1,368.5,247.7,368.5z
	 M247.7,418.4c-9.2,0-16.7-7.4-16.7-16.7c0-9.2,7.4-16.7,16.7-16.7c9.2,0,16.7,7.4,16.7,16.7C264.3,411,256.9,418.4,247.7,418.4z"/>
<path class="map-path st2" d="M397.6,193.5c-18.4,0-33.3,14.9-33.3,33.3s14.9,33.3,33.3,33.3c18.4,0,33.3-14.9,33.3-33.3S416,193.5,397.6,193.5z
	 M397.6,243.5c-9.2,0-16.7-7.4-16.7-16.7c0-9.2,7.4-16.7,16.7-16.7c9.2,0,16.7,7.4,16.7,16.7C414.2,236.1,406.8,243.5,397.6,243.5z"
	/>
<path class="map-path st2" d="M497.6,201.8h-29.4c-0.9-2.4-1.9-4.9-3-7.2l20.7-20.8c3.2-3.2,3.2-8.5,0-11.8l-23.5-23.5c-3.2-3.2-8.5-3.2-11.8,0
	l-20.8,20.7c-2.3-1.2-4.8-2.1-7.3-3v-29.4c0-4.6-3.7-8.3-8.3-8.3H381c-4.6,0-8.3,3.7-8.3,8.3v29.4c-2.4,0.9-4.9,1.9-7.2,3
	l-20.8-20.7c-3.2-3.2-8.5-3.2-11.8,0L309.3,162c-3.2,3.2-3.2,8.5,0,11.8l20.7,20.8c-1.2,2.3-2.1,4.8-3,7.2h-29.4
	c-4.6,0-8.3,3.7-8.3,8.3v33.3c0,4.6,3.7,8.3,8.3,8.3H327c0.9,2.4,1.9,4.9,3,7.3l-20.7,20.8c-3.2,3.2-3.2,8.5,0,11.8l23.5,23.5
	c3.2,3.2,8.5,3.2,11.8,0l20.8-20.7c2.3,1.2,4.8,2.1,7.2,3v29.4c0,4.6,3.7,8.3,8.3,8.3h33.3c4.6,0,8.3-3.7,8.3-8.3v-29.4
	c2.4-0.9,4.9-1.9,7.3-3l20.8,20.7c3.2,3.2,8.5,3.2,11.8,0l23.5-23.5c3.2-3.2,3.2-8.5,0-11.8L465.3,259c1.2-2.3,2.1-4.8,3-7.3h29.4
	c4.6,0,8.3-3.7,8.3-8.3v-33.3C505.9,205.6,502.2,201.8,497.6,201.8z M489.2,235.2h-27.1c-3.8,0-7.1,2.5-8.1,6.2
	c-1.4,5.3-3.4,10.3-6.2,15c-2,3.3-1.4,7.4,1.3,10.2l19.2,19.2l-11.8,11.8l-19.2-19.2c-2.7-2.7-6.8-3.2-10.2-1.3
	c-4.7,2.7-9.8,4.9-15,6.2c-3.7,1-6.2,4.3-6.2,8.1v26.9h-16.7v-27.1c0-3.8-2.5-7.1-6.2-8.1c-5.3-1.4-10.3-3.4-15-6.2
	c-3.3-2-7.4-1.4-10.2,1.3l-19.2,19.2l-11.8-11.8l19.2-19.2c2.7-2.7,3.2-6.8,1.3-10.2c-2.7-4.7-4.9-9.8-6.2-15
	c-1-3.7-4.3-6.2-8.1-6.2h-27.1v-16.7h27.5c3.8,0,7.1-2.5,8.1-6.2c1.4-5.3,3.4-10.3,6.2-15c2-3.3,1.4-7.4-1.3-10.2L327,167.7
	l11.8-11.8l19.2,19.2c2.7,2.7,6.8,3.2,10.2,1.3c4.7-2.7,9.8-4.9,15-6.2c3.7-1,6.2-4.3,6.2-8.1v-27.1h16.7V162c0,3.8,2.5,7.1,6.2,8.1
	c5.3,1.4,10.3,3.4,15,6.2c3.3,2,7.4,1.4,10.2-1.3l19.2-19.2l11.8,11.8l-19.2,19.2c-2.7,2.7-3.2,6.8-1.3,10.2c2.7,4.7,4.9,9.8,6.2,15
	c1,3.7,4.3,6.2,8.1,6.2h27.1v16.9H489.2z"/>
</svg>
