<?xml version="1.0" encoding="utf-8"?>
<!-- Generator: Adobe Illustrator 23.0.1, SVG Export Plug-In . SVG Version: 6.00 Build 0)  -->
<svg version="1.1" id="svg_ki" xmlns="http://www.w3.org/2000/svg" xmlns:xlink="http://www.w3.org/1999/xlink" x="0px" y="0px"
	 viewBox="0 0 512 512" style="enable-background:new 0 0 512 512;" xml:space="preserve">
<style type="text/css">
	.st0{fill:none;stroke:#000000;stroke-miterlimit:10;}
</style>

	<path class="map-path st19" d="M465.6,247.7c13-71-8.2-168.5-86-215c-49-27.6-107-34.9-161.4-20.3C143,32.5,87.6,86.5,70.1,157
		c-3.9,14.3-5.5,29.1-4.9,43.8c0.9,9.2,2.5,18.2,5.1,27.1c3.4,11.3,5.1,23,5,34.8c-0.4,14-10,28.5-18.5,41.4
		c-9.3,14-17.4,26.1-12.6,37.3c4.4,7.5,12.2,12.5,20.9,13.4c0.5,0.1,1,0.1,1.5,0.2c2.4-0.3,4.7,0.5,6.4,2.1c1.7,1.7,2.5,3.9,2.5,6.3
		c0,17.4,0.4,26.4,7.6,30.5c-0.6,1.3-1.1,2.7-1.3,4.1c-0.7,4.9,1.1,9.8,4.7,13.1c3.6,3.5,8.2,5.9,13.2,6.8c0.4,0.1,0.7,0.1,1,0.2
		c0.2,1.3,0.3,2.5,0.3,3.7c-0.1,3.1-0.3,6.2-0.7,9.3c-1.4,13.3-3.3,31.7,23.4,40.5c5.4,1.5,11,2.2,16.5,2
		c25.4-1.1,50.4-5.9,74.3-14.2c7,12.1,11.1,25.5,12.3,39.4c0,2.3,0.9,4.3,2.5,5.9s3.7,2.5,5.9,2.5h209.2c3.5,0,6.8-2.4,7.8-5.8
		s-0.1-7.3-2.9-9.4c-8.6-6.6-37.4-75.8-38.2-100.7c2.5-5.7,5.9-12.2,9.9-19.6C442.6,333.1,457.8,291.2,465.6,247.7z"/>
	<path class="map-path st19" d="M394,390.3c0.2,20,18.2,72.8,33.7,100h-185c-2.1-12.8-6.3-25.2-12.3-36.7c24.2-9.5,45.6-21.7,55.8-35.1
		c2.7-3.6,2.1-8.9-1.6-11.7c-3.6-2.8-8.9-2.1-11.7,1.6c-23.6,31-122.2,54.5-144.1,47.3c-13.9-4.5-13.3-9.9-12.1-22.8
		c0.5-3.6,0.7-7.4,0.8-11.1c0-14.1-5.7-18.3-14.2-20.3c-1.6-0.2-3.1-0.8-4.5-1.8c1.7-1.6,3.5-2.8,5.5-3.9c3.5-1.7,5.3-5.6,4.4-9.4
		s-4.2-6.5-8.1-6.5c-3,0-6.4,0-8.1-0.2c-0.5-5.5-0.7-11-0.5-16.5c0.2-6.6-2.4-12.9-7-17.7c-4.6-4.7-10.9-7.4-17.6-7.4
		c-6-1.3-7.8-2.9-8-3.2c-1.2-2.9,6.9-15,11.2-21.6c9.3-14,20.9-31.4,21.3-50.2c0.2-10.5-0.9-20.9-3.4-31c9.1-8,19.9-13.9,31.6-17.4
		c4.1-0.7,8.4-0.4,12.5,0.9c4.4,1.3,9-1.4,10.3-5.9c1.3-4.4-1.4-9-5.9-10.3c-6.6-2.1-13.5-2.5-20.3-1.1c-11.9,3-22.8,8.5-32.5,16.1
		c-1.2-4.9-2-9.8-2.4-14.8c-0.6-13,0.9-26.1,4.4-38.6c16.3-65.5,65.9-113.8,136.3-132.7C272.6,15,325.8,21.7,371,47
		c70.9,42.4,90.2,132.2,78.1,197.7c-7.5,41.8-22.2,82.1-43.1,118.9c-4.6,8.6-8.5,16-11.5,22.8C394.1,387.7,394,389,394,390.3z"/>

	<path class="map-path st20" d="M435.7,186.8c-1-10.8-8.9-19.7-19.5-22.1l-12.5-25.1c8.8-9,9.6-23.1,1.8-32.9c-7.8-9.9-21.8-12.5-32.6-5.9
		L359,89.1c1.1-2.7,1.6-5.7,1.7-8.7c0-10.3-6.2-19.5-15.7-23.3s-20.4-1.5-27.5,6l-24.8-6.2c-2.9-10.8-12.7-18.2-23.9-18.3
		s-21,7.3-24.1,18l-33.1,6.7c-8.6-9.3-22.9-10.7-33.1-3.1c-10.2,7.5-13.1,21.6-6.8,32.6l-16.3,21.7c-11.7,2.1-20.2,12.1-20.6,23.9
		s7.6,22.3,19.1,25l13.4,33.1c-7.4,7.3-9.5,18.2-5.5,27.7s13.5,15.5,23.8,15.2s19.4-7,22.8-16.7h44.9c3.7,11.6,15.5,18.5,27.4,16.4
		l27.7,42.3c-7.2,7.9-8.4,19.4-3.3,28.7s15.6,14.4,26.1,12.6s18.7-9.9,20.6-20.4l20.7-16.6c3.9,2.5,8.5,3.8,13.1,3.8
		c12.9,0,23.8-9.9,25-22.7c1.2-12.9-7.6-24.6-20.4-27l-16-22.2c1-1.8,1.8-3.7,2.3-5.8l15.5-6.2c7.2,8.1,18.7,10.8,28.7,6.5
		C430.7,207.9,436.8,197.6,435.7,186.8z"/>
	<path class="map-path st20" d="M270.2,93.9l25.1,25.1c-3.9,2.9-6.9,7-8.5,11.6H267c-2-5.5-5.9-10.2-10.9-13.1L270.2,93.9z"/>
	<path class="map-path st20" d="M218.3,78.9l27.3-5.5c2.2,4.9,5.8,9,10.5,11.8l-15.2,25.3l-26.3-16.9c2.5-3.9,3.9-8.5,3.9-13.2
		C218.4,79.9,218.3,79.4,218.3,78.9z"/>
	<path class="map-path st20" d="M184.2,103.7c5.1,2.1,10.8,2.4,16,0.7L226,121c-2.7,2.6-4.8,6-6.1,9.6h-36.5c-1.9-5.2-5.3-9.6-9.9-12.6
		L184.2,103.7z"/>
	<path class="map-path st20" d="M189.7,189.6c-1.6-0.3-3.1-0.5-4.8-0.5c-0.8,0-1.6,0.2-2.5,0.2L171,161.2c5.7-2.9,10.1-7.8,12.3-13.9h36.6
		c1.5,4.2,4.1,7.9,7.5,10.8L189.7,189.6z"/>
	<path class="map-path st20" d="M253.5,205.9h-44.9c-0.9-2.5-2.2-4.8-3.8-7l41.1-34.2l14,31.4C256.9,198.8,254.7,202.2,253.5,205.9z"/>
	<path class="map-path st20" d="M267.1,147.4h19.8c2,5.5,5.9,10.2,10.9,13.1l-17.4,29c-1.2-0.2-2.3-0.3-3.4-0.4c-0.7,0-1.3,0.1-1.9,0.2
		l-14.3-32.2C263.5,154.4,265.7,151.1,267.1,147.4z"/>
	<path class="map-path st20" d="M369.1,141l-15.5,38.6l-27-21.6c3.6-3.1,6.4-7.3,7.7-11.9l33.1-6.7C368.1,140,368.7,140.5,369.1,141z"/>
	<path class="map-path st20" d="M291.5,73.8l19.1,4.8c0,0.6-0.2,1.2-0.2,1.8c0,13.8,11.3,25.1,25.1,25.1c4.5,0,8.9-1.3,12.7-3.6l14,11.7
		c-1.1,2.7-1.6,5.7-1.7,8.7c0,0.5,0.1,1,0.2,1.5l-27.3,5.5c-3.4-7.9-10.7-13.6-19.2-14.9l-30.6-30.6
		C287.1,81.1,289.7,77.8,291.5,73.8z"/>
	<path class="map-path st20" d="M312.7,168.2L336,187c-3.6,3.1-6.4,7.3-7.7,11.9l-28.2,5.7c-1.2-2.6-2.7-5.1-4.8-7.3L312.7,168.2z"/>
	<path class="map-path st20" d="M360.6,264.4c0,2.8,0.5,5.6,1.5,8.2L348,283.9c-5.3-8.2-15-12.5-24.6-10.7L295.6,231c2.5-2.7,4.3-6.1,5.4-9.6
		l28.2-5.7c5.4,12.7,20,18.7,32.7,13.3l10.3,14.3C365,248,360.6,255.9,360.6,264.4z"/>
	<path class="map-path st20" d="M385.7,189.1c0,0.3,0.1,0.7,0.1,1l-11.3,4.5c-1.5-2.8-3.4-5.4-5.8-7.5l16-39.9c0.3,0,0.7,0.1,1,0.1
		c1,0,2.1-0.1,3-0.3l10.1,20.2C390.8,171.6,385.7,180,385.7,189.1z"/>

	<path class="map-path st21" d="M268.6,55.3c4.6,0,8.3,3.7,8.3,8.3s-3.7,8.3-8.3,8.3s-8.3-3.7-8.3-8.3C260.2,59.1,263.9,55.3,268.6,55.3z"/>
	<circle class="map-path st21" cx="243.5" cy="138.9" r="8.3"/>
	<path class="map-path st21" d="M193.3,72.1c4.6,0,8.3,3.7,8.3,8.3s-3.7,8.3-8.3,8.3S185,85,185,80.4C184.9,75.8,188.7,72.1,193.3,72.1z"/>
	<circle class="map-path st21" cx="159.9" cy="139" r="8.3"/>
	<path class="map-path st21" d="M184.9,222.7c-4.6,0-8.3-3.7-8.3-8.3s3.7-8.3,8.3-8.3s8.3,3.7,8.3,8.3C193.3,218.8,189.6,222.7,184.9,222.7z"
		/>
	<circle class="map-path st21" cx="277" cy="214.3" r="8.3"/>
	<circle class="map-path st21" cx="385.7" cy="264.4" r="8.3"/>
	<path class="map-path st21" d="M377.5,120.6c0.8-3.9,4.2-6.7,8.2-6.7c4.6,0,8.3,3.7,8.3,8.3s-3.7,8.3-8.3,8.3c-1.1,0-2.1-0.2-3-0.6h-0.1
		c-0.1,0-0.2,0-0.2,0C378.8,128.3,376.7,124.4,377.5,120.6z"/>
	<path class="map-path st21" d="M360.3,208.2c-1.1,4-5.1,6.6-9.2,6s-7.3-4.1-7.3-8.3c0-4.6,3.7-8.3,8.3-8.3c1.1,0,2.1,0.2,3,0.6h0.1
		c0.1,0,0.2,0,0.2,0C359.4,199.9,361.4,204.1,360.3,208.2z"/>
	<circle class="map-path st21" cx="335.5" cy="80.4" r="8.3"/>
	<circle class="map-path st21" cx="310.4" cy="138.9" r="8.3"/>
	<circle class="map-path st21" cx="327.2" cy="298" r="8.3"/>
	<path class="map-path st21" d="M413.1,197.2c-4,1.1-8.2-0.9-9.9-4.7c0-0.1,0-0.2,0-0.2l-0.1-0.1c-0.4-1-0.6-2-0.6-3c0-4.6,3.7-8.3,8.3-8.3
		c4.2,0,7.7,3,8.3,7.3C419.6,192.2,417.1,196.1,413.1,197.2z"/>

</svg>
