<?xml version="1.0" encoding="utf-8"?>
<!-- Generator: Adobe Illustrator 23.0.1, SVG Export Plug-In . SVG Version: 6.00 Build 0)  -->
<svg class="iot-image" version="1.1" id="svg_iot" xmlns="http://www.w3.org/2000/svg" xmlns:xlink="http://www.w3.org/1999/xlink" x="0px" y="0px" viewBox="0 0 512 512" style="enable-background:new 0 0 512 512;" xml:space="preserve">
              <path class="map-path st3" d="M185.6,209.5H60.2c-12.7,0-23,10.4-23,23V483c0,12.7,10.4,23,23,23h125.3c12.7,0,23-10.4,23-23V232.6
              C208.5,219.9,198.2,209.5,185.6,209.5z M193.9,483.1c0,4.6-3.7,8.3-8.3,8.3H60.2c-4.6,0-8.3-3.7-8.3-8.3V232.6
              c0-4.6,3.7-8.3,8.3-8.3h125.3c4.6,0,8.3,3.7,8.3,8.3V483.1z"/>
              <path class="map-path st4" d="M459.6,240.9h-0.5V36.7c0-17-13.9-30.8-30.8-30.8H130.7c-17,0-30.8,13.9-30.8,30.8v148.8c0,4,3.3,7.3,7.3,7.3
              c4,0,7.3-3.3,7.3-7.3V36.7c0-8.9,7.2-16.1,16.1-16.1h297.6c8.9,0,16.1,7.2,16.1,16.1v204.1H232.6c-4,0-7.3,3.3-7.3,7.3
              s3.3,7.3,7.3,7.3h24c0,0.2,0,0.3,0,0.5c0,4,3.3,7.3,7.3,7.3h31.4c4,0,7.3-3.3,7.3-7.3c0-0.2,0-0.3,0-0.5h157.2
              c0.3,0,0.5,0.2,0.5,0.5v15.6c0,0.3-0.2,0.5-0.5,0.5H232.6c-4,0-7.3,3.3-7.3,7.3c0,4,3.3,7.3,7.3,7.3h227.1c8.4,0,15.1-6.8,15.1-15.1
              v-15.6C474.7,247.6,468,240.9,459.6,240.9z"/>
              <path class="map-path st4" d="M420.4,37.3H138.6c-4,0-7.3,3.3-7.3,7.3v141c0,4,3.3,7.3,7.3,7.3s7.3-3.3,7.3-7.3V51.9h267.3v157.7H232.6
              c-4,0-7.3,3.3-7.3,7.3s3.3,7.3,7.3,7.3h188c4,0,7.3-3.3,7.3-7.3V44.6C427.7,40.5,424.5,37.3,420.4,37.3z"/>
              <path class="map-path st5" d="M140.1,363.4c-10.7-7.1-24.9-6.7-35.3,1c-3.2,2.4-3.9,7-1.6,10.3c1.5,2,3.6,2.9,5.9,2.9c1.6,0,3-0.5,4.4-1.5
                c5.5-4,12.9-4.2,18.5-0.5c3.4,2.2,7.9,1.3,10.2-2.1C144.4,370.2,143.5,365.6,140.1,363.4z"/>
              <path class="map-path st5" d="M159,338.4c-21.7-15.3-50.7-15.1-72.3,0.5c-3.3,2.3-4,6.9-1.7,10.3c1.5,2,3.7,3,6,3c1.5,0,3-0.5,4.3-1.4
                c16.4-11.9,38.6-12,55.2-0.4c3.3,2.3,7.9,1.6,10.3-1.8C163.1,345.2,162.2,340.7,159,338.4z"/>
              <path class="map-path st5" d="M176.9,312.7c-32.4-22.9-75.8-22.7-108.1,0.4c-3.3,2.3-4,6.9-1.7,10.3c1.5,2,3.7,3,6,3c1.5,0,2.9-0.5,4.3-1.4
                c27.2-19.4,63.8-19.6,91.1-0.4c3.3,2.3,7.9,1.6,10.2-1.8C181,319.5,180.2,314.9,176.9,312.7z"/>
              <path class="map-path st5" d="M169.8,444.5h-94c-4,0-7.3,3.3-7.3,7.3s3.3,7.3,7.3,7.3h94c4,0,7.3-3.3,7.3-7.3S173.9,444.5,169.8,444.5z"/>
              <path class="map-path st5" d="M130.7,468H115c-4,0-7.3,3.3-7.3,7.3s3.3,7.3,7.3,7.3h15.6c4,0,7.3-3.3,7.3-7.3S134.8,468,130.7,468z"/>
              </svg>
