<?xml version="1.0" encoding="utf-8"?>
<!-- Generator: Adobe Illustrator 23.0.1, SVG Export Plug-In . SVG Version: 6.00 Build 0)  -->
<svg version="1.1" id="svg_robotik" class="robotikUndSensorik-image" xmlns="http://www.w3.org/2000/svg" xmlns:xlink="http://www.w3.org/1999/xlink" x="0px"
	 y="0px" viewBox="0 0 512 512" style="enable-background:new 0 0 512 512;" xml:space="preserve">
<path class="map-path st16" d="M286.1,352.6c-1.6-1.4-3.6-2.2-5.7-2.2h-25.5l31.3-32.1c3-3.6,2.5-9-1.1-11.9c-3.2-2.6-7.9-2.6-11,0.2l-45.3,46.5
	c-3.3,3.3-3.2,8.7,0.1,12c1.6,1.6,3.7,2.4,6,2.4h26.2l-32.2,35.9c-3.1,3.5-2.8,8.8,0.6,11.9l0,0c3.5,3.1,8.8,2.8,11.9-0.6l45.3-50.2
	C289.8,361.1,289.5,355.7,286.1,352.6z"/>
<path class="map-path st17" d="M445,278.3L445,278.3c-0.2-18.2-15.1-32.9-33.2-32.7c-15.3,0.1-28.4,10.7-31.8,25.5l-22.7,4.4H154.8l-22.7-4.4
	c-3.9-17.8-21.4-29-39.2-25.1c-17.8,3.9-29,21.4-25.1,39.2c2.6,12.1,11.8,21.7,23.8,24.8v63.5c-14.4,3.8-24.3,16.8-24.4,31.7v15.1
	c0,4.7,3.8,8.5,8.5,8.5c4.7,0,8.5-3.8,8.5-8.5v-15.2c0-8.8,7.1-15.9,15.9-15.9s15.9,7.1,15.9,15.9v15.2c0,4.7,3.8,8.5,8.5,8.5
	c4.7,0,8.5-3.8,8.5-8.5v-15.2c-0.1-14.9-10.1-27.9-24.4-31.7V310c10.8-2.9,19.4-11.1,22.8-21.7l14.2,2.8v104.8
	c0,15.4,3.2,30.6,9.5,44.6v0.8c25,55.6,90.4,80.4,146.1,55.2c24.5-11,44.2-30.7,55.2-55.2l0.4-1c6.4-14,9.7-29.1,9.8-44.4V291.1
	l14.2-2.8c3.4,10.7,11.9,18.9,22.8,21.7v63.5c-14.4,3.8-24.3,16.8-24.4,31.7v15.2c0,4.7,3.8,8.5,8.5,8.5s8.5-3.8,8.5-8.5v-15.2
	c0-8.8,7.1-15.9,15.9-15.9c8.8,0,15.9,7.1,15.9,15.9v15.2c0,4.7,3.8,8.5,8.5,8.5c4.7,0,8.5-3.8,8.5-8.5v-15.2
	c-0.1-14.9-10.1-27.9-24.4-31.7V310C434.8,306.3,445,293.3,445,278.3z M100,294.3c-8.8,0-15.9-7.1-15.9-15.9
	c0-8.8,7.1-15.9,15.9-15.9s15.9,7.1,15.9,15.9C116,287.2,108.8,294.3,100,294.3z M256,489.4c-32,0-61.8-16.4-78.9-43.4h157.8
	C317.8,473.1,288.1,489.4,256,489.4z M349.5,396c0,11.3-2.2,22.6-6.2,33.1H168.7c-4.1-10.6-6.2-21.8-6.2-33.1V292.6h187L349.5,396
	L349.5,396z M412.1,294.3L412.1,294.3l-0.3-0.3c-8.8,0-15.9-7.1-15.9-15.9c0-8.8,7.1-15.9,15.9-15.9c8.8,0,15.9,7.1,15.9,15.9
	C428,286.9,420.9,294.1,412.1,294.3z"/>
<path class="map-path st18" d="M304.6,208.4h-97.2c-4.7,0-8.5,3.8-8.5,8.5c0,4.7,3.8,8.5,8.5,8.5h97.2c4.7,0,8.5-3.8,8.5-8.5
	C313.1,212.2,309.3,208.4,304.6,208.4z"/>
<path class="map-path st18" d="M408.2,156.5c-3.6-20.1-19.9-35.7-40.2-38.4c-5.6-20.7-21.7-38.4-54.2-38.4h-49.3V60.9c14.9-4.7,23.2-20.5,18.5-35.5
	C278.4,10.6,262.6,2.3,247.6,7c-14.9,4.7-23.2,20.5-18.5,35.5c2.7,8.8,9.7,15.7,18.5,18.5v18.3h-49.2c-23,0-47,10.6-54.4,38.4
	c-25.9,3.5-44,27.4-40.5,53.3c2.7,20.3,18.3,36.5,38.5,40.1l-0.1,0.4c2.5,37.3,30.2,50.9,56.3,50.9h115.6
	c38.8,0,54.4-25.5,56.3-50.9C395.8,206.8,412.9,182.2,408.2,156.5z M141.7,194.5c-16-4.6-25.3-21.4-20.6-37.4
	c2.8-10,10.7-17.8,20.6-20.6V194.5z M244.8,34.4c0-6.3,5.1-11.3,11.3-11.3s11.3,5.1,11.3,11.3s-5.2,11.3-11.4,11.3
	C249.8,45.8,244.8,40.7,244.8,34.4z M353.4,205.4c0,14.8-5.2,39.6-39.6,39.6H198.4c-14.8,0-39.6-5.2-39.6-39.6l-0.1-68.9
	c0-34.5,24.8-39.6,39.6-39.6h115.6c34.5,0,39.6,24.8,39.6,39.6L353.4,205.4L353.4,205.4z M370,193.9v-58.1
	c12.9,3.7,21.9,15.5,21.9,29C391.9,178.4,383,190.2,370,193.9z"/>
<path class="map-path st18" d="M304.6,117.4c-18.8,0-34,15.3-34,34s15.3,34,34,34s34-15.3,34-34S323.4,117.4,304.6,117.4z M304.6,168.3
	c-9.4,0-17-7.6-17-17s7.6-16.9,17-16.9v-0.1c9.4,0,17,7.6,17,17C321.6,160.7,314,168.3,304.6,168.3z"/>
<path class="map-path st18" d="M207.5,117.4c-18.8,0-34,15.3-34,34s15.3,34,34,34s34-15.3,34-34S226.2,117.4,207.5,117.4z M207.5,168.3
	c-9.4,0-17-7.6-17-17s7.6-16.9,17-16.9v-0.1c9.4,0,17,7.6,17,17C224.5,160.7,216.9,168.3,207.5,168.3z"/>
</svg>
