<?xml version="1.0" encoding="utf-8"?>
<!-- Generator: Adobe Illustrator 23.0.1, SVG Export Plug-In . SVG Version: 6.00 Build 0)  -->
<svg version="1.1" id="Ebene_1" xmlns="http://www.w3.org/2000/svg" xmlns:xlink="http://www.w3.org/1999/xlink" x="0px" y="0px"
	 viewBox="0 0 512 512" style="enable-background:new 0 0 512 512;" xml:space="preserve">
<style type="text/css">
	.st0{fill:none;stroke:#E9242F;stroke-width:3;stroke-miterlimit:10;}
</style>
<path class="st0" d="M162.1,277.3v-28.9c9.3-2.4,18.2-6,26.4-10.9l20.4,20.4c3.3,3.3,8.7,3.3,12.1,0l24.1-24.1
	c3.3-3.3,3.3-8.7,0-12.1l-20.4-20.4c4.9-8.2,8.5-17.1,10.9-26.4h28.9c4.7,0,8.5-3.8,8.5-8.5v-34.1c0-4.7-3.8-8.5-8.5-8.5h-28.9
	c-2.4-9.3-6-18.2-10.9-26.4l20.4-20.4c3.3-3.3,3.3-8.7,0-12.1L221,40.7c-3.3-3.3-8.7-3.3-12.1,0l-20.4,20.4
	c-8.2-4.9-17.1-8.5-26.4-10.9V21.3c0-4.7-3.8-8.5-8.5-8.5h-34.1c-4.7,0-8.5,3.8-8.5,8.5v28.9c-9.3,2.4-18.2,6-26.4,10.9L64.1,40.7
	c-3.3-3.3-8.7-3.3-12.1,0L27.9,64.9c-3.3,3.3-3.3,8.7,0,12.1l20.4,20.4c-4.9,8.2-8.5,17.1-10.9,26.4H8.5c-4.7,0-8.5,3.8-8.5,8.5
	v34.1c0,4.7,3.8,8.5,8.5,8.5h28.9c2.4,9.3,6,18.2,10.9,26.4l-20.4,20.4c-3.3,3.3-3.3,8.7,0,12.1l24.1,24.1c3.3,3.3,8.7,3.3,12.1,0
	l20.4-20.4c8.2,4.9,17.1,8.5,26.4,10.9v28.9c0,4.7,3.8,8.5,8.5,8.5h34.1C158.3,285.9,162.1,282,162.1,277.3z M145.1,241.6v27.2H128
	v-27.2c0-4.1-2.9-7.7-7-8.4c-11.8-2.1-23-6.8-32.8-13.6c-3.4-2.3-8-1.9-10.9,1l-19.2,19.2L46,227.8l19.2-19.2
	c2.9-2.9,3.3-7.5,1-10.9c-6.8-9.9-11.4-21-13.6-32.8c-0.7-4.1-4.3-7-8.4-7H17.1v-17.1h27.2c4.1,0,7.7-2.9,8.4-7
	c2.1-11.8,6.8-23,13.6-32.8c2.3-3.4,1.9-8-1-10.9L46,70.9l12.1-12.1L77.3,78c2.9,2.9,7.5,3.3,10.9,1c9.8-6.8,21-11.4,32.8-13.6
	c4.1-0.7,7-4.3,7-8.4V29.9h17.1v27.2c0,4.1,2.9,7.6,7,8.4c11.8,2.1,23,6.8,32.8,13.6c3.4,2.3,8,1.9,10.9-1L215,58.8L227,70.9
	l-19.2,19.2c-2.9,2.9-3.3,7.5-1,10.9c6.8,9.8,11.4,21,13.6,32.8c0.7,4.1,4.3,7,8.4,7H256v17.1h-27.2c-4.1,0-7.6,2.9-8.4,7
	c-2.1,11.8-6.8,23-13.6,32.8c-2.3,3.4-1.9,8,1,10.9l19.2,19.2L215,239.8l-19.2-19.2c-2.9-2.9-7.5-3.3-10.9-1
	c-9.9,6.8-21,11.4-32.8,13.6C148,233.9,145.1,237.5,145.1,241.6z"/>
<path class="st0" d="M136.5,81.1c-37.7,0-68.3,30.6-68.3,68.3s30.6,68.3,68.3,68.3s68.3-30.6,68.3-68.3
	C204.8,111.7,174.2,81.1,136.5,81.1z M136.5,200.5c-28.3,0-51.2-22.9-51.2-51.2s22.9-51.2,51.2-51.2s51.2,22.9,51.2,51.2
	C187.7,177.6,164.8,200.5,136.5,200.5z"/>
<path class="st0" d="M136.5,123.7c-14.1,0-25.6,11.5-25.6,25.6c0,14.1,11.5,25.6,25.6,25.6s25.6-11.5,25.6-25.6
	C162.1,135.2,150.7,123.7,136.5,123.7z M136.5,157.9c-4.7,0-8.5-3.8-8.5-8.5c0-4.7,3.8-8.5,8.5-8.5s8.5,3.8,8.5,8.5
	C145.1,154,141.2,157.9,136.5,157.9z"/>
<path class="st0" d="M332.8,379.7h-22l-0.4-1l15.6-15.6c3.3-3.3,3.3-8.7,0-12.1l-24.1-24.1c-3.3-3.3-8.7-3.3-12.1,0l-15.6,15.6
	l-1-0.4V320c0-4.7-3.8-8.5-8.5-8.5h-34.1c-4.7,0-8.5,3.8-8.5,8.5v22.1l-1.1,0.4l-15.6-15.6c-3.3-3.3-8.7-3.3-12.1,0L169,351
	c-3.3,3.3-3.3,8.7,0,12.1l15.6,15.6l-0.4,1h-22.1c-4.7,0-8.5,3.8-8.5,8.5v34.1c0,4.7,3.8,8.5,8.5,8.5h22.1l0.4,1L169,447.6
	c-3.3,3.3-3.3,8.7,0,12.1l24.1,24.1c3.3,3.3,8.7,3.3,12.1,0l15.6-15.6l1.1,0.4v22c0,4.7,3.8,8.5,8.5,8.5h34.1c4.7,0,8.5-3.8,8.5-8.5
	v-22l1-0.4l15.6,15.6c3.3,3.3,8.7,3.3,12.1,0l24.1-24.1c3.3-3.3,3.3-8.7,0-12.1L310.3,432l0.4-1h22c4.7,0,8.5-3.8,8.5-8.5v-34.1
	C341.3,383.6,337.5,379.7,332.8,379.7z M324.3,413.9h-19.6c-3.8,0-7.1,2.5-8.2,6.1c-1,3.4-2.3,6.6-4,9.7c-1.8,3.3-1.2,7.4,1.5,10.1
	l13.8,13.8l-12.1,12.1l-13.8-13.8c-2.7-2.7-6.8-3.3-10.1-1.5c-3.1,1.7-6.3,3-9.7,4c-3.6,1.1-6.1,4.4-6.1,8.2v19.6h-17.1v-19.6
	c0-3.8-2.5-7.1-6.1-8.2c-3.4-1-6.6-2.3-9.7-4c-3.3-1.8-7.4-1.2-10.1,1.5l-13.8,13.8l-12.1-12.1l13.8-13.8c2.7-2.7,3.3-6.8,1.5-10.1
	c-1.7-3.1-3-6.3-4-9.7c-1.1-3.6-4.4-6.1-8.2-6.1h-19.6v-17.1h19.6c3.8,0,7.1-2.5,8.2-6.1c1-3.4,2.3-6.6,4-9.7
	c1.8-3.3,1.2-7.4-1.5-10.1l-13.8-13.8l12.1-12.1l13.8,13.8c2.7,2.7,6.8,3.3,10.1,1.5c3.1-1.7,6.3-3,9.7-4c3.6-1.1,6.1-4.4,6.1-8.2
	v-19.6H256v19.6c0,3.8,2.5,7.1,6.1,8.2c3.4,1,6.6,2.3,9.7,4c3.3,1.8,7.4,1.2,10.1-1.5l13.8-13.8l12.1,12.1L294,370.9
	c-2.7,2.7-3.3,6.8-1.5,10.1c1.7,3.1,3,6.4,4,9.7c1.1,3.6,4.4,6.1,8.2,6.1h19.6V413.9z"/>
<path class="st0" d="M247.5,371.2c-18.8,0-34.1,15.3-34.1,34.1s15.3,34.1,34.1,34.1s34.1-15.3,34.1-34.1S266.3,371.2,247.5,371.2z
	 M247.5,422.4c-9.4,0-17.1-7.6-17.1-17.1c0-9.4,7.6-17.1,17.1-17.1c9.4,0,17.1,7.6,17.1,17.1C264.5,414.8,256.9,422.4,247.5,422.4z"
	/>
<path class="st0" d="M401.1,192c-18.9,0-34.1,15.3-34.1,34.1s15.3,34.1,34.1,34.1s34.1-15.3,34.1-34.1S419.9,192,401.1,192z
	 M401.1,243.2c-9.4,0-17.1-7.6-17.1-17.1c0-9.4,7.6-17.1,17.1-17.1c9.4,0,17.1,7.6,17.1,17.1C418.1,235.6,410.5,243.2,401.1,243.2z"
	/>
<path class="st0" d="M503.5,200.5h-30.1c-0.9-2.5-1.9-5-3.1-7.4l21.2-21.3c3.3-3.3,3.3-8.7,0-12.1l-24.1-24.1
	c-3.3-3.3-8.7-3.3-12.1,0l-21.3,21.2c-2.4-1.2-4.9-2.2-7.5-3.1v-30.1c0-4.7-3.8-8.5-8.5-8.5H384c-4.7,0-8.5,3.8-8.5,8.5v30.1
	c-2.5,0.9-5,1.9-7.4,3.1l-21.3-21.2c-3.3-3.3-8.7-3.3-12.1,0l-24.1,24.1c-3.3,3.3-3.3,8.7,0,12.1l21.2,21.3
	c-1.2,2.4-2.2,4.9-3.1,7.4h-30.1c-4.7,0-8.5,3.8-8.5,8.5v34.1c0,4.7,3.8,8.5,8.5,8.5h30.1c0.9,2.5,1.9,5,3.1,7.5l-21.2,21.3
	c-3.3,3.3-3.3,8.7,0,12.1l24.1,24.1c3.3,3.3,8.7,3.3,12.1,0l21.3-21.2c2.4,1.2,4.9,2.2,7.4,3.1v30.1c0,4.7,3.8,8.5,8.5,8.5h34.1
	c4.7,0,8.5-3.8,8.5-8.5v-30.1c2.5-0.9,5-1.9,7.5-3.1l21.3,21.2c3.3,3.3,8.7,3.3,12.1,0l24.1-24.1c3.3-3.3,3.3-8.7,0-12.1l-21.2-21.3
	c1.2-2.4,2.2-4.9,3.1-7.5h30.1c4.7,0,8.5-3.8,8.5-8.5v-34.1C512,204.4,508.2,200.5,503.5,200.5z M494.9,234.7h-27.8
	c-3.9,0-7.3,2.6-8.3,6.4c-1.4,5.4-3.5,10.6-6.4,15.4c-2,3.4-1.4,7.6,1.3,10.4l19.7,19.7l-12.1,12.1l-19.7-19.7
	c-2.8-2.8-7-3.3-10.4-1.3c-4.8,2.8-10,5-15.4,6.4c-3.8,1-6.4,4.4-6.4,8.3V320h-17.1v-27.8c0-3.9-2.6-7.3-6.4-8.3
	c-5.4-1.4-10.6-3.5-15.4-6.4c-3.4-2-7.6-1.4-10.4,1.3l-19.7,19.7l-12.1-12.1l19.7-19.7c2.8-2.8,3.3-7,1.3-10.4
	c-2.8-4.8-5-10-6.4-15.4c-1-3.8-4.4-6.4-8.3-6.4h-27.8v-17.1H335c3.9,0,7.3-2.6,8.3-6.4c1.4-5.4,3.5-10.6,6.4-15.4
	c2-3.4,1.4-7.6-1.3-10.4l-19.7-19.7l12.1-12.1l19.7,19.7c2.8,2.8,7,3.3,10.4,1.3c4.8-2.8,10-5,15.4-6.4c3.8-1,6.4-4.4,6.4-8.3v-27.8
	h17.1v27.8c0,3.9,2.6,7.3,6.4,8.3c5.4,1.4,10.6,3.5,15.4,6.4c3.4,2,7.6,1.4,10.4-1.3l19.7-19.7l12.1,12.1l-19.7,19.7
	c-2.8,2.8-3.3,7-1.3,10.4c2.8,4.8,5,10,6.4,15.4c1,3.8,4.4,6.4,8.3,6.4h27.8V234.7z"/>
</svg>
