<?xml version="1.0" encoding="utf-8"?>
<!-- Generator: Adobe Illustrator 23.0.1, SVG Export Plug-In . SVG Version: 6.00 Build 0)  -->
<svg version="1.1" id="Ebene_3_Kopie" xmlns="http://www.w3.org/2000/svg" xmlns:xlink="http://www.w3.org/1999/xlink" x="0px"
	 y="0px" viewBox="0 0 482.8 207.2" style="enable-background:new 0 0 482.8 207.2;" xml:space="preserve">
<style type="text/css">
	.st0{fill:#1779BA;}
</style>
<title>logo_bawü</title>
<circle class="st0" cx="410.5" cy="23" r="6.5"/>
<circle class="st0" cx="425.9" cy="23" r="6.5"/>
<circle class="st0" cx="442.4" cy="23" r="6.5"/>
<circle class="st0" cx="442.4" cy="38.5" r="6.5"/>
<circle class="st0" cx="459" cy="38.6" r="6.5"/>
<circle class="st0" cx="442.4" cy="55" r="6.5"/>
<circle class="st0" cx="459" cy="55" r="6.5"/>
<circle class="st0" cx="427.3" cy="87.4" r="6.5"/>
<circle class="st0" cx="427.3" cy="70.9" r="6.5"/>
<circle class="st0" cx="442.8" cy="70.9" r="6.5"/>
<circle class="st0" cx="410.8" cy="71.6" r="6.5"/>
<circle class="st0" cx="410.5" cy="87.4" r="6.5"/>
<circle class="st0" cx="297.6" cy="55" r="6.5"/>
<circle class="st0" cx="280.9" cy="55" r="6.5"/>
<circle class="st0" cx="312.8" cy="38.6" r="6.5"/>
<circle class="st0" cx="329.1" cy="38.6" r="6.5"/>
<circle class="st0" cx="313.1" cy="70.9" r="6.5"/>
<circle class="st0" cx="313.1" cy="87.4" r="6.5"/>
<circle class="st0" cx="297.6" cy="87.4" r="6.5"/>
<circle class="st0" cx="378" cy="23" r="6.5"/>
<circle class="st0" cx="394.5" cy="23" r="6.5"/>
<circle class="st0" cx="345.4" cy="22.3" r="6.5"/>
<circle class="st0" cx="345.4" cy="38.8" r="6.5"/>
<circle class="st0" cx="362.6" cy="70.9" r="6.5"/>
<circle class="st0" cx="362.6" cy="87.4" r="6.5"/>
<circle class="st0" cx="345.4" cy="70.6" r="6.5"/>
<circle class="st0" cx="345.4" cy="87.1" r="6.5"/>
<circle class="st0" cx="329.1" cy="70.9" r="6.5"/>
<circle class="st0" cx="329.1" cy="87.4" r="6.5"/>
<circle class="st0" cx="329.1" cy="103.3" r="6.5"/>
<circle class="st0" cx="345.4" cy="103.3" r="6.5"/>
<circle class="st0" cx="362.6" cy="103.3" r="6.5"/>
<circle class="st0" cx="394.2" cy="103.3" r="6.5"/>
<circle class="st0" cx="378" cy="103.3" r="6.5"/>
<circle class="st0" cx="442.8" cy="103.3" r="6.5"/>
<circle class="st0" cx="426.4" cy="103.3" r="6.5"/>
<circle class="st0" cx="443.3" cy="151.6" r="6.5"/>
<circle class="st0" cx="426.8" cy="151.6" r="6.5"/>
<circle class="st0" cx="362" cy="135.8" r="6.5"/>
<circle class="st0" cx="362" cy="119.3" r="6.5"/>
<circle class="st0" cx="345.4" cy="135.6" r="6.5"/>
<circle class="st0" cx="345.4" cy="119.2" r="6.5"/>
<circle class="st0" cx="329.1" cy="135.5" r="6.5"/>
<circle class="st0" cx="329.1" cy="119.1" r="6.5"/>
<circle class="st0" cx="297.6" cy="135.8" r="6.5"/>
<circle class="st0" cx="297.6" cy="119.3" r="6.5"/>
<circle class="st0" cx="313.1" cy="119.3" r="6.5"/>
<circle class="st0" cx="410.5" cy="135.4" r="6.5"/>
<circle class="st0" cx="410.5" cy="119.1" r="6.5"/>
<circle class="st0" cx="410.5" cy="151.6" r="6.5"/>
<circle class="st0" cx="410.5" cy="103.2" r="6.5"/>
<circle class="st0" cx="362" cy="151.6" r="6.5"/>
<circle class="st0" cx="362" cy="168.5" r="6.5"/>
<circle class="st0" cx="345.4" cy="152.1" r="6.5"/>
<circle class="st0" cx="329.1" cy="151.6" r="6.5"/>
<circle class="st0" cx="313.1" cy="103.2" r="6.5"/>
<circle class="st0" cx="296.6" cy="103.2" r="6.5"/>
<circle class="st0" cx="280.9" cy="135.2" r="6.5"/>
<circle class="st0" cx="280.9" cy="118.7" r="6.5"/>
<circle class="st0" cx="280.9" cy="103.2" r="6.5"/>
<circle class="st0" cx="280.9" cy="86.8" r="6.5"/>
<circle class="st0" cx="345.4" cy="183.9" r="6.5"/>
<circle class="st0" cx="345.4" cy="167.4" r="6.5"/>
<circle class="st0" cx="329.1" cy="184.2" r="6.5"/>
<circle class="st0" cx="329.1" cy="167.7" r="6.5"/>
<circle class="st0" cx="296.6" cy="183.9" r="6.5"/>
<circle class="st0" cx="313.1" cy="183.9" r="6.5"/>
<circle class="st0" cx="296.6" cy="199.9" r="6.5"/>
<circle class="st0" cx="313.1" cy="199.9" r="6.5"/>
<circle class="st0" cx="280.9" cy="199.9" r="6.5"/>
<circle class="st0" cx="345.4" cy="199.9" r="6.5"/>
<circle class="st0" cx="329.2" cy="199.9" r="6.5"/>
<circle class="st0" cx="460.1" cy="136.2" r="6.5"/>
<circle class="st0" cx="459.8" cy="151.6" r="6.5"/>
<circle class="st0" cx="476.3" cy="150.9" r="6.5"/>
<circle class="st0" cx="476.3" cy="184.2" r="6.5"/>
<circle class="st0" cx="476.3" cy="167.7" r="6.5"/>
<circle class="st0" cx="460.1" cy="184.6" r="6.5"/>
<circle class="st0" cx="460.1" cy="168.1" r="6.5"/>
<circle class="st0" cx="460.1" cy="200.7" r="6.5"/>
<circle class="st0" cx="443.9" cy="200.7" r="6.5"/>
<circle class="st0" cx="426.4" cy="200.7" r="6.5"/>
<circle class="st0" cx="410.5" cy="200.7" r="6.5"/>
<circle class="st0" cx="362.6" cy="23" r="6.5"/>
<circle class="st0" cx="264.9" cy="55" r="6.5"/>
<circle class="st0" cx="248.4" cy="55" r="6.5"/>
<circle class="st0" cx="248.4" cy="39.5" r="6.5"/>
<circle class="st0" cx="248.4" cy="23" r="6.5"/>
<circle class="st0" cx="248.4" cy="6.5" r="6.5"/>
<circle class="st0" cx="232.5" cy="39.5" r="6.5"/>
<circle class="st0" cx="232.5" cy="23" r="6.5"/>
<circle class="st0" cx="264.9" cy="86.8" r="6.5"/>
<circle class="st0" cx="248.4" cy="86.8" r="6.5"/>
<circle class="st0" cx="264.9" cy="103.2" r="6.5"/>
<circle class="st0" cx="248.4" cy="103.2" r="6.5"/>
<circle class="st0" cx="232.5" cy="135.5" r="6.5"/>
<circle class="st0" cx="232.5" cy="119.1" r="6.5"/>
<circle class="st0" cx="232.5" cy="103.3" r="6.5"/>
<circle class="st0" cx="232.5" cy="86.8" r="6.5"/>
<circle class="st0" cx="216.8" cy="86.9" r="6.5"/>
<circle class="st0" cx="200.3" cy="86.9" r="6.5"/>
<circle class="st0" cx="200.3" cy="71.4" r="6.5"/>
<circle class="st0" cx="216.8" cy="103.3" r="6.5"/>
<circle class="st0" cx="200.3" cy="103.3" r="6.5"/>
<circle class="st0" cx="249" cy="151.7" r="6.5"/>
<circle class="st0" cx="232.5" cy="151.6" r="6.5"/>
<circle class="st0" cx="232.5" cy="168.5" r="6.5"/>
<circle class="st0" cx="200.5" cy="184.2" r="6.5"/>
<circle class="st0" cx="200.5" cy="167.7" r="6.5"/>
<circle class="st0" cx="216.1" cy="167.7" r="6.5"/>
<circle class="st0" cx="200.5" cy="151.7" r="6.5"/>
<circle class="st0" cx="217" cy="151.7" r="6.5"/>
<circle class="st0" cx="184.3" cy="184.2" r="6.5"/>
<circle class="st0" cx="184.3" cy="167.7" r="6.5"/>
<circle class="st0" cx="167.9" cy="184.2" r="6.5"/>
<circle class="st0" cx="167.9" cy="167.7" r="6.5"/>
<circle class="st0" cx="151.5" cy="184.2" r="6.5"/>
<circle class="st0" cx="151.5" cy="167.7" r="6.5"/>
<circle class="st0" cx="103.2" cy="184.2" r="6.5"/>
<circle class="st0" cx="103.2" cy="167.7" r="6.5"/>
<circle class="st0" cx="103.2" cy="136" r="6.5"/>
<circle class="st0" cx="103.2" cy="119.5" r="6.5"/>
<circle class="st0" cx="151.5" cy="136" r="6.5"/>
<circle class="st0" cx="151.5" cy="119.5" r="6.5"/>
<circle class="st0" cx="167.9" cy="136" r="6.5"/>
<circle class="st0" cx="167.9" cy="119.5" r="6.5"/>
<circle class="st0" cx="184.3" cy="136" r="6.5"/>
<circle class="st0" cx="184.3" cy="119.5" r="6.5"/>
<circle class="st0" cx="184.3" cy="87.1" r="6.5"/>
<circle class="st0" cx="184.3" cy="70.6" r="6.5"/>
<circle class="st0" cx="167.9" cy="87.9" r="6.5"/>
<circle class="st0" cx="167.9" cy="71.4" r="6.5"/>
<circle class="st0" cx="151.5" cy="87.9" r="6.5"/>
<circle class="st0" cx="151.5" cy="71.4" r="6.5"/>
<circle class="st0" cx="70.5" cy="120" r="6.5"/>
<circle class="st0" cx="87" cy="120" r="6.5"/>
<circle class="st0" cx="87" cy="135.5" r="6.5"/>
<circle class="st0" cx="70.5" cy="103.3" r="6.5"/>
<circle class="st0" cx="87" cy="103.3" r="6.5"/>
<circle class="st0" cx="118.5" cy="151.7" r="6.5"/>
<circle class="st0" cx="135" cy="151.7" r="6.5"/>
<circle class="st0" cx="70.5" cy="199.9" r="6.5"/>
<circle class="st0" cx="87" cy="199.9" r="6.5"/>
<circle class="st0" cx="167.9" cy="199.9" r="6.5"/>
<circle class="st0" cx="151.5" cy="200.7" r="6.5"/>
<circle class="st0" cx="184.3" cy="103.2" r="6.5"/>
<circle class="st0" cx="167.9" cy="103.7" r="6.5"/>
<circle class="st0" cx="151.5" cy="103.3" r="6.5"/>
<circle class="st0" cx="135.6" cy="103.4" r="6.5"/>
<circle class="st0" cx="119.1" cy="103.4" r="6.5"/>
<circle class="st0" cx="103.1" cy="103.2" r="6.5"/>
<circle class="st0" cx="232.3" cy="151.8" r="6.5"/>
<circle class="st0" cx="199.7" cy="151.6" r="6.5"/>
<circle class="st0" cx="136" cy="200.7" r="6.5"/>
<circle class="st0" cx="118.7" cy="200.6" r="6.5"/>
<circle class="st0" cx="102.8" cy="199.9" r="6.5"/>
<circle class="st0" cx="87" cy="184.2" r="6.5"/>
<circle class="st0" cx="70.5" cy="184.2" r="6.5"/>
<circle class="st0" cx="54.5" cy="200.7" r="6.5"/>
<circle class="st0" cx="54.5" cy="120" r="6.5"/>
<circle class="st0" cx="54.5" cy="103.7" r="6.5"/>
<circle class="st0" cx="38.2" cy="103.4" r="6.5"/>
<circle class="st0" cx="87" cy="71.4" r="6.5"/>
<circle class="st0" cx="102.8" cy="71.4" r="6.5"/>
<circle class="st0" cx="6.5" cy="87.3" r="6.5"/>
<circle class="st0" cx="6.5" cy="70.8" r="6.5"/>
<circle class="st0" cx="39" cy="86.8" r="6.5"/>
<circle class="st0" cx="22.5" cy="86.8" r="6.5"/>
<circle class="st0" cx="22.5" cy="71.3" r="6.5"/>
<circle class="st0" cx="151.5" cy="39.4" r="6.5"/>
<circle class="st0" cx="151.5" cy="22.9" r="6.5"/>
<circle class="st0" cx="167.9" cy="39" r="6.5"/>
<circle class="st0" cx="167.9" cy="22.5" r="6.5"/>
<circle class="st0" cx="102.8" cy="39.5" r="6.5"/>
<circle class="st0" cx="102.8" cy="23" r="6.5"/>
<circle class="st0" cx="87" cy="39.4" r="6.5"/>
<circle class="st0" cx="87" cy="22.9" r="6.5"/>
<circle class="st0" cx="135.6" cy="55" r="6.5"/>
<circle class="st0" cx="119.1" cy="55" r="6.5"/>
<circle class="st0" cx="184.3" cy="39.4" r="6.5"/>
<circle class="st0" cx="184.3" cy="55" r="6.5"/>
<circle class="st0" cx="167.9" cy="55.2" r="6.5"/>
<circle class="st0" cx="151.5" cy="55" r="6.5"/>
<circle class="st0" cx="134.9" cy="23.5" r="6.5"/>
<circle class="st0" cx="134.9" cy="40" r="6.5"/>
<circle class="st0" cx="119.4" cy="40" r="6.5"/>
<circle class="st0" cx="119.1" cy="6.5" r="6.5"/>
<circle class="st0" cx="135.6" cy="6.5" r="6.5"/>
<circle class="st0" cx="151.5" cy="6.5" r="6.5"/>
<circle class="st0" cx="167.9" cy="6.5" r="6.5"/>
<circle class="st0" cx="184.3" cy="6.5" r="6.5"/>
<circle class="st0" cx="102.8" cy="55.4" r="6.5"/>
<circle class="st0" cx="87" cy="55" r="6.5"/>
<circle class="st0" cx="70.5" cy="55" r="6.5"/>
<circle class="st0" cx="54.5" cy="55.4" r="6.5"/>
<circle class="st0" cx="54.5" cy="38.6" r="6.5"/>
<circle class="st0" cx="38.2" cy="38.6" r="6.5"/>
<circle class="st0" cx="394.4" cy="71.6" r="6.5"/>
<circle class="st0" cx="394.2" cy="87.1" r="6.5"/>
<circle class="st0" cx="378" cy="70.9" r="6.5"/>
<circle class="st0" cx="378" cy="87.4" r="6.5"/>
<circle class="st0" cx="394.2" cy="119.7" r="6.5"/>
<circle class="st0" cx="394.2" cy="135.6" r="6.5"/>
<circle class="st0" cx="378" cy="119.4" r="6.5"/>
<circle class="st0" cx="378" cy="135.9" r="6.5"/>
<circle class="st0" cx="444" cy="120.3" r="6.5"/>
<circle class="st0" cx="443.3" cy="136.2" r="6.5"/>
<circle class="st0" cx="426.8" cy="120" r="6.5"/>
<circle class="st0" cx="426.8" cy="135.8" r="6.5"/>
<circle class="st0" cx="443.9" cy="168.1" r="6.5"/>
<circle class="st0" cx="443.9" cy="184.6" r="6.5"/>
<circle class="st0" cx="426.6" cy="167.8" r="6.5"/>
<circle class="st0" cx="426.6" cy="184.2" r="6.5"/>
<circle class="st0" cx="266" cy="119.3" r="6.5"/>
<circle class="st0" cx="266" cy="135.8" r="6.5"/>
<circle class="st0" cx="248.7" cy="118.9" r="6.5"/>
<circle class="st0" cx="248.7" cy="135.4" r="6.5"/>
<circle class="st0" cx="218.2" cy="119.4" r="6.5"/>
<circle class="st0" cx="218.2" cy="135.9" r="6.5"/>
<circle class="st0" cx="200.9" cy="119.1" r="6.5"/>
<circle class="st0" cx="200.9" cy="135.5" r="6.5"/>
<circle class="st0" cx="136" cy="168.1" r="6.5"/>
<circle class="st0" cx="136" cy="184.6" r="6.5"/>
<circle class="st0" cx="118.7" cy="167.8" r="6.5"/>
<circle class="st0" cx="118.7" cy="184.2" r="6.5"/>
<circle class="st0" cx="136" cy="119.5" r="6.5"/>
<circle class="st0" cx="136" cy="136" r="6.5"/>
<circle class="st0" cx="118.7" cy="119.2" r="6.5"/>
<circle class="st0" cx="118.7" cy="135.7" r="6.5"/>
<circle class="st0" cx="135.8" cy="71.8" r="6.5"/>
<circle class="st0" cx="135.8" cy="88.3" r="6.5"/>
<circle class="st0" cx="118.5" cy="71.5" r="6.5"/>
<circle class="st0" cx="118.5" cy="88" r="6.5"/>
</svg>
